solid PART_6
  facet normal -0.000000000e+00 -1.767905329e-06 -1.000000000e+00
    outer loop
      vertex   2.000000000e+00 -1.000000000e+00 5.352202629e-08
      vertex   1.000000000e+00 -1.000000000e+00 5.352202629e-08
      vertex   1.000000125e+00 0.000000000e+00 -1.714383303e-06
    endloop
  endfacet
  facet normal -2.117582368e-22 -1.767905329e-06 -1.000000000e+00
    outer loop
      vertex   1.000000125e+00 0.000000000e+00 -1.714383303e-06
      vertex   2.000000125e+00 0.000000000e+00 -1.714383303e-06
      vertex   2.000000000e+00 -1.000000000e+00 5.352202629e-08
    endloop
  endfacet
  facet normal -0.000000000e+00 -1.767905329e-06 -1.000000000e+00
    outer loop
      vertex   3.000000000e+00 -1.000000000e+00 5.352202629e-08
      vertex   2.000000000e+00 -1.000000000e+00 5.352202629e-08
      vertex   2.000000125e+00 0.000000000e+00 -1.714383303e-06
    endloop
  endfacet
  facet normal 2.117582368e-22 -1.767905329e-06 -1.000000000e+00
    outer loop
      vertex   2.000000125e+00 0.000000000e+00 -1.714383303e-06
      vertex   3.000000125e+00 0.000000000e+00 -1.714383303e-06
      vertex   3.000000000e+00 -1.000000000e+00 5.352202629e-08
    endloop
  endfacet
  facet normal -0.000000000e+00 -1.767905329e-06 -1.000000000e+00
    outer loop
      vertex   4.000000000e+00 -1.000000000e+00 5.352202629e-08
      vertex   3.000000000e+00 -1.000000000e+00 5.352202629e-08
      vertex   3.000000125e+00 0.000000000e+00 -1.714383303e-06
    endloop
  endfacet
  facet normal 0.000000000e+00 -1.767905329e-06 -1.000000000e+00
    outer loop
      vertex   3.000000125e+00 0.000000000e+00 -1.714383303e-06
      vertex   4.000000125e+00 0.000000000e+00 -1.714383303e-06
      vertex   4.000000000e+00 -1.000000000e+00 5.352202629e-08
    endloop
  endfacet
  facet normal 2.117582368e-22 -1.767905329e-06 -1.000000000e+00
    outer loop
      vertex   5.000000125e+00 0.000000000e+00 -1.714383303e-06
      vertex   6.000000125e+00 0.000000000e+00 -1.714383303e-06
      vertex   6.000000000e+00 -1.000000000e+00 5.352202629e-08
    endloop
  endfacet
  facet normal 0.000000000e+00 -1.767905329e-06 -1.000000000e+00
    outer loop
      vertex   5.000000125e+00 0.000000000e+00 -1.714383303e-06
      vertex   6.000000000e+00 -1.000000000e+00 5.352202629e-08
      vertex   5.000000000e+00 -1.000000000e+00 5.352202629e-08
    endloop
  endfacet
  facet normal -2.117582368e-22 -1.767905329e-06 -1.000000000e+00
    outer loop
      vertex   4.000000125e+00 0.000000000e+00 -1.714383303e-06
      vertex   5.000000125e+00 0.000000000e+00 -1.714383303e-06
      vertex   5.000000000e+00 -1.000000000e+00 5.352202629e-08
    endloop
  endfacet
  facet normal 0.000000000e+00 -1.767905329e-06 -1.000000000e+00
    outer loop
      vertex   4.000000000e+00 -1.000000000e+00 5.352202629e-08
      vertex   4.000000125e+00 0.000000000e+00 -1.714383303e-06
      vertex   5.000000000e+00 -1.000000000e+00 5.352202629e-08
    endloop
  endfacet
endsolid
