solid patchFFFFFF
  facet normal -0.316228 0.948683 0
    outer loop
       vertex 0 1.1 0
       vertex 0 1.1 -1.5
       vertex -0.15 1.05 -1.5
    endloop
  endfacet
  facet normal -0.316228 0.948683 0
    outer loop
       vertex -0.15 1.05 -1.5
       vertex -0.3 1 -1.5
       vertex -0.15 1.05 0
    endloop
  endfacet
  facet normal -0.316228 0.948683 0
    outer loop
       vertex -0.15 1.05 0
       vertex 0 1.1 1.5
       vertex 0 1.1 0
    endloop
  endfacet
  facet normal -0.316228 0.948683 0
    outer loop
       vertex 0 1.1 0
       vertex -0.15 1.05 -1.5
       vertex -0.15 1.05 0
    endloop
  endfacet
  facet normal -0.316228 0.948683 0
    outer loop
       vertex -0.15 1.05 0
       vertex -0.3 1 -1.5
       vertex -0.3 1 0
    endloop
  endfacet
  facet normal -0.316228 0.948683 0
    outer loop
       vertex -0.3 1 0
       vertex -0.3 1 1.5
       vertex -0.15 1.05 1.5
    endloop
  endfacet
  facet normal -0.316228 0.948683 0
    outer loop
       vertex -0.15 1.05 1.5
       vertex 0 1.1 1.5
       vertex -0.15 1.05 0
    endloop
  endfacet
  facet normal -0.316228 0.948683 0
    outer loop
       vertex -0.15 1.05 0
       vertex -0.3 1 0
       vertex -0.15 1.05 1.5
    endloop
  endfacet
  facet normal 0.447214 0.894427 0
    outer loop
       vertex 0.2 1 0
       vertex 0.2 1 -1.5
       vertex 0.1 1.05 -1.5
    endloop
  endfacet
  facet normal 0.447214 0.894427 -0
    outer loop
       vertex 0.1 1.05 -1.5
       vertex 0 1.1 -1.5
       vertex 0.1 1.05 0
    endloop
  endfacet
  facet normal 0.447214 0.894427 0
    outer loop
       vertex 0.1 1.05 0
       vertex 0.2 1 1.5
       vertex 0.2 1 0
    endloop
  endfacet
  facet normal 0.447214 0.894427 0
    outer loop
       vertex 0.2 1 0
       vertex 0.1 1.05 -1.5
       vertex 0.1 1.05 0
    endloop
  endfacet
  facet normal 0.447214 0.894427 0
    outer loop
       vertex 0.1 1.05 0
       vertex 0 1.1 -1.5
       vertex 0 1.1 0
    endloop
  endfacet
  facet normal 0.447214 0.894427 -0
    outer loop
       vertex 0 1.1 0
       vertex 0 1.1 1.5
       vertex 0.1 1.05 1.5
    endloop
  endfacet
  facet normal 0.447214 0.894427 0
    outer loop
       vertex 0.1 1.05 1.5
       vertex 0.2 1 1.5
       vertex 0.1 1.05 0
    endloop
  endfacet
  facet normal 0.447214 0.894427 -0
    outer loop
       vertex 0.1 1.05 0
       vertex 0 1.1 0
       vertex 0.1 1.05 1.5
    endloop
  endfacet
  facet normal 0.5547 0.83205 0
    outer loop
       vertex 0.5 0.8 0
       vertex 0.5 0.8 -1.5
       vertex 0.35 0.9 -1.5
    endloop
  endfacet
  facet normal 0.707107 0.707107 0
    outer loop
       vertex -0.7 0.8 1.5
       vertex -0.6 0.7 1.5
       vertex -0.7 0.8 0
    endloop
  endfacet
  facet normal 0.707107 0.707107 -0
    outer loop
       vertex -0.7 0.8 0
       vertex -0.8 0.9 0
       vertex -0.7 0.8 1.5
    endloop
  endfacet
  facet normal 0 1 0
    outer loop
       vertex -0.4 0.7 0
       vertex -0.4 0.7 -1.5
       vertex -0.5 0.7 -1.5
    endloop
  endfacet
  facet normal 0 1 -0
    outer loop
       vertex -0.5 0.7 -1.5
       vertex -0.6 0.7 -1.5
       vertex -0.5 0.7 0
    endloop
  endfacet
  facet normal 0 1 0
    outer loop
       vertex -0.5 0.7 0
       vertex -0.4 0.7 1.5
       vertex -0.4 0.7 0
    endloop
  endfacet
  facet normal 0 1 0
    outer loop
       vertex -0.4 0.7 0
       vertex -0.5 0.7 -1.5
       vertex -0.5 0.7 0
    endloop
  endfacet
  facet normal 0 1 0
    outer loop
       vertex -0.5 0.7 0
       vertex -0.6 0.7 -1.5
       vertex -0.6 0.7 0
    endloop
  endfacet
  facet normal 0 1 0
    outer loop
       vertex -0.6 0.7 0
       vertex -0.6 0.7 1.5
       vertex -0.5 0.7 1.5
    endloop
  endfacet
  facet normal -0 1 0
    outer loop
       vertex -0.5 0.7 1.5
       vertex -0.4 0.7 1.5
       vertex -0.5 0.7 0
    endloop
  endfacet
  facet normal 0 1 -0
    outer loop
       vertex -0.5 0.7 0
       vertex -0.6 0.7 0
       vertex -0.5 0.7 1.5
    endloop
  endfacet
  facet normal -0.948683 0.316228 0
    outer loop
       vertex -0.3 1 0
       vertex -0.3 1 -1.5
       vertex -0.35 0.85 -1.5
    endloop
  endfacet
  facet normal -0.948683 0.316228 0
    outer loop
       vertex -0.35 0.85 -1.5
       vertex -0.4 0.7 -1.5
       vertex -0.35 0.85 0
    endloop
  endfacet
  facet normal -0.948683 0.316228 0
    outer loop
       vertex -0.35 0.85 0
       vertex -0.3 1 1.5
       vertex -0.3 1 0
    endloop
  endfacet
  facet normal -0.948683 0.316228 0
    outer loop
       vertex -0.3 1 0
       vertex -0.35 0.85 -1.5
       vertex -0.35 0.85 0
    endloop
  endfacet
  facet normal -0.948683 0.316228 0
    outer loop
       vertex -0.35 0.85 0
       vertex -0.4 0.7 -1.5
       vertex -0.4 0.7 0
    endloop
  endfacet
  facet normal -0.948683 0.316228 0
    outer loop
       vertex -0.4 0.7 0
       vertex -0.4 0.7 1.5
       vertex -0.35 0.85 1.5
    endloop
  endfacet
  facet normal -0.948683 0.316228 0
    outer loop
       vertex -0.35 0.85 1.5
       vertex -0.3 1 1.5
       vertex -0.35 0.85 0
    endloop
  endfacet
  facet normal -0.948683 0.316228 0
    outer loop
       vertex -0.35 0.85 0
       vertex -0.4 0.7 0
       vertex -0.35 0.85 1.5
    endloop
  endfacet
  facet normal 0.5547 0.83205 0
    outer loop
       vertex 1 0.8 0
       vertex 0.85 0.9 -1.5
       vertex 0.85 0.9 0
    endloop
  endfacet
  facet normal 0.5547 0.83205 0
    outer loop
       vertex 0.85 0.9 0
       vertex 0.7 1 -1.5
       vertex 0.7 1 0
    endloop
  endfacet
  facet normal 0.5547 0.83205 -0
    outer loop
       vertex 0.7 1 0
       vertex 0.7 1 1.5
       vertex 0.85 0.9 1.5
    endloop
  endfacet
  facet normal 0.5547 0.83205 0
    outer loop
       vertex 0.85 0.9 1.5
       vertex 1 0.8 1.5
       vertex 0.85 0.9 0
    endloop
  endfacet
  facet normal 0.5547 0.83205 -0
    outer loop
       vertex 0.85 0.9 0
       vertex 0.7 1 0
       vertex 0.85 0.9 1.5
    endloop
  endfacet
  facet normal 0.8 0.6 0
    outer loop
       vertex 1.3 0.4 0
       vertex 1.3 0.4 -1.5
       vertex 1.15 0.6 -1.5
    endloop
  endfacet
  facet normal 0.8 0.6 -0
    outer loop
       vertex 1.15 0.6 -1.5
       vertex 1 0.8 -1.5
       vertex 1.15 0.6 0
    endloop
  endfacet
  facet normal 0.8 0.6 0
    outer loop
       vertex 1.15 0.6 0
       vertex 1.3 0.4 1.5
       vertex 1.3 0.4 0
    endloop
  endfacet
  facet normal 0.8 0.6 0
    outer loop
       vertex 1.3 0.4 0
       vertex 1.15 0.6 -1.5
       vertex 1.15 0.6 0
    endloop
  endfacet
  facet normal 0.8 0.6 0
    outer loop
       vertex 1.15 0.6 0
       vertex 1 0.8 -1.5
       vertex 1 0.8 0
    endloop
  endfacet
  facet normal 0.8 0.6 -0
    outer loop
       vertex 1 0.8 0
       vertex 1 0.8 1.5
       vertex 1.15 0.6 1.5
    endloop
  endfacet
  facet normal 0.8 0.6 0
    outer loop
       vertex 1.15 0.6 1.5
       vertex 1.3 0.4 1.5
       vertex 1.15 0.6 0
    endloop
  endfacet
  facet normal 0.8 0.6 -0
    outer loop
       vertex 1.15 0.6 0
       vertex 1 0.8 0
       vertex 1.15 0.6 1.5
    endloop
  endfacet
  facet normal 1 0 0
    outer loop
       vertex 1.3 0 0
       vertex 1.3 0 -1.5
       vertex 1.3 0.2 -1.5
    endloop
  endfacet
  facet normal 1 0 0
    outer loop
       vertex 1.3 0.2 -1.5
       vertex 1.3 0.4 -1.5
       vertex 1.3 0.2 0
    endloop
  endfacet
  facet normal 1 0 0
    outer loop
       vertex 1.3 0.2 0
       vertex 1.3 0 1.5
       vertex 1.3 0 0
    endloop
  endfacet
  facet normal 1 -0 0
    outer loop
       vertex 1.3 0 0
       vertex 1.3 0.2 -1.5
       vertex 1.3 0.2 0
    endloop
  endfacet
  facet normal 0.5547 0.83205 -0
    outer loop
       vertex 0.35 0.9 -1.5
       vertex 0.2 1 -1.5
       vertex 0.35 0.9 0
    endloop
  endfacet
  facet normal 0.5547 0.83205 0
    outer loop
       vertex 0.35 0.9 0
       vertex 0.5 0.8 1.5
       vertex 0.5 0.8 0
    endloop
  endfacet
  facet normal 0.5547 0.83205 0
    outer loop
       vertex 0.5 0.8 0
       vertex 0.35 0.9 -1.5
       vertex 0.35 0.9 0
    endloop
  endfacet
  facet normal 0.5547 0.83205 0
    outer loop
       vertex 0.35 0.9 0
       vertex 0.2 1 -1.5
       vertex 0.2 1 0
    endloop
  endfacet
  facet normal 0.5547 0.83205 -0
    outer loop
       vertex 0.2 1 0
       vertex 0.2 1 1.5
       vertex 0.35 0.9 1.5
    endloop
  endfacet
  facet normal 0.5547 0.83205 0
    outer loop
       vertex 0.35 0.9 1.5
       vertex 0.5 0.8 1.5
       vertex 0.35 0.9 0
    endloop
  endfacet
  facet normal 0.5547 0.83205 -0
    outer loop
       vertex 0.35 0.9 0
       vertex 0.2 1 0
       vertex 0.35 0.9 1.5
    endloop
  endfacet
  facet normal -0.707107 0.707107 0
    outer loop
       vertex 0.7 1 0
       vertex 0.7 1 -1.5
       vertex 0.6 0.9 -1.5
    endloop
  endfacet
  facet normal -0.707107 0.707107 0
    outer loop
       vertex 0.6 0.9 -1.5
       vertex 0.5 0.8 -1.5
       vertex 0.6 0.9 0
    endloop
  endfacet
  facet normal -0.707107 0.707107 0
    outer loop
       vertex 0.6 0.9 0
       vertex 0.7 1 1.5
       vertex 0.7 1 0
    endloop
  endfacet
  facet normal -0.707107 0.707107 0
    outer loop
       vertex 0.7 1 0
       vertex 0.6 0.9 -1.5
       vertex 0.6 0.9 0
    endloop
  endfacet
  facet normal -0.707107 0.707107 0
    outer loop
       vertex 0.6 0.9 0
       vertex 0.5 0.8 -1.5
       vertex 0.5 0.8 0
    endloop
  endfacet
  facet normal -0.707107 0.707107 0
    outer loop
       vertex 0.5 0.8 0
       vertex 0.5 0.8 1.5
       vertex 0.6 0.9 1.5
    endloop
  endfacet
  facet normal -0.707107 0.707107 0
    outer loop
       vertex 0.6 0.9 1.5
       vertex 0.7 1 1.5
       vertex 0.6 0.9 0
    endloop
  endfacet
  facet normal -0.707107 0.707107 0
    outer loop
       vertex 0.6 0.9 0
       vertex 0.5 0.8 0
       vertex 0.6 0.9 1.5
    endloop
  endfacet
  facet normal 0.5547 0.83205 0
    outer loop
       vertex 1 0.8 0
       vertex 1 0.8 -1.5
       vertex 0.85 0.9 -1.5
    endloop
  endfacet
  facet normal 0.5547 0.83205 -0
    outer loop
       vertex 0.85 0.9 -1.5
       vertex 0.7 1 -1.5
       vertex 0.85 0.9 0
    endloop
  endfacet
  facet normal 0.5547 0.83205 0
    outer loop
       vertex 0.85 0.9 0
       vertex 1 0.8 1.5
       vertex 1 0.8 0
    endloop
  endfacet
  facet normal 0.196116 -0.980581 0
    outer loop
       vertex 0.65 -0.05 1.5
       vertex 0.4 -0.1 1.5
       vertex 0.65 -0.05 0
    endloop
  endfacet
  facet normal 0.196116 -0.980581 0
    outer loop
       vertex 0.65 -0.05 0
       vertex 0.9 0 0
       vertex 0.65 -0.05 1.5
    endloop
  endfacet
  facet normal 1 0 0
    outer loop
       vertex 0.4 -0.3 0
       vertex 0.4 -0.3 -1.5
       vertex 0.4 -0.2 -1.5
    endloop
  endfacet
  facet normal 1 0 0
    outer loop
       vertex 0.4 -0.2 -1.5
       vertex 0.4 -0.1 -1.5
       vertex 0.4 -0.2 0
    endloop
  endfacet
  facet normal 1 0 0
    outer loop
       vertex 0.4 -0.2 0
       vertex 0.4 -0.3 1.5
       vertex 0.4 -0.3 0
    endloop
  endfacet
  facet normal 1 -0 0
    outer loop
       vertex 0.4 -0.3 0
       vertex 0.4 -0.2 -1.5
       vertex 0.4 -0.2 0
    endloop
  endfacet
  facet normal 1 -0 0
    outer loop
       vertex 0.4 -0.2 0
       vertex 0.4 -0.1 -1.5
       vertex 0.4 -0.1 0
    endloop
  endfacet
  facet normal 1 0 -0
    outer loop
       vertex 0.4 -0.1 0
       vertex 0.4 -0.1 1.5
       vertex 0.4 -0.2 1.5
    endloop
  endfacet
  facet normal 1 0 0
    outer loop
       vertex 0.4 -0.2 1.5
       vertex 0.4 -0.3 1.5
       vertex 0.4 -0.2 0
    endloop
  endfacet
  facet normal 1 0 0
    outer loop
       vertex 0.4 -0.2 0
       vertex 0.4 -0.1 0
       vertex 0.4 -0.2 1.5
    endloop
  endfacet
  facet normal 0.242536 0.970143 0
    outer loop
       vertex 0.8 -0.4 0
       vertex 0.8 -0.4 -1.5
       vertex 0.6 -0.35 -1.5
    endloop
  endfacet
  facet normal 0.242536 0.970143 -0
    outer loop
       vertex 0.6 -0.35 -1.5
       vertex 0.4 -0.3 -1.5
       vertex 0.6 -0.35 0
    endloop
  endfacet
  facet normal 0.242536 0.970143 0
    outer loop
       vertex 0.6 -0.35 0
       vertex 0.8 -0.4 1.5
       vertex 0.8 -0.4 0
    endloop
  endfacet
  facet normal 0.242536 0.970143 0
    outer loop
       vertex 0.8 -0.4 0
       vertex 0.6 -0.35 -1.5
       vertex 0.6 -0.35 0
    endloop
  endfacet
  facet normal 0.242536 0.970143 0
    outer loop
       vertex 0.6 -0.35 0
       vertex 0.4 -0.3 -1.5
       vertex 0.4 -0.3 0
    endloop
  endfacet
  facet normal 0.242536 0.970143 -0
    outer loop
       vertex 0.4 -0.3 0
       vertex 0.4 -0.3 1.5
       vertex 0.6 -0.35 1.5
    endloop
  endfacet
  facet normal 0.242536 0.970143 0
    outer loop
       vertex 0.6 -0.35 1.5
       vertex 0.8 -0.4 1.5
       vertex 0.6 -0.35 0
    endloop
  endfacet
  facet normal 1 -0 0
    outer loop
       vertex 1.3 0.2 0
       vertex 1.3 0.4 -1.5
       vertex 1.3 0.4 0
    endloop
  endfacet
  facet normal 1 0 -0
    outer loop
       vertex 1.3 0.4 0
       vertex 1.3 0.4 1.5
       vertex 1.3 0.2 1.5
    endloop
  endfacet
  facet normal 1 0 0
    outer loop
       vertex 1.3 0.2 1.5
       vertex 1.3 0 1.5
       vertex 1.3 0.2 0
    endloop
  endfacet
  facet normal 1 0 0
    outer loop
       vertex 1.3 0.2 0
       vertex 1.3 0.4 0
       vertex 1.3 0.2 1.5
    endloop
  endfacet
  facet normal 0 -1 0
    outer loop
       vertex 0.9 0 0
       vertex 0.9 0 -1.5
       vertex 1.1 0 -1.5
    endloop
  endfacet
  facet normal 0 -1 0
    outer loop
       vertex 1.1 0 -1.5
       vertex 1.3 0 -1.5
       vertex 1.1 0 0
    endloop
  endfacet
  facet normal 0 -1 0
    outer loop
       vertex 1.1 0 0
       vertex 0.9 0 1.5
       vertex 0.9 0 0
    endloop
  endfacet
  facet normal 0 -1 0
    outer loop
       vertex 0.9 0 0
       vertex 1.1 0 -1.5
       vertex 1.1 0 0
    endloop
  endfacet
  facet normal 0 -1 0
    outer loop
       vertex 1.1 0 0
       vertex 1.3 0 -1.5
       vertex 1.3 0 0
    endloop
  endfacet
  facet normal 0 -1 0
    outer loop
       vertex 1.3 0 0
       vertex 1.3 0 1.5
       vertex 1.1 0 1.5
    endloop
  endfacet
  facet normal -0 -1 -0
    outer loop
       vertex 1.1 0 1.5
       vertex 0.9 0 1.5
       vertex 1.1 0 0
    endloop
  endfacet
  facet normal 0 -1 0
    outer loop
       vertex 1.1 0 0
       vertex 1.3 0 0
       vertex 1.1 0 1.5
    endloop
  endfacet
  facet normal 0.196116 -0.980581 0
    outer loop
       vertex 0.4 -0.1 0
       vertex 0.4 -0.1 -1.5
       vertex 0.65 -0.05 -1.5
    endloop
  endfacet
  facet normal 0.196116 -0.980581 0
    outer loop
       vertex 0.65 -0.05 -1.5
       vertex 0.9 0 -1.5
       vertex 0.65 -0.05 0
    endloop
  endfacet
  facet normal 0.196116 -0.980581 0
    outer loop
       vertex 0.65 -0.05 0
       vertex 0.4 -0.1 1.5
       vertex 0.4 -0.1 0
    endloop
  endfacet
  facet normal 0.196116 -0.980581 0
    outer loop
       vertex 0.4 -0.1 0
       vertex 0.65 -0.05 -1.5
       vertex 0.65 -0.05 0
    endloop
  endfacet
  facet normal 0.196116 -0.980581 0
    outer loop
       vertex 0.65 -0.05 0
       vertex 0.9 0 -1.5
       vertex 0.9 0 0
    endloop
  endfacet
  facet normal 0.196116 -0.980581 0
    outer loop
       vertex 0.9 0 0
       vertex 0.9 0 1.5
       vertex 0.65 -0.05 1.5
    endloop
  endfacet
  facet normal 0.124035 -0.992278 0
    outer loop
       vertex 0.7 -1.05 -1.5
       vertex 1.1 -1 -1.5
       vertex 0.7 -1.05 0
    endloop
  endfacet
  facet normal 0.124035 -0.992278 0
    outer loop
       vertex 0.7 -1.05 0
       vertex 0.3 -1.1 1.5
       vertex 0.3 -1.1 0
    endloop
  endfacet
  facet normal 0.124035 -0.992278 0
    outer loop
       vertex 0.3 -1.1 0
       vertex 0.7 -1.05 -1.5
       vertex 0.7 -1.05 0
    endloop
  endfacet
  facet normal 0.124035 -0.992278 0
    outer loop
       vertex 0.7 -1.05 0
       vertex 1.1 -1 -1.5
       vertex 1.1 -1 0
    endloop
  endfacet
  facet normal 0.124035 -0.992278 0
    outer loop
       vertex 1.1 -1 0
       vertex 1.1 -1 1.5
       vertex 0.7 -1.05 1.5
    endloop
  endfacet
  facet normal 0.124035 -0.992278 0
    outer loop
       vertex 0.7 -1.05 1.5
       vertex 0.3 -1.1 1.5
       vertex 0.7 -1.05 0
    endloop
  endfacet
  facet normal 0.124035 -0.992278 0
    outer loop
       vertex 0.7 -1.05 0
       vertex 1.1 -1 0
       vertex 0.7 -1.05 1.5
    endloop
  endfacet
  facet normal -0.894427 0.447213 0
    outer loop
       vertex 0.4 -0.9 0
       vertex 0.4 -0.9 -1.5
       vertex 0.35 -1 -1.5
    endloop
  endfacet
  facet normal -0.894427 0.447213 0
    outer loop
       vertex 0.35 -1 -1.5
       vertex 0.3 -1.1 -1.5
       vertex 0.35 -1 0
    endloop
  endfacet
  facet normal -0.894427 0.447213 0
    outer loop
       vertex 0.35 -1 0
       vertex 0.4 -0.9 1.5
       vertex 0.4 -0.9 0
    endloop
  endfacet
  facet normal -0.894427 0.447213 0
    outer loop
       vertex 0.4 -0.9 0
       vertex 0.35 -1 -1.5
       vertex 0.35 -1 0
    endloop
  endfacet
  facet normal 0.707107 0.707107 0
    outer loop
       vertex -0.6 0.7 0
       vertex -0.6 0.7 -1.5
       vertex -0.7 0.8 -1.5
    endloop
  endfacet
  facet normal 0.707107 0.707107 -0
    outer loop
       vertex -0.7 0.8 -1.5
       vertex -0.8 0.9 -1.5
       vertex -0.7 0.8 0
    endloop
  endfacet
  facet normal 0.707107 0.707107 0
    outer loop
       vertex -0.7 0.8 0
       vertex -0.6 0.7 1.5
       vertex -0.6 0.7 0
    endloop
  endfacet
  facet normal 0.707107 0.707107 0
    outer loop
       vertex -0.6 0.7 0
       vertex -0.7 0.8 -1.5
       vertex -0.7 0.8 0
    endloop
  endfacet
  facet normal 0.707107 0.707107 0
    outer loop
       vertex -0.7 0.8 0
       vertex -0.8 0.9 -1.5
       vertex -0.8 0.9 0
    endloop
  endfacet
  facet normal 0.707107 0.707107 -0
    outer loop
       vertex -0.8 0.9 0
       vertex -0.8 0.9 1.5
       vertex -0.7 0.8 1.5
    endloop
  endfacet
  facet normal 0.242536 0.970143 -0
    outer loop
       vertex 0.6 -0.35 0
       vertex 0.4 -0.3 0
       vertex 0.6 -0.35 1.5
    endloop
  endfacet
  facet normal 0.242536 0.970143 0
    outer loop
       vertex 1.2 -0.5 0
       vertex 1.2 -0.5 -1.5
       vertex 1 -0.45 -1.5
    endloop
  endfacet
  facet normal 0.242536 0.970143 -0
    outer loop
       vertex 1 -0.45 -1.5
       vertex 0.8 -0.4 -1.5
       vertex 1 -0.45 0
    endloop
  endfacet
  facet normal 0.242536 0.970143 0
    outer loop
       vertex 1 -0.45 0
       vertex 1.2 -0.5 1.5
       vertex 1.2 -0.5 0
    endloop
  endfacet
  facet normal 0.242536 0.970143 0
    outer loop
       vertex 1.2 -0.5 0
       vertex 1 -0.45 -1.5
       vertex 1 -0.45 0
    endloop
  endfacet
  facet normal 0.242536 0.970143 0
    outer loop
       vertex 1 -0.45 0
       vertex 0.8 -0.4 -1.5
       vertex 0.8 -0.4 0
    endloop
  endfacet
  facet normal 0.242536 0.970143 -0
    outer loop
       vertex 0.8 -0.4 0
       vertex 0.8 -0.4 1.5
       vertex 1 -0.45 1.5
    endloop
  endfacet
  facet normal 0.242536 0.970143 0
    outer loop
       vertex 1 -0.45 1.5
       vertex 1.2 -0.5 1.5
       vertex 1 -0.45 0
    endloop
  endfacet
  facet normal 0.242536 0.970143 -0
    outer loop
       vertex 1 -0.45 0
       vertex 0.8 -0.4 0
       vertex 1 -0.45 1.5
    endloop
  endfacet
  facet normal 0.980581 -0.196116 0
    outer loop
       vertex 1.1 -1 0
       vertex 1.1 -1 -1.5
       vertex 1.15 -0.75 -1.5
    endloop
  endfacet
  facet normal 0.980581 -0.196116 0
    outer loop
       vertex 1.15 -0.75 -1.5
       vertex 1.2 -0.5 -1.5
       vertex 1.15 -0.75 0
    endloop
  endfacet
  facet normal 0.980581 -0.196116 0
    outer loop
       vertex 1.15 -0.75 0
       vertex 1.1 -1 1.5
       vertex 1.1 -1 0
    endloop
  endfacet
  facet normal 0.980581 -0.196116 0
    outer loop
       vertex 1.1 -1 0
       vertex 1.15 -0.75 -1.5
       vertex 1.15 -0.75 0
    endloop
  endfacet
  facet normal 0.980581 -0.196116 0
    outer loop
       vertex 1.15 -0.75 0
       vertex 1.2 -0.5 -1.5
       vertex 1.2 -0.5 0
    endloop
  endfacet
  facet normal 0.980581 -0.196116 0
    outer loop
       vertex 1.2 -0.5 0
       vertex 1.2 -0.5 1.5
       vertex 1.15 -0.75 1.5
    endloop
  endfacet
  facet normal 0.980581 -0.196116 0
    outer loop
       vertex 1.15 -0.75 1.5
       vertex 1.1 -1 1.5
       vertex 1.15 -0.75 0
    endloop
  endfacet
  facet normal 0.980581 -0.196116 0
    outer loop
       vertex 1.15 -0.75 0
       vertex 1.2 -0.5 0
       vertex 1.15 -0.75 1.5
    endloop
  endfacet
  facet normal 0.124035 -0.992278 0
    outer loop
       vertex 0.3 -1.1 0
       vertex 0.3 -1.1 -1.5
       vertex 0.7 -1.05 -1.5
    endloop
  endfacet
  facet normal -0.196116 -0.980581 0
    outer loop
       vertex -0.65 -0.85 0
       vertex -0.4 -0.9 -1.5
       vertex -0.4 -0.9 0
    endloop
  endfacet
  facet normal -0.196116 -0.980581 0
    outer loop
       vertex -0.4 -0.9 0
       vertex -0.4 -0.9 1.5
       vertex -0.65 -0.85 1.5
    endloop
  endfacet
  facet normal -0.196116 -0.980581 -0
    outer loop
       vertex -0.65 -0.85 1.5
       vertex -0.9 -0.8 1.5
       vertex -0.65 -0.85 0
    endloop
  endfacet
  facet normal -0.196116 -0.980581 0
    outer loop
       vertex -0.65 -0.85 0
       vertex -0.4 -0.9 0
       vertex -0.65 -0.85 1.5
    endloop
  endfacet
  facet normal -0.316228 -0.948683 -0
    outer loop
       vertex -1.2 -0.7 0
       vertex -1.2 -0.7 -1.5
       vertex -1.05 -0.75 -1.5
    endloop
  endfacet
  facet normal -0.316228 -0.948683 0
    outer loop
       vertex -1.05 -0.75 -1.5
       vertex -0.9 -0.8 -1.5
       vertex -1.05 -0.75 0
    endloop
  endfacet
  facet normal -0.316228 -0.948683 0
    outer loop
       vertex -1.05 -0.75 0
       vertex -1.2 -0.7 1.5
       vertex -1.2 -0.7 0
    endloop
  endfacet
  facet normal -0.316228 -0.948683 0
    outer loop
       vertex -1.2 -0.7 0
       vertex -1.05 -0.75 -1.5
       vertex -1.05 -0.75 0
    endloop
  endfacet
  facet normal -0.316228 -0.948683 0
    outer loop
       vertex -1.05 -0.75 0
       vertex -0.9 -0.8 -1.5
       vertex -0.9 -0.8 0
    endloop
  endfacet
  facet normal -0.316228 -0.948683 0
    outer loop
       vertex -0.9 -0.8 0
       vertex -0.9 -0.8 1.5
       vertex -1.05 -0.75 1.5
    endloop
  endfacet
  facet normal -0.316228 -0.948683 -0
    outer loop
       vertex -1.05 -0.75 1.5
       vertex -1.2 -0.7 1.5
       vertex -1.05 -0.75 0
    endloop
  endfacet
  facet normal -0.316228 -0.948683 0
    outer loop
       vertex -1.05 -0.75 0
       vertex -0.9 -0.8 0
       vertex -1.05 -0.75 1.5
    endloop
  endfacet
  facet normal -0.948683 -0.316228 -0
    outer loop
       vertex -1.3 -0.4 0
       vertex -1.3 -0.4 -1.5
       vertex -1.25 -0.55 -1.5
    endloop
  endfacet
  facet normal -0.948683 -0.316228 0
    outer loop
       vertex -1.25 -0.55 -1.5
       vertex -1.2 -0.7 -1.5
       vertex -1.25 -0.55 0
    endloop
  endfacet
  facet normal -0.948683 -0.316228 0
    outer loop
       vertex -1.25 -0.55 0
       vertex -1.3 -0.4 1.5
       vertex -1.3 -0.4 0
    endloop
  endfacet
  facet normal -0.948683 -0.316228 0
    outer loop
       vertex -1.3 -0.4 0
       vertex -1.25 -0.55 -1.5
       vertex -1.25 -0.55 0
    endloop
  endfacet
  facet normal -0.948683 -0.316228 0
    outer loop
       vertex -1.25 -0.55 0
       vertex -1.2 -0.7 -1.5
       vertex -1.2 -0.7 0
    endloop
  endfacet
  facet normal -0.316228 -0.948683 0
    outer loop
       vertex 0.1 -0.8 0
       vertex -0.2 -0.7 1.5
       vertex -0.2 -0.7 0
    endloop
  endfacet
  facet normal -0.316228 -0.948683 0
    outer loop
       vertex -0.2 -0.7 0
       vertex 0.1 -0.8 -1.5
       vertex 0.1 -0.8 0
    endloop
  endfacet
  facet normal -0.316228 -0.948683 0
    outer loop
       vertex 0.1 -0.8 0
       vertex 0.4 -0.9 -1.5
       vertex 0.4 -0.9 0
    endloop
  endfacet
  facet normal -0.316228 -0.948683 0
    outer loop
       vertex 0.4 -0.9 0
       vertex 0.4 -0.9 1.5
       vertex 0.1 -0.8 1.5
    endloop
  endfacet
  facet normal -0.316228 -0.948683 -0
    outer loop
       vertex 0.1 -0.8 1.5
       vertex -0.2 -0.7 1.5
       vertex 0.1 -0.8 0
    endloop
  endfacet
  facet normal -0.316228 -0.948683 0
    outer loop
       vertex 0.1 -0.8 0
       vertex 0.4 -0.9 0
       vertex 0.1 -0.8 1.5
    endloop
  endfacet
  facet normal 0.707107 -0.707107 0
    outer loop
       vertex -0.4 -0.9 0
       vertex -0.4 -0.9 -1.5
       vertex -0.3 -0.8 -1.5
    endloop
  endfacet
  facet normal 0.707107 -0.707107 0
    outer loop
       vertex -0.3 -0.8 -1.5
       vertex -0.2 -0.7 -1.5
       vertex -0.3 -0.8 0
    endloop
  endfacet
  facet normal 0.707107 -0.707107 0
    outer loop
       vertex -0.3 -0.8 0
       vertex -0.4 -0.9 1.5
       vertex -0.4 -0.9 0
    endloop
  endfacet
  facet normal 0.707107 -0.707107 0
    outer loop
       vertex -0.4 -0.9 0
       vertex -0.3 -0.8 -1.5
       vertex -0.3 -0.8 0
    endloop
  endfacet
  facet normal 0.707107 -0.707107 0
    outer loop
       vertex -0.3 -0.8 0
       vertex -0.2 -0.7 -1.5
       vertex -0.2 -0.7 0
    endloop
  endfacet
  facet normal 0.707107 -0.707107 0
    outer loop
       vertex -0.2 -0.7 0
       vertex -0.2 -0.7 1.5
       vertex -0.3 -0.8 1.5
    endloop
  endfacet
  facet normal 0.707107 -0.707107 0
    outer loop
       vertex -0.3 -0.8 1.5
       vertex -0.4 -0.9 1.5
       vertex -0.3 -0.8 0
    endloop
  endfacet
  facet normal 0.707107 -0.707107 0
    outer loop
       vertex -0.3 -0.8 0
       vertex -0.2 -0.7 0
       vertex -0.3 -0.8 1.5
    endloop
  endfacet
  facet normal -0.196116 -0.980581 -0
    outer loop
       vertex -0.9 -0.8 0
       vertex -0.9 -0.8 -1.5
       vertex -0.65 -0.85 -1.5
    endloop
  endfacet
  facet normal -0.196116 -0.980581 0
    outer loop
       vertex -0.65 -0.85 -1.5
       vertex -0.4 -0.9 -1.5
       vertex -0.65 -0.85 0
    endloop
  endfacet
  facet normal -0.196116 -0.980581 0
    outer loop
       vertex -0.65 -0.85 0
       vertex -0.9 -0.8 1.5
       vertex -0.9 -0.8 0
    endloop
  endfacet
  facet normal -0.196116 -0.980581 0
    outer loop
       vertex -0.9 -0.8 0
       vertex -0.65 -0.85 -1.5
       vertex -0.65 -0.85 0
    endloop
  endfacet
  facet normal -0.447214 0.894427 0
    outer loop
       vertex -1 -0.15 0
       vertex -1.1 -0.2 0
       vertex -1 -0.15 1.5
    endloop
  endfacet
  facet normal -1 0 -0
    outer loop
       vertex -0.9 0.2 0
       vertex -0.9 0.2 -1.5
       vertex -0.9 0.05 -1.5
    endloop
  endfacet
  facet normal -1 0 0
    outer loop
       vertex -0.9 0.05 -1.5
       vertex -0.9 -0.1 -1.5
       vertex -0.9 0.05 0
    endloop
  endfacet
  facet normal -1 0 0
    outer loop
       vertex -0.9 0.05 0
       vertex -0.9 0.2 1.5
       vertex -0.9 0.2 0
    endloop
  endfacet
  facet normal -1 -0 0
    outer loop
       vertex -0.9 0.2 0
       vertex -0.9 0.05 -1.5
       vertex -0.9 0.05 0
    endloop
  endfacet
  facet normal -1 -0 0
    outer loop
       vertex -0.9 0.05 0
       vertex -0.9 -0.1 -1.5
       vertex -0.9 -0.1 0
    endloop
  endfacet
  facet normal -1 0 0
    outer loop
       vertex -0.9 -0.1 0
       vertex -0.9 -0.1 1.5
       vertex -0.9 0.05 1.5
    endloop
  endfacet
  facet normal -1 0 0
    outer loop
       vertex -0.9 0.05 1.5
       vertex -0.9 0.2 1.5
       vertex -0.9 0.05 0
    endloop
  endfacet
  facet normal -1 0 0
    outer loop
       vertex -0.9 0.05 0
       vertex -0.9 -0.1 0
       vertex -0.9 0.05 1.5
    endloop
  endfacet
  facet normal 0.707107 -0.707107 0
    outer loop
       vertex -1.1 0 0
       vertex -1.1 0 -1.5
       vertex -1 0.1 -1.5
    endloop
  endfacet
  facet normal 0.707107 -0.707107 0
    outer loop
       vertex -1 0.1 -1.5
       vertex -0.9 0.2 -1.5
       vertex -1 0.1 0
    endloop
  endfacet
  facet normal 0.707107 -0.707107 0
    outer loop
       vertex -1 0.1 0
       vertex -1.1 0 1.5
       vertex -1.1 0 0
    endloop
  endfacet
  facet normal 0.707107 -0.707107 0
    outer loop
       vertex -1.1 0 0
       vertex -1 0.1 -1.5
       vertex -1 0.1 0
    endloop
  endfacet
  facet normal 0.707107 -0.707107 0
    outer loop
       vertex -1 0.1 0
       vertex -0.9 0.2 -1.5
       vertex -0.9 0.2 0
    endloop
  endfacet
  facet normal 0.707107 -0.707107 0
    outer loop
       vertex -0.9 0.2 0
       vertex -0.9 0.2 1.5
       vertex -1 0.1 1.5
    endloop
  endfacet
  facet normal 0.707107 -0.707107 0
    outer loop
       vertex -1 0.1 1.5
       vertex -1.1 0 1.5
       vertex -1 0.1 0
    endloop
  endfacet
  facet normal 0.707107 -0.707107 0
    outer loop
       vertex -1 0.1 0
       vertex -0.9 0.2 0
       vertex -1 0.1 1.5
    endloop
  endfacet
  facet normal -0.948683 -0.316228 0
    outer loop
       vertex -1.2 -0.7 0
       vertex -1.2 -0.7 1.5
       vertex -1.25 -0.55 1.5
    endloop
  endfacet
  facet normal -0.948683 -0.316228 -0
    outer loop
       vertex -1.25 -0.55 1.5
       vertex -1.3 -0.4 1.5
       vertex -1.25 -0.55 0
    endloop
  endfacet
  facet normal -0.948683 -0.316228 0
    outer loop
       vertex -1.25 -0.55 0
       vertex -1.2 -0.7 0
       vertex -1.25 -0.55 1.5
    endloop
  endfacet
  facet normal -0.707107 0.707107 0
    outer loop
       vertex -1.1 -0.2 0
       vertex -1.1 -0.2 -1.5
       vertex -1.2 -0.3 -1.5
    endloop
  endfacet
  facet normal -0.707107 0.707107 0
    outer loop
       vertex -1.2 -0.3 -1.5
       vertex -1.3 -0.4 -1.5
       vertex -1.2 -0.3 0
    endloop
  endfacet
  facet normal -0.707107 0.707107 0
    outer loop
       vertex -1.2 -0.3 0
       vertex -1.1 -0.2 1.5
       vertex -1.1 -0.2 0
    endloop
  endfacet
  facet normal -0.707107 0.707107 0
    outer loop
       vertex -1.1 -0.2 0
       vertex -1.2 -0.3 -1.5
       vertex -1.2 -0.3 0
    endloop
  endfacet
  facet normal -0.707107 0.707107 0
    outer loop
       vertex -1.2 -0.3 0
       vertex -1.3 -0.4 -1.5
       vertex -1.3 -0.4 0
    endloop
  endfacet
  facet normal -0.707107 0.707107 0
    outer loop
       vertex -1.3 -0.4 0
       vertex -1.3 -0.4 1.5
       vertex -1.2 -0.3 1.5
    endloop
  endfacet
  facet normal -0.707107 0.707107 0
    outer loop
       vertex -1.2 -0.3 1.5
       vertex -1.1 -0.2 1.5
       vertex -1.2 -0.3 0
    endloop
  endfacet
  facet normal -0.707107 0.707107 0
    outer loop
       vertex -1.2 -0.3 0
       vertex -1.3 -0.4 0
       vertex -1.2 -0.3 1.5
    endloop
  endfacet
  facet normal -0.447214 0.894427 0
    outer loop
       vertex -0.9 -0.1 0
       vertex -0.9 -0.1 -1.5
       vertex -1 -0.15 -1.5
    endloop
  endfacet
  facet normal -0.447214 0.894427 0
    outer loop
       vertex -1 -0.15 -1.5
       vertex -1.1 -0.2 -1.5
       vertex -1 -0.15 0
    endloop
  endfacet
  facet normal -0.447214 0.894427 0
    outer loop
       vertex -1 -0.15 0
       vertex -0.9 -0.1 1.5
       vertex -0.9 -0.1 0
    endloop
  endfacet
  facet normal -0.447214 0.894427 0
    outer loop
       vertex -0.9 -0.1 0
       vertex -1 -0.15 -1.5
       vertex -1 -0.15 0
    endloop
  endfacet
  facet normal -0.447214 0.894427 0
    outer loop
       vertex -1 -0.15 0
       vertex -1.1 -0.2 -1.5
       vertex -1.1 -0.2 0
    endloop
  endfacet
  facet normal -0.447214 0.894427 0
    outer loop
       vertex -1.1 -0.2 0
       vertex -1.1 -0.2 1.5
       vertex -1 -0.15 1.5
    endloop
  endfacet
  facet normal -0.447214 0.894427 0
    outer loop
       vertex -1 -0.15 1.5
       vertex -0.9 -0.1 1.5
       vertex -1 -0.15 0
    endloop
  endfacet
  facet normal -0.894427 0.447213 0
    outer loop
       vertex -1.25 0.4 0
       vertex -1.2 0.5 1.5
       vertex -1.2 0.5 0
    endloop
  endfacet
  facet normal -0.894427 0.447213 0
    outer loop
       vertex -1.2 0.5 0
       vertex -1.25 0.4 -1.5
       vertex -1.25 0.4 0
    endloop
  endfacet
  facet normal -0.894427 0.447213 0
    outer loop
       vertex -1.25 0.4 0
       vertex -1.3 0.3 -1.5
       vertex -1.3 0.3 0
    endloop
  endfacet
  facet normal -0.894427 0.447213 0
    outer loop
       vertex -1.3 0.3 0
       vertex -1.3 0.3 1.5
       vertex -1.25 0.4 1.5
    endloop
  endfacet
  facet normal -0.894427 0.447213 0
    outer loop
       vertex -1.25 0.4 1.5
       vertex -1.2 0.5 1.5
       vertex -1.25 0.4 0
    endloop
  endfacet
  facet normal -0.894427 0.447213 0
    outer loop
       vertex -1.25 0.4 0
       vertex -1.3 0.3 0
       vertex -1.25 0.4 1.5
    endloop
  endfacet
  facet normal -0.894427 -0.447213 -0
    outer loop
       vertex -1.3 0.7 0
       vertex -1.3 0.7 -1.5
       vertex -1.25 0.6 -1.5
    endloop
  endfacet
  facet normal -0.894427 -0.447213 0
    outer loop
       vertex -1.25 0.6 -1.5
       vertex -1.2 0.5 -1.5
       vertex -1.25 0.6 0
    endloop
  endfacet
  facet normal -0.894427 -0.447213 0
    outer loop
       vertex -1.25 0.6 0
       vertex -1.3 0.7 1.5
       vertex -1.3 0.7 0
    endloop
  endfacet
  facet normal -0.894427 -0.447213 0
    outer loop
       vertex -1.3 0.7 0
       vertex -1.25 0.6 -1.5
       vertex -1.25 0.6 0
    endloop
  endfacet
  facet normal -0.894427 -0.447213 0
    outer loop
       vertex -1.25 0.6 0
       vertex -1.2 0.5 -1.5
       vertex -1.2 0.5 0
    endloop
  endfacet
  facet normal -0.894427 -0.447213 0
    outer loop
       vertex -1.2 0.5 0
       vertex -1.2 0.5 1.5
       vertex -1.25 0.6 1.5
    endloop
  endfacet
  facet normal -0.894427 -0.447213 -0
    outer loop
       vertex -1.25 0.6 1.5
       vertex -1.3 0.7 1.5
       vertex -1.25 0.6 0
    endloop
  endfacet
  facet normal -0.894427 -0.447213 0
    outer loop
       vertex -1.25 0.6 0
       vertex -1.2 0.5 0
       vertex -1.25 0.6 1.5
    endloop
  endfacet
  facet normal -1 0 -0
    outer loop
       vertex -1.3 0.8 0
       vertex -1.3 0.8 -1.5
       vertex -1.3 0.75 -1.5
    endloop
  endfacet
  facet normal -1 0 0
    outer loop
       vertex -1.3 0.75 -1.5
       vertex -1.3 0.7 -1.5
       vertex -1.3 0.75 0
    endloop
  endfacet
  facet normal -1 0 0
    outer loop
       vertex -1.3 0.75 0
       vertex -1.3 0.8 1.5
       vertex -1.3 0.8 0
    endloop
  endfacet
  facet normal -0.707107 -0.707107 -0
    outer loop
       vertex -1.2 0.1 0
       vertex -1.2 0.1 -1.5
       vertex -1.15 0.05 -1.5
    endloop
  endfacet
  facet normal -0.707107 -0.707107 0
    outer loop
       vertex -1.15 0.05 -1.5
       vertex -1.1 0 -1.5
       vertex -1.15 0.05 0
    endloop
  endfacet
  facet normal -0.707107 -0.707107 0
    outer loop
       vertex -1.15 0.05 0
       vertex -1.2 0.1 1.5
       vertex -1.2 0.1 0
    endloop
  endfacet
  facet normal -0.707107 -0.707107 0
    outer loop
       vertex -1.2 0.1 0
       vertex -1.15 0.05 -1.5
       vertex -1.15 0.05 0
    endloop
  endfacet
  facet normal -0.707107 -0.707107 0
    outer loop
       vertex -1.15 0.05 0
       vertex -1.1 0 -1.5
       vertex -1.1 0 0
    endloop
  endfacet
  facet normal -0.707107 -0.707107 0
    outer loop
       vertex -1.1 0 0
       vertex -1.1 0 1.5
       vertex -1.15 0.05 1.5
    endloop
  endfacet
  facet normal -0.707107 -0.707107 -0
    outer loop
       vertex -1.15 0.05 1.5
       vertex -1.2 0.1 1.5
       vertex -1.15 0.05 0
    endloop
  endfacet
  facet normal -0.707107 -0.707107 0
    outer loop
       vertex -1.15 0.05 0
       vertex -1.1 0 0
       vertex -1.15 0.05 1.5
    endloop
  endfacet
  facet normal -0.894427 -0.447213 -0
    outer loop
       vertex -1.3 0.3 0
       vertex -1.3 0.3 -1.5
       vertex -1.25 0.2 -1.5
    endloop
  endfacet
  facet normal -0.894427 -0.447213 0
    outer loop
       vertex -1.25 0.2 -1.5
       vertex -1.2 0.1 -1.5
       vertex -1.25 0.2 0
    endloop
  endfacet
  facet normal -0.894427 -0.447213 0
    outer loop
       vertex -1.25 0.2 0
       vertex -1.3 0.3 1.5
       vertex -1.3 0.3 0
    endloop
  endfacet
  facet normal -0.894427 -0.447213 0
    outer loop
       vertex -1.3 0.3 0
       vertex -1.25 0.2 -1.5
       vertex -1.25 0.2 0
    endloop
  endfacet
  facet normal -0.894427 -0.447213 0
    outer loop
       vertex -1.25 0.2 0
       vertex -1.2 0.1 -1.5
       vertex -1.2 0.1 0
    endloop
  endfacet
  facet normal -0.894427 -0.447213 0
    outer loop
       vertex -1.2 0.1 0
       vertex -1.2 0.1 1.5
       vertex -1.25 0.2 1.5
    endloop
  endfacet
  facet normal -0.894427 -0.447213 -0
    outer loop
       vertex -1.25 0.2 1.5
       vertex -1.3 0.3 1.5
       vertex -1.25 0.2 0
    endloop
  endfacet
  facet normal -0.894427 -0.447213 0
    outer loop
       vertex -1.25 0.2 0
       vertex -1.2 0.1 0
       vertex -1.25 0.2 1.5
    endloop
  endfacet
  facet normal -0.894427 0.447213 0
    outer loop
       vertex -1.2 0.5 0
       vertex -1.2 0.5 -1.5
       vertex -1.25 0.4 -1.5
    endloop
  endfacet
  facet normal -0.894427 0.447213 0
    outer loop
       vertex -1.25 0.4 -1.5
       vertex -1.3 0.3 -1.5
       vertex -1.25 0.4 0
    endloop
  endfacet
  facet normal -0.447214 0.894427 0
    outer loop
       vertex -1.1 0.7 0
       vertex -1.1 0.7 1.5
       vertex -1 0.75 1.5
    endloop
  endfacet
  facet normal -0.447214 0.894427 0
    outer loop
       vertex -1 0.75 1.5
       vertex -0.9 0.8 1.5
       vertex -1 0.75 0
    endloop
  endfacet
  facet normal -0.447214 0.894427 0
    outer loop
       vertex -1 0.75 0
       vertex -1.1 0.7 0
       vertex -1 0.75 1.5
    endloop
  endfacet
  facet normal -0.707107 0.707107 0
    outer loop
       vertex -0.8 0.9 0
       vertex -0.8 0.9 -1.5
       vertex -0.85 0.85 -1.5
    endloop
  endfacet
  facet normal -0.707107 0.707107 0
    outer loop
       vertex -0.85 0.85 -1.5
       vertex -0.9 0.8 -1.5
       vertex -0.85 0.85 0
    endloop
  endfacet
  facet normal -0.707107 0.707107 0
    outer loop
       vertex -0.85 0.85 0
       vertex -0.8 0.9 1.5
       vertex -0.8 0.9 0
    endloop
  endfacet
  facet normal -0.707107 0.707107 0
    outer loop
       vertex -0.8 0.9 0
       vertex -0.85 0.85 -1.5
       vertex -0.85 0.85 0
    endloop
  endfacet
  facet normal -0.707107 0.707107 0
    outer loop
       vertex -0.85 0.85 0
       vertex -0.9 0.8 -1.5
       vertex -0.9 0.8 0
    endloop
  endfacet
  facet normal -0.707107 0.707107 0
    outer loop
       vertex -0.9 0.8 0
       vertex -0.9 0.8 1.5
       vertex -0.85 0.85 1.5
    endloop
  endfacet
  facet normal -0.707107 0.707107 0
    outer loop
       vertex -0.85 0.85 1.5
       vertex -0.8 0.9 1.5
       vertex -0.85 0.85 0
    endloop
  endfacet
  facet normal -0.707107 0.707107 0
    outer loop
       vertex -0.85 0.85 0
       vertex -0.9 0.8 0
       vertex -0.85 0.85 1.5
    endloop
  endfacet
  facet normal -0.894427 0.447213 0
    outer loop
       vertex 0.35 -1 0
       vertex 0.3 -1.1 -1.5
       vertex 0.3 -1.1 0
    endloop
  endfacet
  facet normal -0.894427 0.447213 0
    outer loop
       vertex 0.3 -1.1 0
       vertex 0.3 -1.1 1.5
       vertex 0.35 -1 1.5
    endloop
  endfacet
  facet normal -0.894427 0.447213 0
    outer loop
       vertex 0.35 -1 1.5
       vertex 0.4 -0.9 1.5
       vertex 0.35 -1 0
    endloop
  endfacet
  facet normal -0.894427 0.447213 0
    outer loop
       vertex 0.35 -1 0
       vertex 0.3 -1.1 0
       vertex 0.35 -1 1.5
    endloop
  endfacet
  facet normal -0.316228 -0.948683 -0
    outer loop
       vertex -0.2 -0.7 0
       vertex -0.2 -0.7 -1.5
       vertex 0.1 -0.8 -1.5
    endloop
  endfacet
  facet normal -0.316228 -0.948683 0
    outer loop
       vertex 0.1 -0.8 -1.5
       vertex 0.4 -0.9 -1.5
       vertex 0.1 -0.8 0
    endloop
  endfacet
  facet normal -1 -0 0
    outer loop
       vertex -1.3 0.8 0
       vertex -1.3 0.75 -1.5
       vertex -1.3 0.75 0
    endloop
  endfacet
  facet normal -1 -0 0
    outer loop
       vertex -1.3 0.75 0
       vertex -1.3 0.7 -1.5
       vertex -1.3 0.7 0
    endloop
  endfacet
  facet normal -1 0 0
    outer loop
       vertex -1.3 0.7 0
       vertex -1.3 0.7 1.5
       vertex -1.3 0.75 1.5
    endloop
  endfacet
  facet normal -1 0 0
    outer loop
       vertex -1.3 0.75 1.5
       vertex -1.3 0.8 1.5
       vertex -1.3 0.75 0
    endloop
  endfacet
  facet normal -1 0 0
    outer loop
       vertex -1.3 0.75 0
       vertex -1.3 0.7 0
       vertex -1.3 0.75 1.5
    endloop
  endfacet
  facet normal 0.447214 0.894427 0
    outer loop
       vertex -1.1 0.7 0
       vertex -1.1 0.7 -1.5
       vertex -1.2 0.75 -1.5
    endloop
  endfacet
  facet normal 0.447214 0.894427 -0
    outer loop
       vertex -1.2 0.75 -1.5
       vertex -1.3 0.8 -1.5
       vertex -1.2 0.75 0
    endloop
  endfacet
  facet normal 0.447214 0.894427 0
    outer loop
       vertex -1.2 0.75 0
       vertex -1.1 0.7 1.5
       vertex -1.1 0.7 0
    endloop
  endfacet
  facet normal 0.447214 0.894427 0
    outer loop
       vertex -1.1 0.7 0
       vertex -1.2 0.75 -1.5
       vertex -1.2 0.75 0
    endloop
  endfacet
  facet normal 0.447214 0.894427 0
    outer loop
       vertex -1.2 0.75 0
       vertex -1.3 0.8 -1.5
       vertex -1.3 0.8 0
    endloop
  endfacet
  facet normal 0.447214 0.894427 -0
    outer loop
       vertex -1.3 0.8 0
       vertex -1.3 0.8 1.5
       vertex -1.2 0.75 1.5
    endloop
  endfacet
  facet normal 0.447214 0.894427 0
    outer loop
       vertex -1.2 0.75 1.5
       vertex -1.1 0.7 1.5
       vertex -1.2 0.75 0
    endloop
  endfacet
  facet normal 0.447214 0.894427 -0
    outer loop
       vertex -1.2 0.75 0
       vertex -1.3 0.8 0
       vertex -1.2 0.75 1.5
    endloop
  endfacet
  facet normal -0.447214 0.894427 0
    outer loop
       vertex -0.9 0.8 0
       vertex -0.9 0.8 -1.5
       vertex -1 0.75 -1.5
    endloop
  endfacet
  facet normal -0.447214 0.894427 0
    outer loop
       vertex -1 0.75 -1.5
       vertex -1.1 0.7 -1.5
       vertex -1 0.75 0
    endloop
  endfacet
  facet normal -0.447214 0.894427 0
    outer loop
       vertex -1 0.75 0
       vertex -0.9 0.8 1.5
       vertex -0.9 0.8 0
    endloop
  endfacet
  facet normal -0.447214 0.894427 0
    outer loop
       vertex -0.9 0.8 0
       vertex -1 0.75 -1.5
       vertex -1 0.75 0
    endloop
  endfacet
  facet normal -0.447214 0.894427 0
    outer loop
       vertex -1 0.75 0
       vertex -1.1 0.7 -1.5
       vertex -1.1 0.7 0
    endloop
  endfacet
  facet normal -0.726332 0.687344 0
    outer loop
       vertex 0.343776 0.0211275 0
       vertex 0.343776 0.0211275 1.5
       vertex 0.366082 0.0446987 0
    endloop
  endfacet
  facet normal -0.726332 0.687344 0
    outer loop
       vertex 0.366082 0.0446987 0
       vertex 0.388388 0.06827 -1.5
       vertex 0.366082 0.0446987 -1.5
    endloop
  endfacet
  facet normal -0.726332 0.687344 0
    outer loop
       vertex 0.366082 0.0446987 -1.5
       vertex 0.343776 0.0211275 -1.5
       vertex 0.343776 0.0211275 0
    endloop
  endfacet
  facet normal -0.726332 0.687344 0
    outer loop
       vertex 0.343776 0.0211275 0
       vertex 0.366082 0.0446987 0
       vertex 0.366082 0.0446987 -1.5
    endloop
  endfacet
  facet normal -0.726332 0.687344 0
    outer loop
       vertex 0.366082 0.0446987 0
       vertex 0.343776 0.0211275 1.5
       vertex 0.366082 0.0446987 1.5
    endloop
  endfacet
  facet normal -0.726332 0.687344 0
    outer loop
       vertex 0.366082 0.0446987 1.5
       vertex 0.388388 0.06827 1.5
       vertex 0.388388 0.06827 0
    endloop
  endfacet
  facet normal -0.726332 0.687344 0
    outer loop
       vertex 0.388388 0.06827 0
       vertex 0.388388 0.06827 -1.5
       vertex 0.366082 0.0446987 0
    endloop
  endfacet
  facet normal -0.726332 0.687344 0
    outer loop
       vertex 0.366082 0.0446987 0
       vertex 0.366082 0.0446987 1.5
       vertex 0.388388 0.06827 0
    endloop
  endfacet
  facet normal -0.561565 0.827432 0
    outer loop
       vertex 0.290083 -0.0153131 0
       vertex 0.290083 -0.0153131 1.5
       vertex 0.316929 0.0029072 0
    endloop
  endfacet
  facet normal -0.561565 0.827432 0
    outer loop
       vertex 0.316929 0.0029072 0
       vertex 0.343776 0.0211275 -1.5
       vertex 0.316929 0.0029072 -1.5
    endloop
  endfacet
  facet normal -0.561565 0.827432 0
    outer loop
       vertex 0.316929 0.0029072 -1.5
       vertex 0.290083 -0.0153131 -1.5
       vertex 0.290083 -0.0153131 0
    endloop
  endfacet
  facet normal -0.561565 0.827432 0
    outer loop
       vertex 0.290083 -0.0153131 0
       vertex 0.316929 0.0029072 0
       vertex 0.316929 0.0029072 -1.5
    endloop
  endfacet
  facet normal -0.561565 0.827432 0
    outer loop
       vertex 0.316929 0.0029072 0
       vertex 0.290083 -0.0153131 1.5
       vertex 0.316929 0.0029072 1.5
    endloop
  endfacet
  facet normal -0.561565 0.827432 0
    outer loop
       vertex 0.316929 0.0029072 1.5
       vertex 0.343776 0.0211275 1.5
       vertex 0.343776 0.0211275 0
    endloop
  endfacet
  facet normal -0.561565 0.827432 0
    outer loop
       vertex 0.343776 0.0211275 0
       vertex 0.343776 0.0211275 -1.5
       vertex 0.316929 0.0029072 0
    endloop
  endfacet
  facet normal -0.561565 0.827432 0
    outer loop
       vertex 0.316929 0.0029072 0
       vertex 0.316929 0.0029072 1.5
       vertex 0.343776 0.0211275 0
    endloop
  endfacet
  facet normal -0.37045 0.928852 0
    outer loop
       vertex 0.229819 -0.0393479 0
       vertex 0.229819 -0.0393479 1.5
       vertex 0.259951 -0.0273305 0
    endloop
  endfacet
  facet normal -0.994151 0.108002 0
    outer loop
       vertex 0.44956 0.25 0
       vertex 0.44956 0.25 -1.5
       vertex 0.446053 0.217723 0
    endloop
  endfacet
  facet normal -0.994151 0.108002 0
    outer loop
       vertex 0.446053 0.217723 0
       vertex 0.446053 0.217723 1.5
       vertex 0.44956 0.25 0
    endloop
  endfacet
  facet normal -0.947746 0.319026 0
    outer loop
       vertex 0.421833 0.12391 0
       vertex 0.421833 0.12391 1.5
       vertex 0.43219 0.154678 0
    endloop
  endfacet
  facet normal -0.947746 0.319026 0
    outer loop
       vertex 0.43219 0.154678 0
       vertex 0.442547 0.185446 -1.5
       vertex 0.43219 0.154678 -1.5
    endloop
  endfacet
  facet normal -0.947746 0.319026 0
    outer loop
       vertex 0.43219 0.154678 -1.5
       vertex 0.421833 0.12391 -1.5
       vertex 0.421833 0.12391 0
    endloop
  endfacet
  facet normal -0.947746 0.319026 0
    outer loop
       vertex 0.421833 0.12391 0
       vertex 0.43219 0.154678 0
       vertex 0.43219 0.154678 -1.5
    endloop
  endfacet
  facet normal -0.947746 0.319026 0
    outer loop
       vertex 0.43219 0.154678 0
       vertex 0.421833 0.12391 1.5
       vertex 0.43219 0.154678 1.5
    endloop
  endfacet
  facet normal -0.947746 0.319026 0
    outer loop
       vertex 0.43219 0.154678 1.5
       vertex 0.442547 0.185446 1.5
       vertex 0.442547 0.185446 0
    endloop
  endfacet
  facet normal -0.947746 0.319026 0
    outer loop
       vertex 0.442547 0.185446 0
       vertex 0.442547 0.185446 -1.5
       vertex 0.43219 0.154678 0
    endloop
  endfacet
  facet normal -0.947746 0.319026 0
    outer loop
       vertex 0.43219 0.154678 0
       vertex 0.43219 0.154678 1.5
       vertex 0.442547 0.185446 0
    endloop
  endfacet
  facet normal -0.857078 0.515186 0
    outer loop
       vertex 0.388388 0.06827 0
       vertex 0.388388 0.06827 1.5
       vertex 0.405111 0.09609 0
    endloop
  endfacet
  facet normal -0.857078 0.515186 0
    outer loop
       vertex 0.405111 0.09609 0
       vertex 0.421833 0.12391 -1.5
       vertex 0.405111 0.09609 -1.5
    endloop
  endfacet
  facet normal -0.857078 0.515186 0
    outer loop
       vertex 0.405111 0.09609 -1.5
       vertex 0.388388 0.06827 -1.5
       vertex 0.388388 0.06827 0
    endloop
  endfacet
  facet normal -0.857078 0.515186 0
    outer loop
       vertex 0.388388 0.06827 0
       vertex 0.405111 0.09609 0
       vertex 0.405111 0.09609 -1.5
    endloop
  endfacet
  facet normal -0.857078 0.515186 0
    outer loop
       vertex 0.405111 0.09609 0
       vertex 0.388388 0.06827 1.5
       vertex 0.405111 0.09609 1.5
    endloop
  endfacet
  facet normal -0.857078 0.515186 0
    outer loop
       vertex 0.405111 0.09609 1.5
       vertex 0.421833 0.12391 1.5
       vertex 0.421833 0.12391 0
    endloop
  endfacet
  facet normal -0.857078 0.515186 0
    outer loop
       vertex 0.421833 0.12391 0
       vertex 0.421833 0.12391 -1.5
       vertex 0.405111 0.09609 0
    endloop
  endfacet
  facet normal -0.857078 0.515186 0
    outer loop
       vertex 0.405111 0.09609 0
       vertex 0.405111 0.09609 1.5
       vertex 0.421833 0.12391 0
    endloop
  endfacet
  facet normal 0.0541919 0.998531 0
    outer loop
       vertex 0.101026 -0.0463378 0
       vertex 0.133414 -0.0480955 0
       vertex 0.133414 -0.0480955 -1.5
    endloop
  endfacet
  facet normal 0.0541919 0.998531 -0
    outer loop
       vertex 0.133414 -0.0480955 0
       vertex 0.101026 -0.0463378 1.5
       vertex 0.133414 -0.0480955 1.5
    endloop
  endfacet
  facet normal 0.0541919 0.998531 0
    outer loop
       vertex 0.133414 -0.0480955 1.5
       vertex 0.165802 -0.0498533 1.5
       vertex 0.165802 -0.0498533 0
    endloop
  endfacet
  facet normal 0.0541919 0.998531 0
    outer loop
       vertex 0.165802 -0.0498533 0
       vertex 0.165802 -0.0498533 -1.5
       vertex 0.133414 -0.0480955 0
    endloop
  endfacet
  facet normal 0.0541919 0.998531 -0
    outer loop
       vertex 0.133414 -0.0480955 0
       vertex 0.133414 -0.0480955 1.5
       vertex 0.165802 -0.0498533 0
    endloop
  endfacet
  facet normal 0.267772 0.963482 -0
    outer loop
       vertex 0.038519 -0.0289658 0
       vertex 0.038519 -0.0289658 1.5
       vertex 0.0697725 -0.0376518 0
    endloop
  endfacet
  facet normal 0.267772 0.963482 0
    outer loop
       vertex 0.0697725 -0.0376518 0
       vertex 0.101026 -0.0463378 -1.5
       vertex 0.0697725 -0.0376518 -1.5
    endloop
  endfacet
  facet normal 0.267772 0.963482 0
    outer loop
       vertex 0.0697725 -0.0376518 -1.5
       vertex 0.038519 -0.0289658 -1.5
       vertex 0.038519 -0.0289658 0
    endloop
  endfacet
  facet normal 0.267772 0.963482 0
    outer loop
       vertex 0.038519 -0.0289658 0
       vertex 0.0697725 -0.0376518 0
       vertex 0.0697725 -0.0376518 -1.5
    endloop
  endfacet
  facet normal 0.267772 0.963482 -0
    outer loop
       vertex 0.0697725 -0.0376518 0
       vertex 0.038519 -0.0289658 1.5
       vertex 0.0697725 -0.0376518 1.5
    endloop
  endfacet
  facet normal 0.267772 0.963482 0
    outer loop
       vertex 0.0697725 -0.0376518 1.5
       vertex 0.101026 -0.0463378 1.5
       vertex 0.101026 -0.0463378 0
    endloop
  endfacet
  facet normal 0.267772 0.963482 0
    outer loop
       vertex 0.101026 -0.0463378 0
       vertex 0.101026 -0.0463378 -1.5
       vertex 0.0697725 -0.0376518 0
    endloop
  endfacet
  facet normal 0.267772 0.963482 -0
    outer loop
       vertex 0.0697725 -0.0376518 0
       vertex 0.0697725 -0.0376518 1.5
       vertex 0.101026 -0.0463378 0
    endloop
  endfacet
  facet normal 0.468765 0.883323 -0
    outer loop
       vertex -0.0187957 0.00145015 0
       vertex -0.0187957 0.00145015 1.5
       vertex 0.00986165 -0.0137578 0
    endloop
  endfacet
  facet normal 0.468765 0.883323 0
    outer loop
       vertex 0.00986165 -0.0137578 0
       vertex 0.038519 -0.0289658 -1.5
       vertex 0.00986165 -0.0137578 -1.5
    endloop
  endfacet
  facet normal 0.468765 0.883323 0
    outer loop
       vertex 0.00986165 -0.0137578 -1.5
       vertex -0.0187957 0.00145015 -1.5
       vertex -0.0187957 0.00145015 0
    endloop
  endfacet
  facet normal 0.468765 0.883323 0
    outer loop
       vertex -0.0187957 0.00145015 0
       vertex 0.00986165 -0.0137578 0
       vertex 0.00986165 -0.0137578 -1.5
    endloop
  endfacet
  facet normal -0.37045 0.928852 0
    outer loop
       vertex 0.259951 -0.0273305 0
       vertex 0.290083 -0.0153131 -1.5
       vertex 0.259951 -0.0273305 -1.5
    endloop
  endfacet
  facet normal -0.37045 0.928852 0
    outer loop
       vertex 0.259951 -0.0273305 -1.5
       vertex 0.229819 -0.0393479 -1.5
       vertex 0.229819 -0.0393479 0
    endloop
  endfacet
  facet normal -0.37045 0.928852 0
    outer loop
       vertex 0.229819 -0.0393479 0
       vertex 0.259951 -0.0273305 0
       vertex 0.259951 -0.0273305 -1.5
    endloop
  endfacet
  facet normal -0.37045 0.928852 0
    outer loop
       vertex 0.259951 -0.0273305 0
       vertex 0.229819 -0.0393479 1.5
       vertex 0.259951 -0.0273305 1.5
    endloop
  endfacet
  facet normal -0.37045 0.928852 0
    outer loop
       vertex 0.259951 -0.0273305 1.5
       vertex 0.290083 -0.0153131 1.5
       vertex 0.290083 -0.0153131 0
    endloop
  endfacet
  facet normal -0.37045 0.928852 0
    outer loop
       vertex 0.290083 -0.0153131 0
       vertex 0.290083 -0.0153131 -1.5
       vertex 0.259951 -0.0273305 0
    endloop
  endfacet
  facet normal -0.37045 0.928852 0
    outer loop
       vertex 0.259951 -0.0273305 0
       vertex 0.259951 -0.0273305 1.5
       vertex 0.290083 -0.0153131 0
    endloop
  endfacet
  facet normal -0.161937 0.986801 0
    outer loop
       vertex 0.165802 -0.0498533 0
       vertex 0.165802 -0.0498533 1.5
       vertex 0.197811 -0.0446006 0
    endloop
  endfacet
  facet normal -0.161937 0.986801 0
    outer loop
       vertex 0.197811 -0.0446006 0
       vertex 0.229819 -0.0393479 -1.5
       vertex 0.197811 -0.0446006 -1.5
    endloop
  endfacet
  facet normal -0.161937 0.986801 0
    outer loop
       vertex 0.197811 -0.0446006 -1.5
       vertex 0.165802 -0.0498533 -1.5
       vertex 0.165802 -0.0498533 0
    endloop
  endfacet
  facet normal -0.161937 0.986801 0
    outer loop
       vertex 0.165802 -0.0498533 0
       vertex 0.197811 -0.0446006 0
       vertex 0.197811 -0.0446006 -1.5
    endloop
  endfacet
  facet normal -0.161937 0.986801 0
    outer loop
       vertex 0.197811 -0.0446006 0
       vertex 0.165802 -0.0498533 1.5
       vertex 0.197811 -0.0446006 1.5
    endloop
  endfacet
  facet normal -0.161937 0.986801 0
    outer loop
       vertex 0.197811 -0.0446006 1.5
       vertex 0.229819 -0.0393479 1.5
       vertex 0.229819 -0.0393479 0
    endloop
  endfacet
  facet normal -0.161937 0.986801 0
    outer loop
       vertex 0.229819 -0.0393479 0
       vertex 0.229819 -0.0393479 -1.5
       vertex 0.197811 -0.0446006 0
    endloop
  endfacet
  facet normal -0.161937 0.986801 0
    outer loop
       vertex 0.197811 -0.0446006 0
       vertex 0.197811 -0.0446006 1.5
       vertex 0.229819 -0.0393479 0
    endloop
  endfacet
  facet normal 0.0541919 0.998531 -0
    outer loop
       vertex 0.101026 -0.0463378 0
       vertex 0.101026 -0.0463378 1.5
       vertex 0.133414 -0.0480955 0
    endloop
  endfacet
  facet normal 0.0541919 0.998531 0
    outer loop
       vertex 0.133414 -0.0480955 0
       vertex 0.165802 -0.0498533 -1.5
       vertex 0.133414 -0.0480955 -1.5
    endloop
  endfacet
  facet normal 0.0541919 0.998531 0
    outer loop
       vertex 0.133414 -0.0480955 -1.5
       vertex 0.101026 -0.0463378 -1.5
       vertex 0.101026 -0.0463378 0
    endloop
  endfacet
  facet normal 0.796377 0.604801 0
    outer loop
       vertex -0.0682383 0.0434882 0
       vertex -0.0682383 0.0434882 -1.5
       vertex -0.0878677 0.0693353 0
    endloop
  endfacet
  facet normal 0.796377 0.604801 -0
    outer loop
       vertex -0.0878677 0.0693353 0
       vertex -0.0878677 0.0693353 1.5
       vertex -0.0682383 0.0434882 0
    endloop
  endfacet
  facet normal 0.907731 0.419552 -0
    outer loop
       vertex -0.134736 0.154116 0
       vertex -0.134736 0.154116 1.5
       vertex -0.121117 0.124649 0
    endloop
  endfacet
  facet normal 0.907731 0.419552 0
    outer loop
       vertex -0.121117 0.124649 0
       vertex -0.107497 0.0951824 -1.5
       vertex -0.121117 0.124649 -1.5
    endloop
  endfacet
  facet normal 0.907731 0.419552 0
    outer loop
       vertex -0.121117 0.124649 -1.5
       vertex -0.134736 0.154116 -1.5
       vertex -0.134736 0.154116 0
    endloop
  endfacet
  facet normal 0.907731 0.419552 0
    outer loop
       vertex -0.134736 0.154116 0
       vertex -0.121117 0.124649 0
       vertex -0.121117 0.124649 -1.5
    endloop
  endfacet
  facet normal 0.907731 0.419552 -0
    outer loop
       vertex -0.121117 0.124649 0
       vertex -0.134736 0.154116 1.5
       vertex -0.121117 0.124649 1.5
    endloop
  endfacet
  facet normal 0.907731 0.419552 0
    outer loop
       vertex -0.121117 0.124649 1.5
       vertex -0.107497 0.0951824 1.5
       vertex -0.107497 0.0951824 0
    endloop
  endfacet
  facet normal 0.907731 0.419552 0
    outer loop
       vertex -0.107497 0.0951824 0
       vertex -0.107497 0.0951824 -1.5
       vertex -0.121117 0.124649 0
    endloop
  endfacet
  facet normal 0.907731 0.419552 -0
    outer loop
       vertex -0.121117 0.124649 0
       vertex -0.121117 0.124649 1.5
       vertex -0.107497 0.0951824 0
    endloop
  endfacet
  facet normal 0.976666 0.214766 -0
    outer loop
       vertex -0.148681 0.217532 0
       vertex -0.148681 0.217532 1.5
       vertex -0.141709 0.185824 0
    endloop
  endfacet
  facet normal 0.976666 0.214766 0
    outer loop
       vertex -0.141709 0.185824 0
       vertex -0.134736 0.154116 -1.5
       vertex -0.141709 0.185824 -1.5
    endloop
  endfacet
  facet normal 0.976666 0.214766 0
    outer loop
       vertex -0.141709 0.185824 -1.5
       vertex -0.148681 0.217532 -1.5
       vertex -0.148681 0.217532 0
    endloop
  endfacet
  facet normal 0.976666 0.214766 0
    outer loop
       vertex -0.148681 0.217532 0
       vertex -0.141709 0.185824 0
       vertex -0.141709 0.185824 -1.5
    endloop
  endfacet
  facet normal 0.976666 0.214766 -0
    outer loop
       vertex -0.141709 0.185824 0
       vertex -0.148681 0.217532 1.5
       vertex -0.141709 0.185824 1.5
    endloop
  endfacet
  facet normal 0.976666 0.214766 0
    outer loop
       vertex -0.141709 0.185824 1.5
       vertex -0.134736 0.154116 1.5
       vertex -0.134736 0.154116 0
    endloop
  endfacet
  facet normal 0.976666 0.214766 0
    outer loop
       vertex -0.134736 0.154116 0
       vertex -0.134736 0.154116 -1.5
       vertex -0.141709 0.185824 0
    endloop
  endfacet
  facet normal 0.468765 0.883323 -0
    outer loop
       vertex 0.00986165 -0.0137578 0
       vertex -0.0187957 0.00145015 1.5
       vertex 0.00986165 -0.0137578 1.5
    endloop
  endfacet
  facet normal 0.468765 0.883323 0
    outer loop
       vertex 0.00986165 -0.0137578 1.5
       vertex 0.038519 -0.0289658 1.5
       vertex 0.038519 -0.0289658 0
    endloop
  endfacet
  facet normal 0.468765 0.883323 0
    outer loop
       vertex 0.038519 -0.0289658 0
       vertex 0.038519 -0.0289658 -1.5
       vertex 0.00986165 -0.0137578 0
    endloop
  endfacet
  facet normal 0.468765 0.883323 -0
    outer loop
       vertex 0.00986165 -0.0137578 0
       vertex 0.00986165 -0.0137578 1.5
       vertex 0.038519 -0.0289658 0
    endloop
  endfacet
  facet normal 0.647754 0.761849 -0
    outer loop
       vertex -0.0682383 0.0434882 0
       vertex -0.0682383 0.0434882 1.5
       vertex -0.043517 0.0224692 0
    endloop
  endfacet
  facet normal 0.647754 0.761849 0
    outer loop
       vertex -0.043517 0.0224692 0
       vertex -0.0187957 0.00145015 -1.5
       vertex -0.043517 0.0224692 -1.5
    endloop
  endfacet
  facet normal 0.647754 0.761849 0
    outer loop
       vertex -0.043517 0.0224692 -1.5
       vertex -0.0682383 0.0434882 -1.5
       vertex -0.0682383 0.0434882 0
    endloop
  endfacet
  facet normal 0.647754 0.761849 0
    outer loop
       vertex -0.0682383 0.0434882 0
       vertex -0.043517 0.0224692 0
       vertex -0.043517 0.0224692 -1.5
    endloop
  endfacet
  facet normal 0.647754 0.761849 -0
    outer loop
       vertex -0.043517 0.0224692 0
       vertex -0.0682383 0.0434882 1.5
       vertex -0.043517 0.0224692 1.5
    endloop
  endfacet
  facet normal 0.647754 0.761849 0
    outer loop
       vertex -0.043517 0.0224692 1.5
       vertex -0.0187957 0.00145015 1.5
       vertex -0.0187957 0.00145015 0
    endloop
  endfacet
  facet normal 0.647754 0.761849 0
    outer loop
       vertex -0.0187957 0.00145015 0
       vertex -0.0187957 0.00145015 -1.5
       vertex -0.043517 0.0224692 0
    endloop
  endfacet
  facet normal 0.647754 0.761849 -0
    outer loop
       vertex -0.043517 0.0224692 0
       vertex -0.043517 0.0224692 1.5
       vertex -0.0187957 0.00145015 0
    endloop
  endfacet
  facet normal 0.796377 0.604801 -0
    outer loop
       vertex -0.107497 0.0951824 0
       vertex -0.107497 0.0951824 1.5
       vertex -0.0878677 0.0693353 0
    endloop
  endfacet
  facet normal 0.796377 0.604801 0
    outer loop
       vertex -0.0878677 0.0693353 0
       vertex -0.0682383 0.0434882 -1.5
       vertex -0.0878677 0.0693353 -1.5
    endloop
  endfacet
  facet normal 0.796377 0.604801 0
    outer loop
       vertex -0.0878677 0.0693353 -1.5
       vertex -0.107497 0.0951824 -1.5
       vertex -0.107497 0.0951824 0
    endloop
  endfacet
  facet normal 0.796377 0.604801 0
    outer loop
       vertex -0.107497 0.0951824 0
       vertex -0.0878677 0.0693353 0
       vertex -0.0878677 0.0693353 -1.5
    endloop
  endfacet
  facet normal 0.796377 0.604801 -0
    outer loop
       vertex -0.0878677 0.0693353 0
       vertex -0.107497 0.0951824 1.5
       vertex -0.0878677 0.0693353 1.5
    endloop
  endfacet
  facet normal 0.796377 0.604801 0
    outer loop
       vertex -0.0878677 0.0693353 1.5
       vertex -0.0682383 0.0434882 1.5
       vertex -0.0682383 0.0434882 0
    endloop
  endfacet
  facet normal 0.907732 -0.419549 0
    outer loop
       vertex -0.121117 0.375351 0
       vertex -0.134736 0.345884 -1.5
       vertex -0.121117 0.375351 -1.5
    endloop
  endfacet
  facet normal 0.907732 -0.419549 0
    outer loop
       vertex -0.121117 0.375351 -1.5
       vertex -0.107497 0.404818 -1.5
       vertex -0.107497 0.404818 0
    endloop
  endfacet
  facet normal 0.907732 -0.419549 0
    outer loop
       vertex -0.107497 0.404818 0
       vertex -0.121117 0.375351 0
       vertex -0.121117 0.375351 -1.5
    endloop
  endfacet
  facet normal 0.907732 -0.419549 0
    outer loop
       vertex -0.121117 0.375351 0
       vertex -0.107497 0.404818 1.5
       vertex -0.121117 0.375351 1.5
    endloop
  endfacet
  facet normal 0.907732 -0.419549 0
    outer loop
       vertex -0.121117 0.375351 1.5
       vertex -0.134736 0.345884 1.5
       vertex -0.134736 0.345884 0
    endloop
  endfacet
  facet normal 0.907732 -0.419549 0
    outer loop
       vertex -0.134736 0.345884 0
       vertex -0.134736 0.345884 -1.5
       vertex -0.121117 0.375351 0
    endloop
  endfacet
  facet normal 0.907732 -0.419549 0
    outer loop
       vertex -0.121117 0.375351 0
       vertex -0.121117 0.375351 1.5
       vertex -0.134736 0.345884 0
    endloop
  endfacet
  facet normal 0.796376 -0.604802 0
    outer loop
       vertex -0.0682383 0.456512 0
       vertex -0.0682383 0.456512 1.5
       vertex -0.0878677 0.430665 0
    endloop
  endfacet
  facet normal 0.796376 -0.604802 0
    outer loop
       vertex -0.0878677 0.430665 0
       vertex -0.107497 0.404818 -1.5
       vertex -0.0878677 0.430665 -1.5
    endloop
  endfacet
  facet normal 0.796376 -0.604802 0
    outer loop
       vertex -0.0878677 0.430665 -1.5
       vertex -0.0682383 0.456512 -1.5
       vertex -0.0682383 0.456512 0
    endloop
  endfacet
  facet normal 0.796376 -0.604802 0
    outer loop
       vertex -0.0682383 0.456512 0
       vertex -0.0878677 0.430665 0
       vertex -0.0878677 0.430665 -1.5
    endloop
  endfacet
  facet normal -0.994151 0.108002 0
    outer loop
       vertex 0.442547 0.185446 0
       vertex 0.442547 0.185446 1.5
       vertex 0.446053 0.217723 0
    endloop
  endfacet
  facet normal -0.994151 0.108002 0
    outer loop
       vertex 0.446053 0.217723 0
       vertex 0.44956 0.25 -1.5
       vertex 0.446053 0.217723 -1.5
    endloop
  endfacet
  facet normal -0.994151 0.108002 0
    outer loop
       vertex 0.446053 0.217723 -1.5
       vertex 0.442547 0.185446 -1.5
       vertex 0.442547 0.185446 0
    endloop
  endfacet
  facet normal -0.994151 0.108002 0
    outer loop
       vertex 0.442547 0.185446 0
       vertex 0.446053 0.217723 0
       vertex 0.446053 0.217723 -1.5
    endloop
  endfacet
  facet normal -0.994151 0.108002 0
    outer loop
       vertex 0.446053 0.217723 0
       vertex 0.442547 0.185446 1.5
       vertex 0.446053 0.217723 1.5
    endloop
  endfacet
  facet normal -0.994151 0.108002 0
    outer loop
       vertex 0.446053 0.217723 1.5
       vertex 0.44956 0.25 1.5
       vertex 0.44956 0.25 0
    endloop
  endfacet
  facet normal 0.976666 0.214766 -0
    outer loop
       vertex -0.141709 0.185824 0
       vertex -0.141709 0.185824 1.5
       vertex -0.134736 0.154116 0
    endloop
  endfacet
  facet normal 1 0 -0
    outer loop
       vertex -0.148681 0.282467 0
       vertex -0.148681 0.282467 1.5
       vertex -0.148681 0.25 0
    endloop
  endfacet
  facet normal 1 0 0
    outer loop
       vertex -0.148681 0.25 0
       vertex -0.148681 0.217532 -1.5
       vertex -0.148681 0.25 -1.5
    endloop
  endfacet
  facet normal 1 0 0
    outer loop
       vertex -0.148681 0.25 -1.5
       vertex -0.148681 0.282467 -1.5
       vertex -0.148681 0.282467 0
    endloop
  endfacet
  facet normal 1 0 0
    outer loop
       vertex -0.148681 0.282467 0
       vertex -0.148681 0.25 0
       vertex -0.148681 0.25 -1.5
    endloop
  endfacet
  facet normal 1 0 0
    outer loop
       vertex -0.148681 0.25 0
       vertex -0.148681 0.282467 1.5
       vertex -0.148681 0.25 1.5
    endloop
  endfacet
  facet normal 1 0 0
    outer loop
       vertex -0.148681 0.25 1.5
       vertex -0.148681 0.217532 1.5
       vertex -0.148681 0.217532 0
    endloop
  endfacet
  facet normal 1 -0 0
    outer loop
       vertex -0.148681 0.217532 0
       vertex -0.148681 0.217532 -1.5
       vertex -0.148681 0.25 0
    endloop
  endfacet
  facet normal 1 0 -0
    outer loop
       vertex -0.148681 0.25 0
       vertex -0.148681 0.25 1.5
       vertex -0.148681 0.217532 0
    endloop
  endfacet
  facet normal 0.976666 -0.214763 0
    outer loop
       vertex -0.134736 0.345884 0
       vertex -0.134736 0.345884 1.5
       vertex -0.141709 0.314176 0
    endloop
  endfacet
  facet normal 0.976666 -0.214763 0
    outer loop
       vertex -0.141709 0.314176 0
       vertex -0.148681 0.282467 -1.5
       vertex -0.141709 0.314176 -1.5
    endloop
  endfacet
  facet normal 0.976666 -0.214763 0
    outer loop
       vertex -0.141709 0.314176 -1.5
       vertex -0.134736 0.345884 -1.5
       vertex -0.134736 0.345884 0
    endloop
  endfacet
  facet normal 0.976666 -0.214763 0
    outer loop
       vertex -0.134736 0.345884 0
       vertex -0.141709 0.314176 0
       vertex -0.141709 0.314176 -1.5
    endloop
  endfacet
  facet normal 0.976666 -0.214763 0
    outer loop
       vertex -0.141709 0.314176 0
       vertex -0.134736 0.345884 1.5
       vertex -0.141709 0.314176 1.5
    endloop
  endfacet
  facet normal 0.976666 -0.214763 0
    outer loop
       vertex -0.141709 0.314176 1.5
       vertex -0.148681 0.282467 1.5
       vertex -0.148681 0.282467 0
    endloop
  endfacet
  facet normal 0.976666 -0.214763 0
    outer loop
       vertex -0.148681 0.282467 0
       vertex -0.148681 0.282467 -1.5
       vertex -0.141709 0.314176 0
    endloop
  endfacet
  facet normal 0.976666 -0.214763 0
    outer loop
       vertex -0.141709 0.314176 0
       vertex -0.141709 0.314176 1.5
       vertex -0.148681 0.282467 0
    endloop
  endfacet
  facet normal 0.907732 -0.419549 0
    outer loop
       vertex -0.107497 0.404818 0
       vertex -0.107497 0.404818 1.5
       vertex -0.121117 0.375351 0
    endloop
  endfacet
  facet normal 0.267772 -0.963482 0
    outer loop
       vertex 0.0697724 0.537652 0
       vertex 0.101026 0.546338 1.5
       vertex 0.0697724 0.537652 1.5
    endloop
  endfacet
  facet normal 0.267772 -0.963482 0
    outer loop
       vertex 0.0697724 0.537652 1.5
       vertex 0.0385189 0.528966 1.5
       vertex 0.0385189 0.528966 0
    endloop
  endfacet
  facet normal 0.267772 -0.963482 0
    outer loop
       vertex 0.0385189 0.528966 0
       vertex 0.0385189 0.528966 -1.5
       vertex 0.0697724 0.537652 0
    endloop
  endfacet
  facet normal 0.267772 -0.963482 0
    outer loop
       vertex 0.0697724 0.537652 0
       vertex 0.0697724 0.537652 1.5
       vertex 0.0385189 0.528966 0
    endloop
  endfacet
  facet normal 0.0541843 -0.998531 0
    outer loop
       vertex 0.165802 0.549853 0
       vertex 0.165802 0.549853 1.5
       vertex 0.133414 0.548096 0
    endloop
  endfacet
  facet normal 0.0541843 -0.998531 0
    outer loop
       vertex 0.133414 0.548096 0
       vertex 0.101026 0.546338 -1.5
       vertex 0.133414 0.548096 -1.5
    endloop
  endfacet
  facet normal 0.0541843 -0.998531 0
    outer loop
       vertex 0.133414 0.548096 -1.5
       vertex 0.165802 0.549853 -1.5
       vertex 0.165802 0.549853 0
    endloop
  endfacet
  facet normal 0.0541843 -0.998531 0
    outer loop
       vertex 0.165802 0.549853 0
       vertex 0.133414 0.548096 0
       vertex 0.133414 0.548096 -1.5
    endloop
  endfacet
  facet normal 0.0541843 -0.998531 0
    outer loop
       vertex 0.133414 0.548096 0
       vertex 0.165802 0.549853 1.5
       vertex 0.133414 0.548096 1.5
    endloop
  endfacet
  facet normal 0.0541843 -0.998531 0
    outer loop
       vertex 0.133414 0.548096 1.5
       vertex 0.101026 0.546338 1.5
       vertex 0.101026 0.546338 0
    endloop
  endfacet
  facet normal 0.0541843 -0.998531 0
    outer loop
       vertex 0.101026 0.546338 0
       vertex 0.101026 0.546338 -1.5
       vertex 0.133414 0.548096 0
    endloop
  endfacet
  facet normal 0.0541843 -0.998531 0
    outer loop
       vertex 0.133414 0.548096 0
       vertex 0.133414 0.548096 1.5
       vertex 0.101026 0.546338 0
    endloop
  endfacet
  facet normal -0.161932 -0.986802 0
    outer loop
       vertex 0.229819 0.539348 0
       vertex 0.229819 0.539348 1.5
       vertex 0.197811 0.544601 0
    endloop
  endfacet
  facet normal -0.161932 -0.986802 -0
    outer loop
       vertex 0.197811 0.544601 0
       vertex 0.165802 0.549853 -1.5
       vertex 0.197811 0.544601 -1.5
    endloop
  endfacet
  facet normal -0.161932 -0.986802 0
    outer loop
       vertex 0.197811 0.544601 -1.5
       vertex 0.229819 0.539348 -1.5
       vertex 0.229819 0.539348 0
    endloop
  endfacet
  facet normal -0.161932 -0.986802 0
    outer loop
       vertex 0.229819 0.539348 0
       vertex 0.197811 0.544601 0
       vertex 0.197811 0.544601 -1.5
    endloop
  endfacet
  facet normal -0.161932 -0.986802 0
    outer loop
       vertex 0.197811 0.544601 0
       vertex 0.229819 0.539348 1.5
       vertex 0.197811 0.544601 1.5
    endloop
  endfacet
  facet normal 0.647755 -0.761849 0
    outer loop
       vertex -0.0435171 0.477531 -1.5
       vertex -0.0187958 0.49855 -1.5
       vertex -0.0187958 0.49855 0
    endloop
  endfacet
  facet normal 0.647755 -0.761849 0
    outer loop
       vertex -0.0187958 0.49855 0
       vertex -0.0435171 0.477531 0
       vertex -0.0435171 0.477531 -1.5
    endloop
  endfacet
  facet normal 0.647755 -0.761849 0
    outer loop
       vertex -0.0435171 0.477531 0
       vertex -0.0187958 0.49855 1.5
       vertex -0.0435171 0.477531 1.5
    endloop
  endfacet
  facet normal 0.647755 -0.761849 0
    outer loop
       vertex -0.0435171 0.477531 1.5
       vertex -0.0682383 0.456512 1.5
       vertex -0.0682383 0.456512 0
    endloop
  endfacet
  facet normal 0.647755 -0.761849 0
    outer loop
       vertex -0.0682383 0.456512 0
       vertex -0.0682383 0.456512 -1.5
       vertex -0.0435171 0.477531 0
    endloop
  endfacet
  facet normal 0.647755 -0.761849 0
    outer loop
       vertex -0.0435171 0.477531 0
       vertex -0.0435171 0.477531 1.5
       vertex -0.0682383 0.456512 0
    endloop
  endfacet
  facet normal 0.468765 -0.883323 0
    outer loop
       vertex 0.0385189 0.528966 0
       vertex 0.0385189 0.528966 1.5
       vertex 0.00986155 0.513758 0
    endloop
  endfacet
  facet normal 0.468765 -0.883323 0
    outer loop
       vertex 0.00986155 0.513758 0
       vertex -0.0187958 0.49855 -1.5
       vertex 0.00986155 0.513758 -1.5
    endloop
  endfacet
  facet normal 0.468765 -0.883323 0
    outer loop
       vertex 0.00986155 0.513758 -1.5
       vertex 0.0385189 0.528966 -1.5
       vertex 0.0385189 0.528966 0
    endloop
  endfacet
  facet normal 0.468765 -0.883323 0
    outer loop
       vertex 0.0385189 0.528966 0
       vertex 0.00986155 0.513758 0
       vertex 0.00986155 0.513758 -1.5
    endloop
  endfacet
  facet normal 0.468765 -0.883323 0
    outer loop
       vertex 0.00986155 0.513758 0
       vertex 0.0385189 0.528966 1.5
       vertex 0.00986155 0.513758 1.5
    endloop
  endfacet
  facet normal 0.468765 -0.883323 0
    outer loop
       vertex 0.00986155 0.513758 1.5
       vertex -0.0187958 0.49855 1.5
       vertex -0.0187958 0.49855 0
    endloop
  endfacet
  facet normal 0.468765 -0.883323 0
    outer loop
       vertex -0.0187958 0.49855 0
       vertex -0.0187958 0.49855 -1.5
       vertex 0.00986155 0.513758 0
    endloop
  endfacet
  facet normal 0.468765 -0.883323 0
    outer loop
       vertex 0.00986155 0.513758 0
       vertex 0.00986155 0.513758 1.5
       vertex -0.0187958 0.49855 0
    endloop
  endfacet
  facet normal 0.267772 -0.963482 0
    outer loop
       vertex 0.101026 0.546338 0
       vertex 0.101026 0.546338 1.5
       vertex 0.0697724 0.537652 0
    endloop
  endfacet
  facet normal 0.267772 -0.963482 0
    outer loop
       vertex 0.0697724 0.537652 0
       vertex 0.0385189 0.528966 -1.5
       vertex 0.0697724 0.537652 -1.5
    endloop
  endfacet
  facet normal 0.267772 -0.963482 0
    outer loop
       vertex 0.0697724 0.537652 -1.5
       vertex 0.101026 0.546338 -1.5
       vertex 0.101026 0.546338 0
    endloop
  endfacet
  facet normal 0.267772 -0.963482 0
    outer loop
       vertex 0.101026 0.546338 0
       vertex 0.0697724 0.537652 0
       vertex 0.0697724 0.537652 -1.5
    endloop
  endfacet
  facet normal -0.561559 -0.827437 0
    outer loop
       vertex 0.316929 0.497093 0
       vertex 0.316929 0.497093 1.5
       vertex 0.290083 0.515313 0
    endloop
  endfacet
  facet normal -0.726336 -0.68734 0
    outer loop
       vertex 0.388388 0.43173 0
       vertex 0.388388 0.43173 1.5
       vertex 0.366082 0.455302 0
    endloop
  endfacet
  facet normal -0.726336 -0.68734 -0
    outer loop
       vertex 0.366082 0.455302 0
       vertex 0.343776 0.478873 -1.5
       vertex 0.366082 0.455302 -1.5
    endloop
  endfacet
  facet normal -0.726336 -0.68734 0
    outer loop
       vertex 0.366082 0.455302 -1.5
       vertex 0.388388 0.43173 -1.5
       vertex 0.388388 0.43173 0
    endloop
  endfacet
  facet normal -0.726336 -0.68734 0
    outer loop
       vertex 0.388388 0.43173 0
       vertex 0.366082 0.455302 0
       vertex 0.366082 0.455302 -1.5
    endloop
  endfacet
  facet normal -0.726336 -0.68734 0
    outer loop
       vertex 0.366082 0.455302 0
       vertex 0.388388 0.43173 1.5
       vertex 0.366082 0.455302 1.5
    endloop
  endfacet
  facet normal -0.726336 -0.68734 0
    outer loop
       vertex 0.366082 0.455302 1.5
       vertex 0.343776 0.478873 1.5
       vertex 0.343776 0.478873 0
    endloop
  endfacet
  facet normal -0.726336 -0.68734 -0
    outer loop
       vertex 0.343776 0.478873 0
       vertex 0.343776 0.478873 -1.5
       vertex 0.366082 0.455302 0
    endloop
  endfacet
  facet normal -0.726336 -0.68734 0
    outer loop
       vertex 0.366082 0.455302 0
       vertex 0.366082 0.455302 1.5
       vertex 0.343776 0.478873 0
    endloop
  endfacet
  facet normal -0.857078 -0.515186 0
    outer loop
       vertex 0.421833 0.37609 0
       vertex 0.421833 0.37609 1.5
       vertex 0.405111 0.40391 0
    endloop
  endfacet
  facet normal -0.857078 -0.515186 -0
    outer loop
       vertex 0.405111 0.40391 0
       vertex 0.388388 0.43173 -1.5
       vertex 0.405111 0.40391 -1.5
    endloop
  endfacet
  facet normal -0.857078 -0.515186 0
    outer loop
       vertex 0.405111 0.40391 -1.5
       vertex 0.421833 0.37609 -1.5
       vertex 0.421833 0.37609 0
    endloop
  endfacet
  facet normal -0.857078 -0.515186 0
    outer loop
       vertex 0.421833 0.37609 0
       vertex 0.405111 0.40391 0
       vertex 0.405111 0.40391 -1.5
    endloop
  endfacet
  facet normal -0.857078 -0.515186 0
    outer loop
       vertex 0.405111 0.40391 0
       vertex 0.421833 0.37609 1.5
       vertex 0.405111 0.40391 1.5
    endloop
  endfacet
  facet normal -0.857078 -0.515186 0
    outer loop
       vertex 0.405111 0.40391 1.5
       vertex 0.388388 0.43173 1.5
       vertex 0.388388 0.43173 0
    endloop
  endfacet
  facet normal -0.857078 -0.515186 -0
    outer loop
       vertex 0.388388 0.43173 0
       vertex 0.388388 0.43173 -1.5
       vertex 0.405111 0.40391 0
    endloop
  endfacet
  facet normal -0.857078 -0.515186 0
    outer loop
       vertex 0.405111 0.40391 0
       vertex 0.405111 0.40391 1.5
       vertex 0.388388 0.43173 0
    endloop
  endfacet
  facet normal -0.161932 -0.986802 0
    outer loop
       vertex 0.197811 0.544601 1.5
       vertex 0.165802 0.549853 1.5
       vertex 0.165802 0.549853 0
    endloop
  endfacet
  facet normal -0.161932 -0.986802 -0
    outer loop
       vertex 0.165802 0.549853 0
       vertex 0.165802 0.549853 -1.5
       vertex 0.197811 0.544601 0
    endloop
  endfacet
  facet normal -0.161932 -0.986802 0
    outer loop
       vertex 0.197811 0.544601 0
       vertex 0.197811 0.544601 1.5
       vertex 0.165802 0.549853 0
    endloop
  endfacet
  facet normal -0.370452 -0.928852 0
    outer loop
       vertex 0.290083 0.515313 0
       vertex 0.290083 0.515313 1.5
       vertex 0.259951 0.527331 0
    endloop
  endfacet
  facet normal -0.370452 -0.928852 -0
    outer loop
       vertex 0.259951 0.527331 0
       vertex 0.229819 0.539348 -1.5
       vertex 0.259951 0.527331 -1.5
    endloop
  endfacet
  facet normal -0.370452 -0.928852 0
    outer loop
       vertex 0.259951 0.527331 -1.5
       vertex 0.290083 0.515313 -1.5
       vertex 0.290083 0.515313 0
    endloop
  endfacet
  facet normal -0.370452 -0.928852 0
    outer loop
       vertex 0.290083 0.515313 0
       vertex 0.259951 0.527331 0
       vertex 0.259951 0.527331 -1.5
    endloop
  endfacet
  facet normal -0.370452 -0.928852 0
    outer loop
       vertex 0.259951 0.527331 0
       vertex 0.290083 0.515313 1.5
       vertex 0.259951 0.527331 1.5
    endloop
  endfacet
  facet normal -0.370452 -0.928852 0
    outer loop
       vertex 0.259951 0.527331 1.5
       vertex 0.229819 0.539348 1.5
       vertex 0.229819 0.539348 0
    endloop
  endfacet
  facet normal -0.370452 -0.928852 -0
    outer loop
       vertex 0.229819 0.539348 0
       vertex 0.229819 0.539348 -1.5
       vertex 0.259951 0.527331 0
    endloop
  endfacet
  facet normal -0.370452 -0.928852 0
    outer loop
       vertex 0.259951 0.527331 0
       vertex 0.259951 0.527331 1.5
       vertex 0.229819 0.539348 0
    endloop
  endfacet
  facet normal -0.561559 -0.827437 0
    outer loop
       vertex 0.343776 0.478873 0
       vertex 0.343776 0.478873 1.5
       vertex 0.316929 0.497093 0
    endloop
  endfacet
  facet normal -0.561559 -0.827437 -0
    outer loop
       vertex 0.316929 0.497093 0
       vertex 0.290083 0.515313 -1.5
       vertex 0.316929 0.497093 -1.5
    endloop
  endfacet
  facet normal -0.561559 -0.827437 0
    outer loop
       vertex 0.316929 0.497093 -1.5
       vertex 0.343776 0.478873 -1.5
       vertex 0.343776 0.478873 0
    endloop
  endfacet
  facet normal -0.561559 -0.827437 0
    outer loop
       vertex 0.343776 0.478873 0
       vertex 0.316929 0.497093 0
       vertex 0.316929 0.497093 -1.5
    endloop
  endfacet
  facet normal -0.561559 -0.827437 0
    outer loop
       vertex 0.316929 0.497093 0
       vertex 0.343776 0.478873 1.5
       vertex 0.316929 0.497093 1.5
    endloop
  endfacet
  facet normal -0.561559 -0.827437 0
    outer loop
       vertex 0.316929 0.497093 1.5
       vertex 0.290083 0.515313 1.5
       vertex 0.290083 0.515313 0
    endloop
  endfacet
  facet normal -0.561559 -0.827437 -0
    outer loop
       vertex 0.290083 0.515313 0
       vertex 0.290083 0.515313 -1.5
       vertex 0.316929 0.497093 0
    endloop
  endfacet
  facet normal 0 0 1
    outer loop
       vertex -0.5 -0.4 -1.4
       vertex -0.3 -0.4 -1.4
       vertex -0.3 -0.2 -1.4
    endloop
  endfacet
  facet normal 0 0 1
    outer loop
       vertex -0.3 -0.2 -1.4
       vertex -0.5 -0.2 -1.4
       vertex -0.5 -0.4 -1.4
    endloop
  endfacet
  facet normal 0 0 1
    outer loop
       vertex -0.5 -0.2 -1.4
       vertex -0.3 0 -1.4
       vertex -0.5 0 -1.4
    endloop
  endfacet
  facet normal 0 0 1
    outer loop
       vertex -0.5 0 -1.4
       vertex -0.7 0 -1.4
       vertex -0.7 -0.2 -1.4
    endloop
  endfacet
  facet normal -0 0 1
    outer loop
       vertex -0.7 -0.2 -1.4
       vertex -0.7 -0.4 -1.4
       vertex -0.5 -0.2 -1.4
    endloop
  endfacet
  facet normal 0 -0 1
    outer loop
       vertex -0.5 -0.2 -1.4
       vertex -0.5 0 -1.4
       vertex -0.7 -0.2 -1.4
    endloop
  endfacet
  facet normal 0 -1 0
    outer loop
       vertex -0.3 0 0.05
       vertex -0.3 0 1.5
       vertex -0.5 0 0.05
    endloop
  endfacet
  facet normal 0 -1 -0
    outer loop
       vertex -0.5 0 0.05
       vertex -0.7 0 -1.4
       vertex -0.5 0 -1.4
    endloop
  endfacet
  facet normal 0 -1 0
    outer loop
       vertex -0.5 0 -1.4
       vertex -0.3 0 -1.4
       vertex -0.3 0 0.05
    endloop
  endfacet
  facet normal -0 -1 0
    outer loop
       vertex -0.3 0 0.05
       vertex -0.5 0 0.05
       vertex -0.5 0 -1.4
    endloop
  endfacet
  facet normal 0 -1 0
    outer loop
       vertex -0.5 0 0.05
       vertex -0.3 0 1.5
       vertex -0.5 0 1.5
    endloop
  endfacet
  facet normal -0 -1 0
    outer loop
       vertex -0.5 0 1.5
       vertex -0.7 0 1.5
       vertex -0.7 0 0.05
    endloop
  endfacet
  facet normal 0 -1 0
    outer loop
       vertex -0.7 0 0.05
       vertex -0.7 0 -1.4
       vertex -0.5 0 0.05
    endloop
  endfacet
  facet normal 0 -1 0
    outer loop
       vertex -0.5 0 0.05
       vertex -0.5 0 1.5
       vertex -0.7 0 0.05
    endloop
  endfacet
  facet normal -1 0 0
    outer loop
       vertex -0.3 -0.4 0.05
       vertex -0.3 -0.4 1.5
       vertex -0.3 -0.2 0.05
    endloop
  endfacet
  facet normal -1 0 0
    outer loop
       vertex -0.3 -0.2 0.05
       vertex -0.3 0 -1.4
       vertex -0.3 -0.2 -1.4
    endloop
  endfacet
  facet normal -1 0 0
    outer loop
       vertex -0.3 -0.2 -1.4
       vertex -0.3 -0.4 -1.4
       vertex -0.3 -0.4 0.05
    endloop
  endfacet
  facet normal -0.947746 -0.319026 0
    outer loop
       vertex 0.442547 0.314554 0
       vertex 0.442547 0.314554 1.5
       vertex 0.43219 0.345322 0
    endloop
  endfacet
  facet normal -0.947746 -0.319026 -0
    outer loop
       vertex 0.43219 0.345322 0
       vertex 0.421833 0.37609 -1.5
       vertex 0.43219 0.345322 -1.5
    endloop
  endfacet
  facet normal -0.947746 -0.319026 0
    outer loop
       vertex 0.43219 0.345322 -1.5
       vertex 0.442547 0.314554 -1.5
       vertex 0.442547 0.314554 0
    endloop
  endfacet
  facet normal -0.947746 -0.319026 0
    outer loop
       vertex 0.442547 0.314554 0
       vertex 0.43219 0.345322 0
       vertex 0.43219 0.345322 -1.5
    endloop
  endfacet
  facet normal -0.947746 -0.319026 0
    outer loop
       vertex 0.43219 0.345322 0
       vertex 0.442547 0.314554 1.5
       vertex 0.43219 0.345322 1.5
    endloop
  endfacet
  facet normal -0.947746 -0.319026 0
    outer loop
       vertex 0.43219 0.345322 1.5
       vertex 0.421833 0.37609 1.5
       vertex 0.421833 0.37609 0
    endloop
  endfacet
  facet normal -0.947746 -0.319026 -0
    outer loop
       vertex 0.421833 0.37609 0
       vertex 0.421833 0.37609 -1.5
       vertex 0.43219 0.345322 0
    endloop
  endfacet
  facet normal -0.947746 -0.319026 0
    outer loop
       vertex 0.43219 0.345322 0
       vertex 0.43219 0.345322 1.5
       vertex 0.421833 0.37609 0
    endloop
  endfacet
  facet normal -0.994151 -0.108002 0
    outer loop
       vertex 0.44956 0.25 0
       vertex 0.44956 0.25 1.5
       vertex 0.446053 0.282277 0
    endloop
  endfacet
  facet normal -0.994151 -0.108002 -0
    outer loop
       vertex 0.446053 0.282277 0
       vertex 0.442547 0.314554 -1.5
       vertex 0.446053 0.282277 -1.5
    endloop
  endfacet
  facet normal -0.994151 -0.108002 0
    outer loop
       vertex 0.446053 0.282277 -1.5
       vertex 0.44956 0.25 -1.5
       vertex 0.44956 0.25 0
    endloop
  endfacet
  facet normal -0.994151 -0.108002 0
    outer loop
       vertex 0.44956 0.25 0
       vertex 0.446053 0.282277 0
       vertex 0.446053 0.282277 -1.5
    endloop
  endfacet
  facet normal -0.994151 -0.108002 0
    outer loop
       vertex 0.446053 0.282277 0
       vertex 0.44956 0.25 1.5
       vertex 0.446053 0.282277 1.5
    endloop
  endfacet
  facet normal -0.994151 -0.108002 0
    outer loop
       vertex 0.446053 0.282277 1.5
       vertex 0.442547 0.314554 1.5
       vertex 0.442547 0.314554 0
    endloop
  endfacet
  facet normal -0.994151 -0.108002 -0
    outer loop
       vertex 0.442547 0.314554 0
       vertex 0.442547 0.314554 -1.5
       vertex 0.446053 0.282277 0
    endloop
  endfacet
  facet normal -0.994151 -0.108002 0
    outer loop
       vertex 0.446053 0.282277 0
       vertex 0.446053 0.282277 1.5
       vertex 0.442547 0.314554 0
    endloop
  endfacet
  facet normal 0 -0 1
    outer loop
       vertex -0.3 -0.2 -1.4
       vertex -0.3 0 -1.4
       vertex -0.5 -0.2 -1.4
    endloop
  endfacet
  facet normal 0 0 1
    outer loop
       vertex -0.5 -0.2 -1.4
       vertex -0.7 -0.4 -1.4
       vertex -0.5 -0.4 -1.4
    endloop
  endfacet
  facet normal 1 0 0
    outer loop
       vertex -0.7 -0.2 1.5
       vertex -0.7 -0.4 1.5
       vertex -0.7 -0.4 0.05
    endloop
  endfacet
  facet normal 1 -0 0
    outer loop
       vertex -0.7 -0.4 0.05
       vertex -0.7 -0.4 -1.4
       vertex -0.7 -0.2 0.05
    endloop
  endfacet
  facet normal 1 0 -0
    outer loop
       vertex -0.7 -0.2 0.05
       vertex -0.7 -0.2 1.5
       vertex -0.7 -0.4 0.05
    endloop
  endfacet
  facet normal 0 0 -1
    outer loop
       vertex -0.7 -0.2 1.5
       vertex -0.7 0 1.5
       vertex -0.5 -0.2 1.5
    endloop
  endfacet
  facet normal 0 0 -1
    outer loop
       vertex -0.5 -0.2 1.5
       vertex -0.3 -0.4 1.5
       vertex -0.5 -0.4 1.5
    endloop
  endfacet
  facet normal 0 0 -1
    outer loop
       vertex -0.5 -0.4 1.5
       vertex -0.7 -0.4 1.5
       vertex -0.7 -0.2 1.5
    endloop
  endfacet
  facet normal 0 0 -1
    outer loop
       vertex -0.7 -0.2 1.5
       vertex -0.5 -0.2 1.5
       vertex -0.5 -0.4 1.5
    endloop
  endfacet
  facet normal 0 0 -1
    outer loop
       vertex -0.5 -0.2 1.5
       vertex -0.7 0 1.5
       vertex -0.5 0 1.5
    endloop
  endfacet
  facet normal 0 0 -1
    outer loop
       vertex -0.5 0 1.5
       vertex -0.3 0 1.5
       vertex -0.3 -0.2 1.5
    endloop
  endfacet
  facet normal -0 -0 -1
    outer loop
       vertex -0.3 -0.2 1.5
       vertex -0.3 -0.4 1.5
       vertex -0.5 -0.2 1.5
    endloop
  endfacet
  facet normal 0 0 -1
    outer loop
       vertex -0.5 -0.2 1.5
       vertex -0.5 0 1.5
       vertex -0.3 -0.2 1.5
    endloop
  endfacet
  facet normal 0.796376 -0.604802 0
    outer loop
       vertex -0.0878677 0.430665 0
       vertex -0.0682383 0.456512 1.5
       vertex -0.0878677 0.430665 1.5
    endloop
  endfacet
  facet normal 0.796376 -0.604802 0
    outer loop
       vertex -0.0878677 0.430665 1.5
       vertex -0.107497 0.404818 1.5
       vertex -0.107497 0.404818 0
    endloop
  endfacet
  facet normal 0.796376 -0.604802 0
    outer loop
       vertex -0.107497 0.404818 0
       vertex -0.107497 0.404818 -1.5
       vertex -0.0878677 0.430665 0
    endloop
  endfacet
  facet normal 0.796376 -0.604802 0
    outer loop
       vertex -0.0878677 0.430665 0
       vertex -0.0878677 0.430665 1.5
       vertex -0.107497 0.404818 0
    endloop
  endfacet
  facet normal 0.647755 -0.761849 0
    outer loop
       vertex -0.0187958 0.49855 0
       vertex -0.0187958 0.49855 1.5
       vertex -0.0435171 0.477531 0
    endloop
  endfacet
  facet normal 0.647755 -0.761849 0
    outer loop
       vertex -0.0435171 0.477531 0
       vertex -0.0682383 0.456512 -1.5
       vertex -0.0435171 0.477531 -1.5
    endloop
  endfacet
  facet normal -1 0 0
    outer loop
       vertex -0.3 -0.4 0.05
       vertex -0.3 -0.2 0.05
       vertex -0.3 -0.2 -1.4
    endloop
  endfacet
  facet normal -1 0 0
    outer loop
       vertex -0.3 -0.2 0.05
       vertex -0.3 -0.4 1.5
       vertex -0.3 -0.2 1.5
    endloop
  endfacet
  facet normal -1 0 0
    outer loop
       vertex -0.3 -0.2 1.5
       vertex -0.3 0 1.5
       vertex -0.3 0 0.05
    endloop
  endfacet
  facet normal -1 -0 -0
    outer loop
       vertex -0.3 0 0.05
       vertex -0.3 0 -1.4
       vertex -0.3 -0.2 0.05
    endloop
  endfacet
  facet normal -1 0 0
    outer loop
       vertex -0.3 -0.2 0.05
       vertex -0.3 -0.2 1.5
       vertex -0.3 0 0.05
    endloop
  endfacet
  facet normal 0 1 0
    outer loop
       vertex -0.7 -0.4 0.05
       vertex -0.7 -0.4 1.5
       vertex -0.5 -0.4 0.05
    endloop
  endfacet
  facet normal 0 1 0
    outer loop
       vertex -0.5 -0.4 0.05
       vertex -0.3 -0.4 -1.4
       vertex -0.5 -0.4 -1.4
    endloop
  endfacet
  facet normal 0 1 0
    outer loop
       vertex -0.5 -0.4 -1.4
       vertex -0.7 -0.4 -1.4
       vertex -0.7 -0.4 0.05
    endloop
  endfacet
  facet normal -0 1 0
    outer loop
       vertex -0.7 -0.4 0.05
       vertex -0.5 -0.4 0.05
       vertex -0.5 -0.4 -1.4
    endloop
  endfacet
  facet normal 0 1 -0
    outer loop
       vertex -0.5 -0.4 0.05
       vertex -0.7 -0.4 1.5
       vertex -0.5 -0.4 1.5
    endloop
  endfacet
  facet normal -0 1 0
    outer loop
       vertex -0.5 -0.4 1.5
       vertex -0.3 -0.4 1.5
       vertex -0.3 -0.4 0.05
    endloop
  endfacet
  facet normal 0 1 0
    outer loop
       vertex -0.3 -0.4 0.05
       vertex -0.3 -0.4 -1.4
       vertex -0.5 -0.4 0.05
    endloop
  endfacet
  facet normal 0 1 0
    outer loop
       vertex -0.5 -0.4 0.05
       vertex -0.5 -0.4 1.5
       vertex -0.3 -0.4 0.05
    endloop
  endfacet
  facet normal 1 0 -0
    outer loop
       vertex -0.7 0 0.05
       vertex -0.7 0 1.5
       vertex -0.7 -0.2 0.05
    endloop
  endfacet
  facet normal 1 0 0
    outer loop
       vertex -0.7 -0.2 0.05
       vertex -0.7 -0.4 -1.4
       vertex -0.7 -0.2 -1.4
    endloop
  endfacet
  facet normal 1 0 0
    outer loop
       vertex -0.7 -0.2 -1.4
       vertex -0.7 0 -1.4
       vertex -0.7 0 0.05
    endloop
  endfacet
  facet normal 1 0 0
    outer loop
       vertex -0.7 0 0.05
       vertex -0.7 -0.2 0.05
       vertex -0.7 -0.2 -1.4
    endloop
  endfacet
  facet normal 1 0 0
    outer loop
       vertex -0.7 -0.2 0.05
       vertex -0.7 0 1.5
       vertex -0.7 -0.2 1.5
    endloop
  endfacet
endsolid patchFFFFFF
