solid patchFFFFFF
  facet normal -0.468765 -0.883323 -0
    outer loop
       vertex -0.0187957 0.00145015 15
       vertex -0.0187957 0.00145015 -15
       vertex 0.038519 -0.0289658 -15
    endloop
  endfacet
  facet normal -0.468765 -0.883323 0
    outer loop
       vertex -0.0187957 0.00145015 15
       vertex 0.038519 -0.0289658 -15
       vertex 0.038519 -0.0289658 15
    endloop
  endfacet
  facet normal -0.647754 -0.761849 -0
    outer loop
       vertex -0.0682383 0.0434882 15
       vertex -0.0682383 0.0434882 -15
       vertex -0.0187957 0.00145015 -15
    endloop
  endfacet
  facet normal -0.647754 -0.761849 0
    outer loop
       vertex -0.0682383 0.0434882 15
       vertex -0.0187957 0.00145015 -15
       vertex -0.0187957 0.00145015 15
    endloop
  endfacet
  facet normal -0.796377 -0.604801 -0
    outer loop
       vertex -0.107497 0.0951824 15
       vertex -0.107497 0.0951824 -15
       vertex -0.0682383 0.0434882 -15
    endloop
  endfacet
  facet normal -0.796377 -0.604801 0
    outer loop
       vertex -0.107497 0.0951824 15
       vertex -0.0682383 0.0434882 -15
       vertex -0.0682383 0.0434882 15
    endloop
  endfacet
  facet normal -0.907731 -0.419552 -0
    outer loop
       vertex -0.134736 0.154116 15
       vertex -0.134736 0.154116 -15
       vertex -0.107497 0.0951824 -15
    endloop
  endfacet
  facet normal -0.907731 -0.419552 0
    outer loop
       vertex -0.134736 0.154116 15
       vertex -0.107497 0.0951824 -15
       vertex -0.107497 0.0951824 15
    endloop
  endfacet
  facet normal -0.976666 -0.214766 -0
    outer loop
       vertex -0.148681 0.217532 15
       vertex -0.148681 0.217532 -15
       vertex -0.134736 0.154116 -15
    endloop
  endfacet
  facet normal -0.976666 -0.214766 0
    outer loop
       vertex -0.148681 0.217532 15
       vertex -0.134736 0.154116 -15
       vertex -0.134736 0.154116 15
    endloop
  endfacet
  facet normal -1 0 -0
    outer loop
       vertex -0.148681 0.282467 15
       vertex -0.148681 0.282467 -15
       vertex -0.148681 0.217532 -15
    endloop
  endfacet
  facet normal -1 -0 0
    outer loop
       vertex -0.148681 0.282467 15
       vertex -0.148681 0.217532 -15
       vertex -0.148681 0.217532 15
    endloop
  endfacet
  facet normal -0.976666 0.214763 0
    outer loop
       vertex -0.134736 0.345884 15
       vertex -0.134736 0.345884 -15
       vertex -0.148681 0.282467 -15
    endloop
  endfacet
  facet normal -0.976666 0.214763 0
    outer loop
       vertex -0.134736 0.345884 15
       vertex -0.148681 0.282467 -15
       vertex -0.148681 0.282467 15
    endloop
  endfacet
  facet normal -0.907732 0.419549 0
    outer loop
       vertex -0.107497 0.404818 15
       vertex -0.107497 0.404818 -15
       vertex -0.134736 0.345884 -15
    endloop
  endfacet
  facet normal -0.907732 0.419549 0
    outer loop
       vertex -0.107497 0.404818 15
       vertex -0.134736 0.345884 -15
       vertex -0.134736 0.345884 15
    endloop
  endfacet
  facet normal -0.796376 0.604802 0
    outer loop
       vertex -0.0682383 0.456512 15
       vertex -0.0682383 0.456512 -15
       vertex -0.107497 0.404818 -15
    endloop
  endfacet
  facet normal 0.994151 -0.108002 0
    outer loop
       vertex 0.442547 0.185446 15
       vertex 0.442547 0.185446 -15
       vertex 0.44956 0.25 -15
    endloop
  endfacet
  facet normal 0.994151 -0.108002 0
    outer loop
       vertex 0.442547 0.185446 15
       vertex 0.44956 0.25 -15
       vertex 0.44956 0.25 15
    endloop
  endfacet
  facet normal 0.947746 -0.319026 0
    outer loop
       vertex 0.421833 0.12391 15
       vertex 0.421833 0.12391 -15
       vertex 0.442547 0.185446 -15
    endloop
  endfacet
  facet normal 0.947746 -0.319026 0
    outer loop
       vertex 0.421833 0.12391 15
       vertex 0.442547 0.185446 -15
       vertex 0.442547 0.185446 15
    endloop
  endfacet
  facet normal 0.857078 -0.515186 0
    outer loop
       vertex 0.388388 0.06827 15
       vertex 0.388388 0.06827 -15
       vertex 0.421833 0.12391 -15
    endloop
  endfacet
  facet normal 0.857078 -0.515186 0
    outer loop
       vertex 0.388388 0.06827 15
       vertex 0.421833 0.12391 -15
       vertex 0.421833 0.12391 15
    endloop
  endfacet
  facet normal 0.726332 -0.687344 0
    outer loop
       vertex 0.343776 0.0211275 15
       vertex 0.343776 0.0211275 -15
       vertex 0.388388 0.06827 -15
    endloop
  endfacet
  facet normal 0.726332 -0.687344 0
    outer loop
       vertex 0.343776 0.0211275 15
       vertex 0.388388 0.06827 -15
       vertex 0.388388 0.06827 15
    endloop
  endfacet
  facet normal 0.561565 -0.827432 0
    outer loop
       vertex 0.290083 -0.0153131 15
       vertex 0.290083 -0.0153131 -15
       vertex 0.343776 0.0211275 -15
    endloop
  endfacet
  facet normal 0.561565 -0.827432 0
    outer loop
       vertex 0.290083 -0.0153131 15
       vertex 0.343776 0.0211275 -15
       vertex 0.343776 0.0211275 15
    endloop
  endfacet
  facet normal 0.37045 -0.928852 0
    outer loop
       vertex 0.229819 -0.0393479 15
       vertex 0.229819 -0.0393479 -15
       vertex 0.290083 -0.0153131 -15
    endloop
  endfacet
  facet normal 0.37045 -0.928852 0
    outer loop
       vertex 0.229819 -0.0393479 15
       vertex 0.290083 -0.0153131 -15
       vertex 0.290083 -0.0153131 15
    endloop
  endfacet
  facet normal 0.161937 -0.986801 0
    outer loop
       vertex 0.165802 -0.0498533 15
       vertex 0.165802 -0.0498533 -15
       vertex 0.229819 -0.0393479 -15
    endloop
  endfacet
  facet normal 0.161937 -0.986801 0
    outer loop
       vertex 0.165802 -0.0498533 15
       vertex 0.229819 -0.0393479 -15
       vertex 0.229819 -0.0393479 15
    endloop
  endfacet
  facet normal -0.0541919 -0.998531 -0
    outer loop
       vertex 0.101026 -0.0463378 15
       vertex 0.101026 -0.0463378 -15
       vertex 0.165802 -0.0498533 -15
    endloop
  endfacet
  facet normal -0.0541919 -0.998531 0
    outer loop
       vertex 0.101026 -0.0463378 15
       vertex 0.165802 -0.0498533 -15
       vertex 0.165802 -0.0498533 15
    endloop
  endfacet
  facet normal -0.267772 -0.963482 -0
    outer loop
       vertex 0.038519 -0.0289658 15
       vertex 0.038519 -0.0289658 -15
       vertex 0.101026 -0.0463378 -15
    endloop
  endfacet
  facet normal -0.267772 -0.963482 0
    outer loop
       vertex 0.038519 -0.0289658 15
       vertex 0.101026 -0.0463378 -15
       vertex 0.101026 -0.0463378 15
    endloop
  endfacet
  facet normal 0.857078 0.515186 0
    outer loop
       vertex 0.421833 0.37609 15
       vertex 0.388388 0.43173 -15
       vertex 0.388388 0.43173 15
    endloop
  endfacet
  facet normal 0.947746 0.319026 0
    outer loop
       vertex 0.442547 0.314554 15
       vertex 0.442547 0.314554 -15
       vertex 0.421833 0.37609 -15
    endloop
  endfacet
  facet normal 0.947746 0.319026 0
    outer loop
       vertex 0.442547 0.314554 15
       vertex 0.421833 0.37609 -15
       vertex 0.421833 0.37609 15
    endloop
  endfacet
  facet normal 0.994151 0.108002 0
    outer loop
       vertex 0.44956 0.25 15
       vertex 0.44956 0.25 -15
       vertex 0.442547 0.314554 -15
    endloop
  endfacet
  facet normal 0.994151 0.108002 0
    outer loop
       vertex 0.44956 0.25 15
       vertex 0.442547 0.314554 -15
       vertex 0.442547 0.314554 15
    endloop
  endfacet
  facet normal 0 -0 -1
    outer loop
       vertex -0.3 0 -14
       vertex -0.3 -0.4 -14
       vertex -0.7 -0.4 -14
    endloop
  endfacet
  facet normal -0 0 -1
    outer loop
       vertex -0.3 0 -14
       vertex -0.7 -0.4 -14
       vertex -0.7 0 -14
    endloop
  endfacet
  facet normal 0 1 0
    outer loop
       vertex -0.3 0 15
       vertex -0.3 0 -14
       vertex -0.7 0 -14
    endloop
  endfacet
  facet normal 0 1 0
    outer loop
       vertex -0.3 0 15
       vertex -0.7 0 -14
       vertex -0.7 0 15
    endloop
  endfacet
  facet normal 1 0 0
    outer loop
       vertex -0.3 -0.4 15
       vertex -0.3 -0.4 -14
       vertex -0.3 0 -14
    endloop
  endfacet
  facet normal 1 -0 0
    outer loop
       vertex -0.3 -0.4 15
       vertex -0.3 0 -14
       vertex -0.3 0 15
    endloop
  endfacet
  facet normal 0 -1 0
    outer loop
       vertex -0.7 -0.4 15
       vertex -0.7 -0.4 -14
       vertex -0.3 -0.4 -14
    endloop
  endfacet
  facet normal 0 -1 0
    outer loop
       vertex -0.7 -0.4 15
       vertex -0.3 -0.4 -14
       vertex -0.3 -0.4 15
    endloop
  endfacet
  facet normal -1 0 -0
    outer loop
       vertex -0.7 0 15
       vertex -0.7 0 -14
       vertex -0.7 -0.4 -14
    endloop
  endfacet
  facet normal -1 -0 0
    outer loop
       vertex -0.7 0 15
       vertex -0.7 -0.4 -14
       vertex -0.7 -0.4 15
    endloop
  endfacet
  facet normal 0 0 1
    outer loop
       vertex -0.7 0 15
       vertex -0.7 -0.4 15
       vertex -0.3 -0.4 15
    endloop
  endfacet
  facet normal -0 0 1
    outer loop
       vertex -0.7 0 15
       vertex -0.3 -0.4 15
       vertex -0.3 0 15
    endloop
  endfacet
  facet normal -0.796376 0.604802 0
    outer loop
       vertex -0.0682383 0.456512 15
       vertex -0.107497 0.404818 -15
       vertex -0.107497 0.404818 15
    endloop
  endfacet
  facet normal -0.647755 0.761849 0
    outer loop
       vertex -0.0187958 0.49855 15
       vertex -0.0187958 0.49855 -15
       vertex -0.0682383 0.456512 -15
    endloop
  endfacet
  facet normal -0.647755 0.761849 0
    outer loop
       vertex -0.0187958 0.49855 15
       vertex -0.0682383 0.456512 -15
       vertex -0.0682383 0.456512 15
    endloop
  endfacet
  facet normal -0.468765 0.883323 0
    outer loop
       vertex 0.0385189 0.528966 15
       vertex 0.0385189 0.528966 -15
       vertex -0.0187958 0.49855 -15
    endloop
  endfacet
  facet normal -0.468765 0.883323 0
    outer loop
       vertex 0.0385189 0.528966 15
       vertex -0.0187958 0.49855 -15
       vertex -0.0187958 0.49855 15
    endloop
  endfacet
  facet normal -0.267772 0.963482 0
    outer loop
       vertex 0.101026 0.546338 15
       vertex 0.101026 0.546338 -15
       vertex 0.0385189 0.528966 -15
    endloop
  endfacet
  facet normal -0.267772 0.963482 0
    outer loop
       vertex 0.101026 0.546338 15
       vertex 0.0385189 0.528966 -15
       vertex 0.0385189 0.528966 15
    endloop
  endfacet
  facet normal -0.0541843 0.998531 0
    outer loop
       vertex 0.165802 0.549853 15
       vertex 0.165802 0.549853 -15
       vertex 0.101026 0.546338 -15
    endloop
  endfacet
  facet normal -0.0541843 0.998531 0
    outer loop
       vertex 0.165802 0.549853 15
       vertex 0.101026 0.546338 -15
       vertex 0.101026 0.546338 15
    endloop
  endfacet
  facet normal 0.161932 0.986802 0
    outer loop
       vertex 0.229819 0.539348 15
       vertex 0.229819 0.539348 -15
       vertex 0.165802 0.549853 -15
    endloop
  endfacet
  facet normal 0.161932 0.986802 0
    outer loop
       vertex 0.229819 0.539348 15
       vertex 0.165802 0.549853 -15
       vertex 0.165802 0.549853 15
    endloop
  endfacet
  facet normal 0.370452 0.928852 0
    outer loop
       vertex 0.290083 0.515313 15
       vertex 0.290083 0.515313 -15
       vertex 0.229819 0.539348 -15
    endloop
  endfacet
  facet normal 0.370452 0.928852 0
    outer loop
       vertex 0.290083 0.515313 15
       vertex 0.229819 0.539348 -15
       vertex 0.229819 0.539348 15
    endloop
  endfacet
  facet normal 0.561559 0.827437 0
    outer loop
       vertex 0.343776 0.478873 15
       vertex 0.343776 0.478873 -15
       vertex 0.290083 0.515313 -15
    endloop
  endfacet
  facet normal 0.561559 0.827437 0
    outer loop
       vertex 0.343776 0.478873 15
       vertex 0.290083 0.515313 -15
       vertex 0.290083 0.515313 15
    endloop
  endfacet
  facet normal 0.726336 0.68734 0
    outer loop
       vertex 0.388388 0.43173 15
       vertex 0.388388 0.43173 -15
       vertex 0.343776 0.478873 -15
    endloop
  endfacet
  facet normal 0.726336 0.68734 0
    outer loop
       vertex 0.388388 0.43173 15
       vertex 0.343776 0.478873 -15
       vertex 0.343776 0.478873 15
    endloop
  endfacet
  facet normal 0.857078 0.515186 0
    outer loop
       vertex 0.421833 0.37609 15
       vertex 0.421833 0.37609 -15
       vertex 0.388388 0.43173 -15
    endloop
  endfacet
  facet normal 1 0 0
    outer loop
       vertex 1.3 0 15
       vertex 1.3 0 -15
       vertex 1.3 0.4 -15
    endloop
  endfacet
  facet normal 1 -0 0
    outer loop
       vertex 1.3 0 15
       vertex 1.3 0.4 -15
       vertex 1.3 0.4 15
    endloop
  endfacet
  facet normal 0 -1 0
    outer loop
       vertex 0.9 0 15
       vertex 0.9 0 -15
       vertex 1.3 0 -15
    endloop
  endfacet
  facet normal 0 -1 0
    outer loop
       vertex 0.9 0 15
       vertex 1.3 0 -15
       vertex 1.3 0 15
    endloop
  endfacet
  facet normal 0.196116 -0.980581 0
    outer loop
       vertex 0.4 -0.1 15
       vertex 0.4 -0.1 -15
       vertex 0.9 0 -15
    endloop
  endfacet
  facet normal 0.196116 -0.980581 0
    outer loop
       vertex 0.4 -0.1 15
       vertex 0.9 0 -15
       vertex 0.9 0 15
    endloop
  endfacet
  facet normal 1 0 0
    outer loop
       vertex 0.4 -0.3 15
       vertex 0.4 -0.3 -15
       vertex 0.4 -0.1 -15
    endloop
  endfacet
  facet normal 1 -0 0
    outer loop
       vertex 0.4 -0.3 15
       vertex 0.4 -0.1 -15
       vertex 0.4 -0.1 15
    endloop
  endfacet
  facet normal 0.242536 0.970143 0
    outer loop
       vertex 0.8 -0.4 15
       vertex 0.8 -0.4 -15
       vertex 0.4 -0.3 -15
    endloop
  endfacet
  facet normal 0.242536 0.970143 0
    outer loop
       vertex 0.8 -0.4 15
       vertex 0.4 -0.3 -15
       vertex 0.4 -0.3 15
    endloop
  endfacet
  facet normal 0.242536 0.970143 0
    outer loop
       vertex 1.2 -0.5 15
       vertex 1.2 -0.5 -15
       vertex 0.8 -0.4 -15
    endloop
  endfacet
  facet normal 0.242536 0.970143 0
    outer loop
       vertex 1.2 -0.5 15
       vertex 0.8 -0.4 -15
       vertex 0.8 -0.4 15
    endloop
  endfacet
  facet normal 0.980581 -0.196116 0
    outer loop
       vertex 1.1 -1 15
       vertex 1.1 -1 -15
       vertex 1.2 -0.5 -15
    endloop
  endfacet
  facet normal 0.980581 -0.196116 0
    outer loop
       vertex 1.1 -1 15
       vertex 1.2 -0.5 -15
       vertex 1.2 -0.5 15
    endloop
  endfacet
  facet normal 0.124035 -0.992278 0
    outer loop
       vertex 0.3 -1.1 15
       vertex 0.3 -1.1 -15
       vertex 1.1 -1 -15
    endloop
  endfacet
  facet normal 0.124035 -0.992278 0
    outer loop
       vertex 0.3 -1.1 15
       vertex 1.1 -1 -15
       vertex 1.1 -1 15
    endloop
  endfacet
  facet normal -0.894427 0.447213 0
    outer loop
       vertex 0.4 -0.9 15
       vertex 0.4 -0.9 -15
       vertex 0.3 -1.1 -15
    endloop
  endfacet
  facet normal 0.707107 0.707107 0
    outer loop
       vertex -0.6 0.7 15
       vertex -0.6 0.7 -15
       vertex -0.8 0.9 -15
    endloop
  endfacet
  facet normal 0.707107 0.707107 0
    outer loop
       vertex -0.6 0.7 15
       vertex -0.8 0.9 -15
       vertex -0.8 0.9 15
    endloop
  endfacet
  facet normal 0 1 0
    outer loop
       vertex -0.4 0.7 15
       vertex -0.4 0.7 -15
       vertex -0.6 0.7 -15
    endloop
  endfacet
  facet normal 0 1 0
    outer loop
       vertex -0.4 0.7 15
       vertex -0.6 0.7 -15
       vertex -0.6 0.7 15
    endloop
  endfacet
  facet normal -0.948683 0.316228 0
    outer loop
       vertex -0.3 1 15
       vertex -0.3 1 -15
       vertex -0.4 0.7 -15
    endloop
  endfacet
  facet normal -0.948683 0.316228 0
    outer loop
       vertex -0.3 1 15
       vertex -0.4 0.7 -15
       vertex -0.4 0.7 15
    endloop
  endfacet
  facet normal -0.316228 0.948683 0
    outer loop
       vertex 0 1.1 15
       vertex 0 1.1 -15
       vertex -0.3 1 -15
    endloop
  endfacet
  facet normal -0.316228 0.948683 0
    outer loop
       vertex 0 1.1 15
       vertex -0.3 1 -15
       vertex -0.3 1 15
    endloop
  endfacet
  facet normal 0.447214 0.894427 0
    outer loop
       vertex 0.2 1 15
       vertex 0.2 1 -15
       vertex 0 1.1 -15
    endloop
  endfacet
  facet normal 0.447214 0.894427 0
    outer loop
       vertex 0.2 1 15
       vertex 0 1.1 -15
       vertex 0 1.1 15
    endloop
  endfacet
  facet normal 0.5547 0.83205 0
    outer loop
       vertex 0.5 0.8 15
       vertex 0.5 0.8 -15
       vertex 0.2 1 -15
    endloop
  endfacet
  facet normal 0.5547 0.83205 0
    outer loop
       vertex 0.5 0.8 15
       vertex 0.2 1 -15
       vertex 0.2 1 15
    endloop
  endfacet
  facet normal -0.707107 0.707107 0
    outer loop
       vertex 0.7 1 15
       vertex 0.7 1 -15
       vertex 0.5 0.8 -15
    endloop
  endfacet
  facet normal -0.707107 0.707107 0
    outer loop
       vertex 0.7 1 15
       vertex 0.5 0.8 -15
       vertex 0.5 0.8 15
    endloop
  endfacet
  facet normal 0.5547 0.83205 0
    outer loop
       vertex 1 0.8 15
       vertex 1 0.8 -15
       vertex 0.7 1 -15
    endloop
  endfacet
  facet normal 0.5547 0.83205 0
    outer loop
       vertex 1 0.8 15
       vertex 0.7 1 -15
       vertex 0.7 1 15
    endloop
  endfacet
  facet normal 0.8 0.6 0
    outer loop
       vertex 1.3 0.4 15
       vertex 1.3 0.4 -15
       vertex 1 0.8 -15
    endloop
  endfacet
  facet normal 0.8 0.6 0
    outer loop
       vertex 1.3 0.4 15
       vertex 1 0.8 -15
       vertex 1 0.8 15
    endloop
  endfacet
  facet normal 0.707107 -0.707107 0
    outer loop
       vertex -1.1 0 15
       vertex -0.9 0.2 -15
       vertex -0.9 0.2 15
    endloop
  endfacet
  facet normal -0.707107 -0.707107 -0
    outer loop
       vertex -1.2 0.1 15
       vertex -1.2 0.1 -15
       vertex -1.1 0 -15
    endloop
  endfacet
  facet normal -0.707107 -0.707107 0
    outer loop
       vertex -1.2 0.1 15
       vertex -1.1 0 -15
       vertex -1.1 0 15
    endloop
  endfacet
  facet normal -0.894427 -0.447213 -0
    outer loop
       vertex -1.3 0.3 15
       vertex -1.3 0.3 -15
       vertex -1.2 0.1 -15
    endloop
  endfacet
  facet normal -0.894427 -0.447213 0
    outer loop
       vertex -1.3 0.3 15
       vertex -1.2 0.1 -15
       vertex -1.2 0.1 15
    endloop
  endfacet
  facet normal -0.894427 0.447213 0
    outer loop
       vertex -1.2 0.5 15
       vertex -1.2 0.5 -15
       vertex -1.3 0.3 -15
    endloop
  endfacet
  facet normal -0.894427 0.447213 0
    outer loop
       vertex -1.2 0.5 15
       vertex -1.3 0.3 -15
       vertex -1.3 0.3 15
    endloop
  endfacet
  facet normal -0.894427 -0.447213 -0
    outer loop
       vertex -1.3 0.7 15
       vertex -1.3 0.7 -15
       vertex -1.2 0.5 -15
    endloop
  endfacet
  facet normal -0.894427 -0.447213 0
    outer loop
       vertex -1.3 0.7 15
       vertex -1.2 0.5 -15
       vertex -1.2 0.5 15
    endloop
  endfacet
  facet normal -1 0 -0
    outer loop
       vertex -1.3 0.8 15
       vertex -1.3 0.8 -15
       vertex -1.3 0.7 -15
    endloop
  endfacet
  facet normal -1 -0 0
    outer loop
       vertex -1.3 0.8 15
       vertex -1.3 0.7 -15
       vertex -1.3 0.7 15
    endloop
  endfacet
  facet normal 0.447214 0.894427 0
    outer loop
       vertex -1.1 0.7 15
       vertex -1.1 0.7 -15
       vertex -1.3 0.8 -15
    endloop
  endfacet
  facet normal 0.447214 0.894427 0
    outer loop
       vertex -1.1 0.7 15
       vertex -1.3 0.8 -15
       vertex -1.3 0.8 15
    endloop
  endfacet
  facet normal -0.447214 0.894427 0
    outer loop
       vertex -0.9 0.8 15
       vertex -0.9 0.8 -15
       vertex -1.1 0.7 -15
    endloop
  endfacet
  facet normal -0.447214 0.894427 0
    outer loop
       vertex -0.9 0.8 15
       vertex -1.1 0.7 -15
       vertex -1.1 0.7 15
    endloop
  endfacet
  facet normal -0.707107 0.707107 0
    outer loop
       vertex -0.8 0.9 15
       vertex -0.8 0.9 -15
       vertex -0.9 0.8 -15
    endloop
  endfacet
  facet normal -0.707107 0.707107 0
    outer loop
       vertex -0.8 0.9 15
       vertex -0.9 0.8 -15
       vertex -0.9 0.8 15
    endloop
  endfacet
  facet normal -0.894427 0.447213 0
    outer loop
       vertex 0.4 -0.9 15
       vertex 0.3 -1.1 -15
       vertex 0.3 -1.1 15
    endloop
  endfacet
  facet normal -0.316228 -0.948683 -0
    outer loop
       vertex -0.2 -0.7 15
       vertex -0.2 -0.7 -15
       vertex 0.4 -0.9 -15
    endloop
  endfacet
  facet normal -0.316228 -0.948683 0
    outer loop
       vertex -0.2 -0.7 15
       vertex 0.4 -0.9 -15
       vertex 0.4 -0.9 15
    endloop
  endfacet
  facet normal 0.707107 -0.707107 0
    outer loop
       vertex -0.4 -0.9 15
       vertex -0.4 -0.9 -15
       vertex -0.2 -0.7 -15
    endloop
  endfacet
  facet normal 0.707107 -0.707107 0
    outer loop
       vertex -0.4 -0.9 15
       vertex -0.2 -0.7 -15
       vertex -0.2 -0.7 15
    endloop
  endfacet
  facet normal -0.196116 -0.980581 -0
    outer loop
       vertex -0.9 -0.8 15
       vertex -0.9 -0.8 -15
       vertex -0.4 -0.9 -15
    endloop
  endfacet
  facet normal -0.196116 -0.980581 0
    outer loop
       vertex -0.9 -0.8 15
       vertex -0.4 -0.9 -15
       vertex -0.4 -0.9 15
    endloop
  endfacet
  facet normal -0.316228 -0.948683 -0
    outer loop
       vertex -1.2 -0.7 15
       vertex -1.2 -0.7 -15
       vertex -0.9 -0.8 -15
    endloop
  endfacet
  facet normal -0.316228 -0.948683 0
    outer loop
       vertex -1.2 -0.7 15
       vertex -0.9 -0.8 -15
       vertex -0.9 -0.8 15
    endloop
  endfacet
  facet normal -0.948683 -0.316228 -0
    outer loop
       vertex -1.3 -0.4 15
       vertex -1.3 -0.4 -15
       vertex -1.2 -0.7 -15
    endloop
  endfacet
  facet normal -0.948683 -0.316228 0
    outer loop
       vertex -1.3 -0.4 15
       vertex -1.2 -0.7 -15
       vertex -1.2 -0.7 15
    endloop
  endfacet
  facet normal -0.707107 0.707107 0
    outer loop
       vertex -1.1 -0.2 15
       vertex -1.1 -0.2 -15
       vertex -1.3 -0.4 -15
    endloop
  endfacet
  facet normal -0.707107 0.707107 0
    outer loop
       vertex -1.1 -0.2 15
       vertex -1.3 -0.4 -15
       vertex -1.3 -0.4 15
    endloop
  endfacet
  facet normal -0.447214 0.894427 0
    outer loop
       vertex -0.9 -0.1 15
       vertex -0.9 -0.1 -15
       vertex -1.1 -0.2 -15
    endloop
  endfacet
  facet normal -0.447214 0.894427 0
    outer loop
       vertex -0.9 -0.1 15
       vertex -1.1 -0.2 -15
       vertex -1.1 -0.2 15
    endloop
  endfacet
  facet normal -1 0 -0
    outer loop
       vertex -0.9 0.2 15
       vertex -0.9 0.2 -15
       vertex -0.9 -0.1 -15
    endloop
  endfacet
  facet normal -1 -0 0
    outer loop
       vertex -0.9 0.2 15
       vertex -0.9 -0.1 -15
       vertex -0.9 -0.1 15
    endloop
  endfacet
  facet normal 0.707107 -0.707107 0
    outer loop
       vertex -1.1 0 15
       vertex -1.1 0 -15
       vertex -0.9 0.2 -15
    endloop
  endfacet
endsolid patchFFFFFF
