solid allBoundary
  facet normal 0 0 1
    outer loop
       vertex 4 1.525 8
       vertex 5 2.2875 8
       vertex 4 1.93125 8
    endloop
  endfacet
  facet normal 0 0 1
    outer loop
       vertex 4 1.93125 8
       vertex 3 1.2875 8
       vertex 4 1.525 8
    endloop
  endfacet
  facet normal 0 0 1
    outer loop
       vertex 4 1.93125 8
       vertex 5 2.575 8
       vertex 4 2.1 8
    endloop
  endfacet
  facet normal 0 0 1
    outer loop
       vertex 4 2.1 8
       vertex 3 1.575 8
       vertex 4 1.93125 8
    endloop
  endfacet
  facet normal 0 0 1
    outer loop
       vertex 3 1.2875 8
       vertex 4 1.93125 8
       vertex 3 1.575 8
    endloop
  endfacet
  facet normal 0 0 1
    outer loop
       vertex 3 1.575 8
       vertex 2 1.05 8
       vertex 3 1.2875 8
    endloop
  endfacet
  facet normal -0 0 -1
    outer loop
       vertex 7 3 -4
       vertex 6 2.64375 -4
       vertex 7 3.525 -4
    endloop
  endfacet
  facet normal 0 0 -1
    outer loop
       vertex 7 3.525 -4
       vertex 8 4 -4
       vertex 7 3 -4
    endloop
  endfacet
  facet normal -0 0 -1
    outer loop
       vertex 6 2 -4
       vertex 5 1.7625 -4
       vertex 6 2.64375 -4
    endloop
  endfacet
  facet normal 0 0 -1
    outer loop
       vertex 6 2.64375 -4
       vertex 7 3 -4
       vertex 6 2 -4
    endloop
  endfacet
  facet normal -0 0 -1
    outer loop
       vertex 5 1 -4
       vertex 4 0.88125 -4
       vertex 5 1.7625 -4
    endloop
  endfacet
  facet normal 0 0 -1
    outer loop
       vertex 5 1.7625 -4
       vertex 6 2 -4
       vertex 5 1 -4
    endloop
  endfacet
  facet normal 0 0 -1
    outer loop
       vertex 4 0 -4
       vertex 3 0 -4
       vertex 4 0.88125 -4
    endloop
  endfacet
  facet normal 0 0 -1
    outer loop
       vertex 4 0.88125 -4
       vertex 5 1 -4
       vertex 4 0 -4
    endloop
  endfacet
  facet normal -0 0 -1
    outer loop
       vertex 6 2.64375 -4
       vertex 5 2.2875 -4
       vertex 6 3.05 -4
    endloop
  endfacet
  facet normal 0 0 -1
    outer loop
       vertex 6 3.05 -4
       vertex 7 3.525 -4
       vertex 6 2.64375 -4
    endloop
  endfacet
  facet normal -0 0 -1
    outer loop
       vertex 5 1.7625 -4
       vertex 4 1.525 -4
       vertex 5 2.2875 -4
    endloop
  endfacet
  facet normal 0 0 -1
    outer loop
       vertex 5 2.2875 -4
       vertex 6 2.64375 -4
       vertex 5 1.7625 -4
    endloop
  endfacet
  facet normal 0 0 1
    outer loop
       vertex 7 3 8
       vertex 8 4 8
       vertex 7 3.525 8
    endloop
  endfacet
  facet normal 0 0 1
    outer loop
       vertex 7 3.525 8
       vertex 6 2.64375 8
       vertex 7 3 8
    endloop
  endfacet
  facet normal 0 0 1
    outer loop
       vertex 6 2 8
       vertex 7 3 8
       vertex 6 2.64375 8
    endloop
  endfacet
  facet normal 0 0 1
    outer loop
       vertex 6 2.64375 8
       vertex 5 1.7625 8
       vertex 6 2 8
    endloop
  endfacet
  facet normal 0 0 1
    outer loop
       vertex 5 1 8
       vertex 6 2 8
       vertex 5 1.7625 8
    endloop
  endfacet
  facet normal 0 0 1
    outer loop
       vertex 5 1.7625 8
       vertex 4 0.88125 8
       vertex 5 1 8
    endloop
  endfacet
  facet normal 0 0 1
    outer loop
       vertex 4 0 8
       vertex 5 1 8
       vertex 4 0.88125 8
    endloop
  endfacet
  facet normal 0 0 1
    outer loop
       vertex 4 0.88125 8
       vertex 3 0 8
       vertex 4 0 8
    endloop
  endfacet
  facet normal 0 0 1
    outer loop
       vertex 6 2.64375 8
       vertex 7 3.525 8
       vertex 6 3.05 8
    endloop
  endfacet
  facet normal 0 0 1
    outer loop
       vertex 6 3.05 8
       vertex 5 2.2875 8
       vertex 6 2.64375 8
    endloop
  endfacet
  facet normal 0 0 1
    outer loop
       vertex 5 1.7625 8
       vertex 6 2.64375 8
       vertex 5 2.2875 8
    endloop
  endfacet
  facet normal 0 0 1
    outer loop
       vertex 5 2.2875 8
       vertex 4 1.525 8
       vertex 5 1.7625 8
    endloop
  endfacet
  facet normal 0 0 1
    outer loop
       vertex 4 0.88125 8
       vertex 5 1.7625 8
       vertex 4 1.525 8
    endloop
  endfacet
  facet normal 0 0 1
    outer loop
       vertex 4 1.525 8
       vertex 3 0.7625 8
       vertex 4 0.88125 8
    endloop
  endfacet
  facet normal 0 0 1
    outer loop
       vertex 3 0 8
       vertex 4 0.88125 8
       vertex 3 0.7625 8
    endloop
  endfacet
  facet normal 0 0 1
    outer loop
       vertex 3 0.7625 8
       vertex 2 0 8
       vertex 3 0 8
    endloop
  endfacet
  facet normal 0 0 1
    outer loop
       vertex 5 2.2875 8
       vertex 6 3.05 8
       vertex 5 2.575 8
    endloop
  endfacet
  facet normal 0 0 1
    outer loop
       vertex 5 2.575 8
       vertex 4 1.93125 8
       vertex 5 2.2875 8
    endloop
  endfacet
  facet normal 0.707107 -0.707107 0
    outer loop
       vertex 7 3 8
       vertex 6 2 8
       vertex 6 2 -4
    endloop
  endfacet
  facet normal 0.707107 -0.707107 0
    outer loop
       vertex 6 2 -4
       vertex 7 3 -4
       vertex 7 3 8
    endloop
  endfacet
  facet normal 0.707107 -0.707107 0
    outer loop
       vertex 6 2 8
       vertex 5 1 8
       vertex 5 1 -4
    endloop
  endfacet
  facet normal 0.707107 -0.707107 0
    outer loop
       vertex 5 1 -4
       vertex 6 2 -4
       vertex 6 2 8
    endloop
  endfacet
  facet normal 0.707107 -0.707107 0
    outer loop
       vertex 5 1 8
       vertex 4 0 8
       vertex 4 0 -4
    endloop
  endfacet
  facet normal 0.707107 -0.707107 0
    outer loop
       vertex 4 0 -4
       vertex 5 1 -4
       vertex 5 1 8
    endloop
  endfacet
  facet normal -0.464834 0.885398 0
    outer loop
       vertex 4 2.1 8
       vertex 4 2.1 -4
       vertex 3 1.575 -4
    endloop
  endfacet
  facet normal -0.464834 0.885398 0
    outer loop
       vertex 3 1.575 -4
       vertex 3 1.575 8
       vertex 4 2.1 8
    endloop
  endfacet
  facet normal -0.464834 0.885398 0
    outer loop
       vertex 3 1.575 8
       vertex 3 1.575 -4
       vertex 2 1.05 -4
    endloop
  endfacet
  facet normal -0.464834 0.885398 0
    outer loop
       vertex 2 1.05 -4
       vertex 2 1.05 8
       vertex 3 1.575 8
    endloop
  endfacet
  facet normal -0.429057 0.903278 0
    outer loop
       vertex 8 4 8
       vertex 8 4 -4
       vertex 7 3.525 -4
    endloop
  endfacet
  facet normal -0.429057 0.903278 0
    outer loop
       vertex 7 3.525 -4
       vertex 7 3.525 8
       vertex 8 4 8
    endloop
  endfacet
  facet normal -0.429057 0.903278 0
    outer loop
       vertex 7 3.525 8
       vertex 7 3.525 -4
       vertex 6 3.05 -4
    endloop
  endfacet
  facet normal -0.429057 0.903278 0
    outer loop
       vertex 6 3.05 -4
       vertex 6 3.05 8
       vertex 7 3.525 8
    endloop
  endfacet
  facet normal -0.429057 0.903278 0
    outer loop
       vertex 6 3.05 8
       vertex 6 3.05 -4
       vertex 5 2.575 -4
    endloop
  endfacet
  facet normal -0.429057 0.903278 0
    outer loop
       vertex 5 2.575 -4
       vertex 5 2.575 8
       vertex 6 3.05 8
    endloop
  endfacet
  facet normal -0.429057 0.903278 0
    outer loop
       vertex 5 2.575 8
       vertex 5 2.575 -4
       vertex 4 2.1 -4
    endloop
  endfacet
  facet normal -0.429057 0.903278 0
    outer loop
       vertex 4 2.1 -4
       vertex 4 2.1 8
       vertex 5 2.575 8
    endloop
  endfacet
  facet normal -0 0 -1
    outer loop
       vertex 4 0.88125 -4
       vertex 3 0.7625 -4
       vertex 4 1.525 -4
    endloop
  endfacet
  facet normal 0 0 -1
    outer loop
       vertex 4 1.525 -4
       vertex 5 1.7625 -4
       vertex 4 0.88125 -4
    endloop
  endfacet
  facet normal 0 0 -1
    outer loop
       vertex 3 0 -4
       vertex 2 0 -4
       vertex 3 0.7625 -4
    endloop
  endfacet
  facet normal 0 0 -1
    outer loop
       vertex 3 0.7625 -4
       vertex 4 0.88125 -4
       vertex 3 0 -4
    endloop
  endfacet
  facet normal -0 0 -1
    outer loop
       vertex 5 2.2875 -4
       vertex 4 1.93125 -4
       vertex 5 2.575 -4
    endloop
  endfacet
  facet normal 0 0 -1
    outer loop
       vertex 5 2.575 -4
       vertex 6 3.05 -4
       vertex 5 2.2875 -4
    endloop
  endfacet
  facet normal -0 0 -1
    outer loop
       vertex 4 1.525 -4
       vertex 3 1.2875 -4
       vertex 4 1.93125 -4
    endloop
  endfacet
  facet normal 0 0 -1
    outer loop
       vertex 4 1.93125 -4
       vertex 5 2.2875 -4
       vertex 4 1.525 -4
    endloop
  endfacet
  facet normal -0 0 -1
    outer loop
       vertex 4 1.93125 -4
       vertex 3 1.575 -4
       vertex 4 2.1 -4
    endloop
  endfacet
  facet normal 0.707107 -0.707107 0
    outer loop
       vertex 7 3 -4
       vertex 8 4 -4
       vertex 8 4 8
    endloop
  endfacet
  facet normal 0.707107 -0.707107 0
    outer loop
       vertex 8 4 8
       vertex 7 3 8
       vertex 7 3 -4
    endloop
  endfacet
  facet normal 0 -1 0
    outer loop
       vertex 2 0 -4
       vertex 3 0 -4
       vertex 3 0 8
    endloop
  endfacet
  facet normal -0 -1 0
    outer loop
       vertex 3 0 8
       vertex 2 0 8
       vertex 2 0 -4
    endloop
  endfacet
  facet normal 0 -1 0
    outer loop
       vertex 3 0 -4
       vertex 4 0 -4
       vertex 4 0 8
    endloop
  endfacet
  facet normal -0 -1 0
    outer loop
       vertex 4 0 8
       vertex 3 0 8
       vertex 3 0 -4
    endloop
  endfacet
  facet normal 0 0 -1
    outer loop
       vertex 3 1.575 -4
       vertex 4 1.93125 -4
       vertex 3 1.2875 -4
    endloop
  endfacet
  facet normal -0 0 -1
    outer loop
       vertex 3 1.2875 -4
       vertex 2 1.05 -4
       vertex 3 1.575 -4
    endloop
  endfacet
  facet normal 0 0 -1
    outer loop
       vertex 4 2.1 -4
       vertex 5 2.575 -4
       vertex 4 1.93125 -4
    endloop
  endfacet
endsolid allBoundary
solid oldInternalFaces
  facet normal -0.606343 0.795203 0
    outer loop
       vertex 2 0 -4
       vertex 2 0 8
       vertex 3 0.7625 8
    endloop
  endfacet
  facet normal -0.606343 0.795203 0
    outer loop
       vertex 3 0.7625 8
       vertex 3 0.7625 -4
       vertex 2 0 -4
    endloop
  endfacet
  facet normal 0.231072 -0.972937 0
    outer loop
       vertex 2 1.05 -4
       vertex 3 1.2875 -4
       vertex 3 1.2875 8
    endloop
  endfacet
  facet normal 0.231072 -0.972937 0
    outer loop
       vertex 3 1.2875 8
       vertex 2 1.05 8
       vertex 2 1.05 -4
    endloop
  endfacet
  facet normal -0.606343 0.795203 0
    outer loop
       vertex 3 0.7625 -4
       vertex 3 0.7625 8
       vertex 4 1.525 8
    endloop
  endfacet
  facet normal -0.606343 0.795203 0
    outer loop
       vertex 4 1.525 8
       vertex 4 1.525 -4
       vertex 3 0.7625 -4
    endloop
  endfacet
  facet normal 0.231072 -0.972937 0
    outer loop
       vertex 3 1.2875 -4
       vertex 4 1.525 -4
       vertex 4 1.525 8
    endloop
  endfacet
  facet normal 0.231072 -0.972937 0
    outer loop
       vertex 4 1.525 8
       vertex 3 1.2875 8
       vertex 3 1.2875 -4
    endloop
  endfacet
endsolid oldInternalFaces
