solid cube.tri
  facet normal 1 0 0
    outer loop
      vertex 1.0 0.0 0.0
      vertex 1.0 00.00 0.0
      vertex 1.0 00.00 00.00
    endloop
  endfacet
  facet normal 1 0 0
    outer loop
      vertex 1.0 0.0 00.00
      vertex 1.0 0.0 0.0
      vertex 1.0 00.00 00.00
    endloop
  endfacet
  facet normal 1 0 0
    outer loop
      vertex 1.0 0.0 0.0
      vertex 1.0 00.00 1.0
      vertex 1.0 00.00 0.0
    endloop
  endfacet
  facet normal 1 0 0
    outer loop
      vertex 1.0 0.0 1.0
      vertex 1.0 00.00 1.0
      vertex 1.0 0.0 0.0
    endloop
  endfacet
  facet normal 1 0 0
    outer loop
      vertex 1.0 1.0 00.00
      vertex 1.0 0.0 0.0
      vertex 1.0 0.0 00.00
    endloop
  endfacet
  facet normal 1 0 0
    outer loop
      vertex 1.0 1.0 0.0
      vertex 1.0 0.0 0.0
      vertex 1.0 1.0 00.00
    endloop
  endfacet
  facet normal 1 0 0
    outer loop
      vertex 1.0 1.0 1.0
      vertex 1.0 0.0 1.0
      vertex 1.0 0.0 0.0
    endloop
  endfacet
  facet normal 1 0 0
    outer loop
      vertex 1.0 1.0 0.0
      vertex 1.0 1.0 1.0
      vertex 1.0 0.0 0.0
    endloop
  endfacet
  facet normal -1 0 0
    outer loop
      vertex 00.00 0.0 0.0
      vertex 00.00 0.0 1.0
      vertex 00.00 1.0 1.0
    endloop
  endfacet
  facet normal -1 0 0
    outer loop
      vertex 00.00 1.0 0.0
      vertex 00.00 0.0 0.0
      vertex 00.00 1.0 1.0
    endloop
  endfacet
  facet normal -1 0 0
    outer loop
      vertex 00.00 0.0 0.0
      vertex 00.00 00.00 1.0
      vertex 00.00 0.0 1.0
    endloop
  endfacet
  facet normal -1 0 0
    outer loop
      vertex 00.00 00.00 0.0
      vertex 00.00 00.00 1.0
      vertex 00.00 0.0 0.0
    endloop
  endfacet
  facet normal -1 0 0
    outer loop
      vertex 00.00 1.0 00.00
      vertex 00.00 0.0 0.0
      vertex 00.00 1.0 0.0
    endloop
  endfacet
  facet normal -1 0 0
    outer loop
      vertex 00.00 0.0 00.00
      vertex 00.00 0.0 0.0
      vertex 00.00 1.0 00.00
    endloop
  endfacet
  facet normal -1 0 0
    outer loop
      vertex 00.00 00.00 00.00
      vertex 00.00 00.00 0.0
      vertex 00.00 0.0 0.0
    endloop
  endfacet
  facet normal -1 0 0
    outer loop
      vertex 00.00 0.0 00.00
      vertex 00.00 00.00 00.00
      vertex 00.00 0.0 0.0
    endloop
  endfacet
  facet normal 0 1 0
    outer loop
      vertex 0.0 1.0 0.0
      vertex 0.0 1.0 00.00
      vertex 00.00 1.0 00.00
    endloop
  endfacet
  facet normal 0 1 0
    outer loop
      vertex 00.00 1.0 0.0
      vertex 0.0 1.0 0.0
      vertex 00.00 1.0 00.00
    endloop
  endfacet
  facet normal 0 1 0
    outer loop
      vertex 0.0 1.0 0.0
      vertex 1.0 1.0 00.00
      vertex 0.0 1.0 00.00
    endloop
  endfacet
  facet normal 0 1 0
    outer loop
      vertex 1.0 1.0 0.0
      vertex 1.0 1.0 00.00
      vertex 0.0 1.0 0.0
    endloop
  endfacet
  facet normal 0 1 0
    outer loop
      vertex 00.00 1.0 1.0
      vertex 0.0 1.0 0.0
      vertex 00.00 1.0 0.0
    endloop
  endfacet
  facet normal 0 1 0
    outer loop
      vertex 0.0 1.0 1.0
      vertex 0.0 1.0 0.0
      vertex 00.00 1.0 1.0
    endloop
  endfacet
  facet normal 0 1 0
    outer loop
      vertex 1.0 1.0 1.0
      vertex 1.0 1.0 0.0
      vertex 0.0 1.0 0.0
    endloop
  endfacet
  facet normal 0 1 0
    outer loop
      vertex 0.0 1.0 1.0
      vertex 1.0 1.0 1.0
      vertex 0.0 1.0 0.0
    endloop
  endfacet
  facet normal 0 -1 0
    outer loop
      vertex 0.0 00.00 0.0
      vertex 1.0 00.00 0.0
      vertex 1.0 00.00 1.0
    endloop
  endfacet
  facet normal 0 -1 0
    outer loop
      vertex 0.0 00.00 1.0
      vertex 0.0 00.00 0.0
      vertex 1.0 00.00 1.0
    endloop
  endfacet
  facet normal 0 -1 0
    outer loop
      vertex 0.0 00.00 0.0
      vertex 1.0 00.00 00.00
      vertex 1.0 00.00 0.0
    endloop
  endfacet
  facet normal 0 -1 0
    outer loop
      vertex 0.0 00.00 00.00
      vertex 1.0 00.00 00.00
      vertex 0.0 00.00 0.0
    endloop
  endfacet
  facet normal 0 -1 0
    outer loop
      vertex 00.00 00.00 1.0
      vertex 0.0 00.00 0.0
      vertex 0.0 00.00 1.0
    endloop
  endfacet
  facet normal 0 -1 0
    outer loop
      vertex 00.00 00.00 0.0
      vertex 0.0 00.00 0.0
      vertex 00.00 00.00 1.0
    endloop
  endfacet
  facet normal 0 -1 0
    outer loop
      vertex 00.00 00.00 00.00
      vertex 0.0 00.00 00.00
      vertex 0.0 00.00 0.0
    endloop
  endfacet
  facet normal 0 -1 0
    outer loop
      vertex 00.00 00.00 0.0
      vertex 00.00 00.00 00.00
      vertex 0.0 00.00 0.0
    endloop
  endfacet
  facet normal 0 0 1
    outer loop
      vertex 0.0 0.0 1.0
      vertex 00.00 0.0 1.0
      vertex 00.00 00.00 1.0
    endloop
  endfacet
  facet normal 0 0 1
    outer loop
      vertex 0.0 00.00 1.0
      vertex 0.0 0.0 1.0
      vertex 00.00 00.00 1.0
    endloop
  endfacet
  facet normal 0 0 1
    outer loop
      vertex 0.0 0.0 1.0
      vertex 00.00 1.0 1.0
      vertex 00.00 0.0 1.0
    endloop
  endfacet
  facet normal 0 0 1
    outer loop
      vertex 0.0 1.0 1.0
      vertex 00.00 1.0 1.0
      vertex 0.0 0.0 1.0
    endloop
  endfacet
  facet normal 0 0 1
    outer loop
      vertex 1.0 00.00 1.0
      vertex 0.0 0.0 1.0
      vertex 0.0 00.00 1.0
    endloop
  endfacet
  facet normal 0 0 1
    outer loop
      vertex 1.0 0.0 1.0
      vertex 0.0 0.0 1.0
      vertex 1.0 00.00 1.0
    endloop
  endfacet
  facet normal 0 0 1
    outer loop
      vertex 1.0 1.0 1.0
      vertex 0.0 1.0 1.0
      vertex 0.0 0.0 1.0
    endloop
  endfacet
  facet normal 0 0 1
    outer loop
      vertex 1.0 0.0 1.0
      vertex 1.0 1.0 1.0
      vertex 0.0 0.0 1.0
    endloop
  endfacet
  facet normal 0 0 -1
    outer loop
      vertex 0.0 0.0 00.00
      vertex 0.0 1.0 00.00
      vertex 1.0 1.0 00.00
    endloop
  endfacet
  facet normal 0 0 -1
    outer loop
      vertex 1.0 0.0 00.00
      vertex 0.0 0.0 00.00
      vertex 1.0 1.0 00.00
    endloop
  endfacet
  facet normal 0 0 -1
    outer loop
      vertex 0.0 0.0 00.00
      vertex 00.00 1.0 00.00
      vertex 0.0 1.0 00.00
    endloop
  endfacet
  facet normal 0 0 -1
    outer loop
      vertex 00.00 0.0 00.00
      vertex 00.00 1.0 00.00
      vertex 0.0 0.0 00.00
    endloop
  endfacet
  facet normal 0 0 -1
    outer loop
      vertex 1.0 00.00 00.00
      vertex 0.0 0.0 00.00
      vertex 1.0 0.0 00.00
    endloop
  endfacet
  facet normal 0 0 -1
    outer loop
      vertex 0.0 00.00 00.00
      vertex 0.0 0.0 00.00
      vertex 1.0 00.00 00.00
    endloop
  endfacet
  facet normal 0 0 -1
    outer loop
      vertex 00.00 00.00 00.00
      vertex 00.00 0.0 00.00
      vertex 0.0 0.0 00.00
    endloop
  endfacet
  facet normal 0 0 -1
    outer loop
      vertex 0.0 00.00 00.00
      vertex 00.00 00.00 00.00
      vertex 0.0 0.0 00.00
    endloop
  endfacet
endsolid /users/vis/dru/cube.tri
