solid cube.tri
  facet normal 0.393919 0.919145 0
    outer loop
       vertex -0.4 1 0.5
       vertex 0.3 0.7 0.5
       vertex 0.3 0.7 -0.5
    endloop
  endfacet
  facet normal 0.393919 0.919145 -0
    outer loop
       vertex -0.4 1 -0.5
       vertex -0.4 1 0.5
       vertex 0.3 0.7 -0.5
    endloop
  endfacet
  facet normal -0.393919 -0.919145 0
    outer loop
       vertex 0 0 -0.5
       vertex 0 0 0.5
       vertex -0.7 0.3 0.5
    endloop
  endfacet
  facet normal -0.393919 -0.919145 0
    outer loop
       vertex -0.7 0.3 -0.5
       vertex 0 0 -0.5
       vertex -0.7 0.3 0.5
    endloop
  endfacet
  facet normal -0.919145 0.393919 0
    outer loop
       vertex -0.4 1 0.5
       vertex -0.4 1 -0.5
       vertex -0.7 0.3 -0.5
    endloop
  endfacet
  facet normal -0.919145 0.393919 0
    outer loop
       vertex -0.7 0.3 0.5
       vertex -0.4 1 0.5
       vertex -0.7 0.3 -0.5
    endloop
  endfacet
  facet normal 0.919145 -0.393919 0
    outer loop
       vertex 0 0 -0.5
       vertex 0.3 0.7 -0.5
       vertex 0.3 0.7 0.5
    endloop
  endfacet
  facet normal 0.919145 -0.393919 0
    outer loop
       vertex 0 0 0.5
       vertex 0 0 -0.5
       vertex 0.3 0.7 0.5
    endloop
  endfacet
  facet normal 0 0 1
    outer loop
       vertex -0.4 1 0.5
       vertex -0.7 0.3 0.5
       vertex 0 0 0.5
    endloop
  endfacet
  facet normal 0 0 1
    outer loop
       vertex 0.3 0.7 0.5
       vertex -0.4 1 0.5
       vertex 0 0 0.5
    endloop
  endfacet
  facet normal 0 0 -1
    outer loop
       vertex 0 0 -0.5
       vertex -0.7 0.3 -0.5
       vertex -0.4 1 -0.5
    endloop
  endfacet
  facet normal -0 0 -1
    outer loop
       vertex 0.3 0.7 -0.5
       vertex 0 0 -0.5
       vertex -0.4 1 -0.5
    endloop
  endfacet
endsolid cube.tri
