/* XPM */
static char*mini[]={
"16 16 8 1",
"c c #c0c0c0",
"a c #808000",
"d c #404000",
"b c #000000",
"# c #303030",
". c None",
"f c #a0a0a4",
"e c #ffffff",
"................",
".......###......",
"......#aaabb....",
".....baaaaaabb..",
"....baaaaaaaaabb",
"...baaaaaaaaaab.",
"..baaaaaaaaaabc.",
".baaaaaaaaaabccb",
"baaaaaaaaaabccb.",
"bbdaaaaaaabccb..",
"becbdaaaabccb...",
"beeecbdabccb....",
".bbeeecbccb.....",
"...bbeefcb......",
".....bbfb.......",
".......b........"};
