solid front
  facet normal 3.583679546e-01 -8.715724091e-01 -3.345653072e-01
    outer loop
      vertex   -1.335615450e-01 -2.709349080e-01 -1.049146705e-01
      vertex   -9.004364272e-02 -2.280802520e-01 -1.699408810e-01
      vertex   -3.258745497e-02 -2.469696172e-01 -5.918849519e-02
    endloop
  endfacet
  facet normal 3.583679546e-01 -8.715724091e-01 -3.345653072e-01
    outer loop
      vertex   -1.335615450e-01 -2.709349080e-01 -1.049146705e-01
      vertex   -2.167902123e-01 -2.756321867e-01 -1.818278118e-01
      vertex   -9.004364272e-02 -2.280802520e-01 -1.699408810e-01
    endloop
  endfacet
  facet normal 3.583679546e-01 -8.715724091e-01 -3.345653072e-01
    outer loop
      vertex   -1.307017458e-01 -3.005281995e-01 -2.475825208e-02
      vertex   -1.335615450e-01 -2.709349080e-01 -1.049146705e-01
      vertex   -3.258745497e-02 -2.469696172e-01 -5.918849519e-02
    endloop
  endfacet
  facet normal 3.583679546e-01 -8.715724091e-01 -3.345653072e-01
    outer loop
      vertex   -9.004364272e-02 -2.280802520e-01 -1.699408810e-01
      vertex   1.382359636e-02 -1.917504566e-01 -1.533263589e-01
      vertex   -3.258745497e-02 -2.469696172e-01 -5.918849519e-02
    endloop
  endfacet
  facet normal 3.583679546e-01 -8.715724091e-01 -3.345653072e-01
    outer loop
      vertex   -2.167902123e-01 -3.114689821e-01 -8.846976932e-02
      vertex   -2.167902123e-01 -2.756321867e-01 -1.818278118e-01
      vertex   -1.335615450e-01 -2.709349080e-01 -1.049146705e-01
    endloop
  endfacet
  facet normal 3.583679546e-01 -8.715724091e-01 -3.345653072e-01
    outer loop
      vertex   -1.234321698e-01 -2.063388605e-01 -2.623430951e-01
      vertex   -9.004364272e-02 -2.280802520e-01 -1.699408810e-01
      vertex   -2.167902123e-01 -2.756321867e-01 -1.818278118e-01
    endloop
  endfacet
  facet normal 3.583679546e-01 -8.715724091e-01 -3.345653072e-01
    outer loop
      vertex   -1.335615450e-01 -2.709349080e-01 -1.049146705e-01
      vertex   -1.307017458e-01 -3.005281995e-01 -2.475825208e-02
      vertex   -2.167902123e-01 -3.114689821e-01 -8.846976932e-02
    endloop
  endfacet
  facet normal 3.583679546e-01 -8.715724091e-01 -3.345653072e-01
    outer loop
      vertex   -4.864125340e-02 -2.940420875e-01 4.624353456e-02
      vertex   -1.307017458e-01 -3.005281995e-01 -2.475825208e-02
      vertex   -3.258745497e-02 -2.469696172e-01 -5.918849519e-02
    endloop
  endfacet
  facet normal 3.583679546e-01 -8.715724091e-01 -3.345653072e-01
    outer loop
      vertex   1.382359636e-02 -1.917504566e-01 -1.533263589e-01
      vertex   -9.004364272e-02 -2.280802520e-01 -1.699408810e-01
      vertex   -3.007412737e-02 -1.728823298e-01 -2.495003361e-01
    endloop
  endfacet
  facet normal 3.583679546e-01 -8.715724091e-01 -3.345653072e-01
    outer loop
      vertex   7.826567580e-02 -1.997940676e-01 -6.334522531e-02
      vertex   -3.258745497e-02 -2.469696172e-01 -5.918849519e-02
      vertex   1.382359636e-02 -1.917504566e-01 -1.533263589e-01
    endloop
  endfacet
  facet normal 3.583679546e-01 -8.715724091e-01 -3.345653072e-01
    outer loop
      vertex   -1.234321698e-01 -2.063388605e-01 -2.623430951e-01
      vertex   -3.007412737e-02 -1.728823298e-01 -2.495003361e-01
      vertex   -9.004364272e-02 -2.280802520e-01 -1.699408810e-01
    endloop
  endfacet
  facet normal 3.583679546e-01 -8.715724091e-01 -3.345653072e-01
    outer loop
      vertex   -2.167902123e-01 -2.397953912e-01 -2.751858542e-01
      vertex   -1.234321698e-01 -2.063388605e-01 -2.623430951e-01
      vertex   -2.167902123e-01 -2.756321867e-01 -1.818278118e-01
    endloop
  endfacet
  facet normal 3.583679546e-01 -8.715724091e-01 -3.345653072e-01
    outer loop
      vertex   -2.167902123e-01 -3.473057776e-01 4.888273140e-03
      vertex   -2.167902123e-01 -3.114689821e-01 -8.846976932e-02
      vertex   -1.307017458e-01 -3.005281995e-01 -2.475825208e-02
    endloop
  endfacet
  facet normal 3.583679546e-01 -8.715724091e-01 -3.345653072e-01
    outer loop
      vertex   -1.401907376e-01 -3.386689611e-01 6.443774118e-02
      vertex   -1.307017458e-01 -3.005281995e-01 -2.475825208e-02
      vertex   -4.864125340e-02 -2.940420875e-01 4.624353456e-02
    endloop
  endfacet
  facet normal 3.583679546e-01 -8.715724091e-01 -3.345653072e-01
    outer loop
      vertex   -4.864125340e-02 -2.940420875e-01 4.624353456e-02
      vertex   -3.258745497e-02 -2.469696172e-01 -5.918849519e-02
      vertex   6.112665772e-02 -2.476751162e-01 4.303079551e-02
    endloop
  endfacet
  facet normal 3.583679546e-01 -8.715724091e-01 -3.345653072e-01
    outer loop
      vertex   -3.007412737e-02 -1.728823298e-01 -2.495003361e-01
      vertex   6.328391509e-02 -1.394257991e-01 -2.366575770e-01
      vertex   1.382359636e-02 -1.917504566e-01 -1.533263589e-01
    endloop
  endfacet
  facet normal 3.583679546e-01 -8.715724091e-01 -3.345653072e-01
    outer loop
      vertex   1.382359636e-02 -1.917504566e-01 -1.533263589e-01
      vertex   1.083988586e-01 -1.532232091e-01 -1.523894496e-01
      vertex   7.826567580e-02 -1.997940676e-01 -6.334522531e-02
    endloop
  endfacet
  facet normal 3.583679546e-01 -8.715724091e-01 -3.345653072e-01
    outer loop
      vertex   -3.258745497e-02 -2.469696172e-01 -5.918849519e-02
      vertex   7.826567580e-02 -1.997940676e-01 -6.334522531e-02
      vertex   6.112665772e-02 -2.476751162e-01 4.303079551e-02
    endloop
  endfacet
  facet normal 3.583679546e-01 -8.715724091e-01 -3.345653072e-01
    outer loop
      vertex   -1.307017458e-01 -3.005281995e-01 -2.475825208e-02
      vertex   -1.401907376e-01 -3.386689611e-01 6.443774118e-02
      vertex   -2.167902123e-01 -3.473057776e-01 4.888273140e-03
    endloop
  endfacet
  facet normal 3.583679546e-01 -8.715724091e-01 -3.345653072e-01
    outer loop
      vertex   -7.794865158e-02 -3.398901392e-01 1.342893180e-01
      vertex   -1.401907376e-01 -3.386689611e-01 6.443774118e-02
      vertex   -4.864125340e-02 -2.940420875e-01 4.624353456e-02
    endloop
  endfacet
  facet normal 3.583679546e-01 -8.715724091e-01 -3.345653072e-01
    outer loop
      vertex   -4.864125340e-02 -2.940420875e-01 4.624353456e-02
      vertex   6.112665772e-02 -2.476751162e-01 4.303079551e-02
      vertex   1.315185822e-02 -3.025061315e-01 1.344825051e-01
    endloop
  endfacet
  facet normal 3.583679546e-01 -8.715724091e-01 -3.345653072e-01
    outer loop
      vertex   1.083988586e-01 -1.532232091e-01 -1.523894496e-01
      vertex   1.382359636e-02 -1.917504566e-01 -1.533263589e-01
      vertex   6.328391509e-02 -1.394257991e-01 -2.366575770e-01
    endloop
  endfacet
  facet normal 3.583679546e-01 -8.715724091e-01 -3.345653072e-01
    outer loop
      vertex   1.083988586e-01 -1.532232091e-01 -1.523894496e-01
      vertex   1.706648153e-01 -1.544307189e-01 -8.254791097e-02
      vertex   7.826567580e-02 -1.997940676e-01 -6.334522531e-02
    endloop
  endfacet
  facet normal 3.583679546e-01 -8.715724091e-01 -3.345653072e-01
    outer loop
      vertex   6.112665772e-02 -2.476751162e-01 4.303079551e-02
      vertex   7.826567580e-02 -1.997940676e-01 -6.334522531e-02
      vertex   1.599692506e-01 -1.931347359e-01 6.822998139e-03
    endloop
  endfacet
  facet normal 3.583679546e-01 -8.715724091e-01 -3.345653072e-01
    outer loop
      vertex   -2.167902123e-01 -3.831425731e-01 9.824631560e-02
      vertex   -2.167902123e-01 -3.473057776e-01 4.888273140e-03
      vertex   -1.401907376e-01 -3.386689611e-01 6.443774118e-02
    endloop
  endfacet
  facet normal 3.583679546e-01 -8.715724091e-01 -3.345653072e-01
    outer loop
      vertex   -7.794865158e-02 -3.398901392e-01 1.342893180e-01
      vertex   -1.558961807e-01 -3.738330322e-01 1.392204700e-01
      vertex   -1.401907376e-01 -3.386689611e-01 6.443774118e-02
    endloop
  endfacet
  facet normal 3.583679546e-01 -8.715724091e-01 -3.345653072e-01
    outer loop
      vertex   1.315185822e-02 -3.025061315e-01 1.344825051e-01
      vertex   -7.794865158e-02 -3.398901392e-01 1.342893180e-01
      vertex   -4.864125340e-02 -2.940420875e-01 4.624353456e-02
    endloop
  endfacet
  facet normal 3.583679546e-01 -8.715724091e-01 -3.345653072e-01
    outer loop
      vertex   1.042442829e-01 -2.716907463e-01 1.517788782e-01
      vertex   1.315185822e-02 -3.025061315e-01 1.344825051e-01
      vertex   6.112665772e-02 -2.476751162e-01 4.303079551e-02
    endloop
  endfacet
  facet normal 3.583679546e-01 -8.715724091e-01 -3.345653072e-01
    outer loop
      vertex   6.328391509e-02 -1.394257991e-01 -2.366575770e-01
      vertex   1.566419575e-01 -1.059692683e-01 -2.238148179e-01
      vertex   1.083988586e-01 -1.532232091e-01 -1.523894496e-01
    endloop
  endfacet
  facet normal 3.583679546e-01 -8.715724091e-01 -3.345653072e-01
    outer loop
      vertex   1.083988586e-01 -1.532232091e-01 -1.523894496e-01
      vertex   1.883988905e-01 -1.178809559e-01 -1.587675315e-01
      vertex   1.706648153e-01 -1.544307189e-01 -8.254791097e-02
    endloop
  endfacet
  facet normal 3.583679546e-01 -8.715724091e-01 -3.345653072e-01
    outer loop
      vertex   1.706648153e-01 -1.544307189e-01 -8.254791097e-02
      vertex   1.599692506e-01 -1.931347359e-01 6.822998139e-03
      vertex   7.826567580e-02 -1.997940676e-01 -6.334522531e-02
    endloop
  endfacet
  facet normal 3.583679546e-01 -8.715724091e-01 -3.345653072e-01
    outer loop
      vertex   1.599692506e-01 -1.931347359e-01 6.822998139e-03
      vertex   1.654905324e-01 -2.264766419e-01 9.959572474e-02
      vertex   6.112665772e-02 -2.476751162e-01 4.303079551e-02
    endloop
  endfacet
  facet normal 3.583679546e-01 -8.715724091e-01 -3.345653072e-01
    outer loop
      vertex   -1.558961807e-01 -3.738330322e-01 1.392204700e-01
      vertex   -2.167902123e-01 -3.831425731e-01 9.824631560e-02
      vertex   -1.401907376e-01 -3.386689611e-01 6.443774118e-02
    endloop
  endfacet
  facet normal 3.583679546e-01 -8.715724091e-01 -3.345653072e-01
    outer loop
      vertex   -1.558961807e-01 -3.738330322e-01 1.392204700e-01
      vertex   -7.794865158e-02 -3.398901392e-01 1.342893180e-01
      vertex   -1.234321698e-01 -3.855228378e-01 2.044471171e-01
    endloop
  endfacet
  facet normal 3.583679546e-01 -8.715724091e-01 -3.345653072e-01
    outer loop
      vertex   -7.794865158e-02 -3.398901392e-01 1.342893180e-01
      vertex   1.315185822e-02 -3.025061315e-01 1.344825051e-01
      vertex   -3.007412737e-02 -3.520663071e-01 2.172898762e-01
    endloop
  endfacet
  facet normal 3.583679546e-01 -8.715724091e-01 -3.345653072e-01
    outer loop
      vertex   1.315185822e-02 -3.025061315e-01 1.344825051e-01
      vertex   1.042442829e-01 -2.716907463e-01 1.517788782e-01
      vertex   6.328391509e-02 -3.186097764e-01 2.301326353e-01
    endloop
  endfacet
  facet normal 3.583679546e-01 -8.715724091e-01 -3.345653072e-01
    outer loop
      vertex   1.654905324e-01 -2.264766419e-01 9.959572474e-02
      vertex   1.042442829e-01 -2.716907463e-01 1.517788782e-01
      vertex   6.112665772e-02 -2.476751162e-01 4.303079551e-02
    endloop
  endfacet
  facet normal 3.583679546e-01 -8.715724091e-01 -3.345653072e-01
    outer loop
      vertex   1.883988905e-01 -1.178809559e-01 -1.587675315e-01
      vertex   1.083988586e-01 -1.532232091e-01 -1.523894496e-01
      vertex   1.566419575e-01 -1.059692683e-01 -2.238148179e-01
    endloop
  endfacet
  facet normal 3.583679546e-01 -8.715724091e-01 -3.345653072e-01
    outer loop
      vertex   1.883988905e-01 -1.178809559e-01 -1.587675315e-01
      vertex   2.500000000e-01 -1.083495331e-01 -1.176140163e-01
      vertex   1.706648153e-01 -1.544307189e-01 -8.254791097e-02
    endloop
  endfacet
  facet normal 3.583679546e-01 -8.715724091e-01 -3.345653072e-01
    outer loop
      vertex   1.599692506e-01 -1.931347359e-01 6.822998139e-03
      vertex   1.706648153e-01 -1.544307189e-01 -8.254791097e-02
      vertex   2.500000000e-01 -1.441863285e-01 -2.425597387e-02
    endloop
  endfacet
  facet normal 3.583679546e-01 -8.715724091e-01 -3.345653072e-01
    outer loop
      vertex   1.654905324e-01 -2.264766419e-01 9.959572474e-02
      vertex   1.599692506e-01 -1.931347359e-01 6.822998139e-03
      vertex   2.500000000e-01 -1.800231240e-01 6.910206858e-02
    endloop
  endfacet
  facet normal 3.583679546e-01 -8.715724091e-01 -3.345653072e-01
    outer loop
      vertex   -1.558961807e-01 -3.738330322e-01 1.392204700e-01
      vertex   -2.167902123e-01 -4.189793685e-01 1.916043581e-01
      vertex   -2.167902123e-01 -3.831425731e-01 9.824631560e-02
    endloop
  endfacet
  facet normal 3.583679546e-01 -8.715724091e-01 -3.345653072e-01
    outer loop
      vertex   -1.234321698e-01 -3.855228378e-01 2.044471171e-01
      vertex   -2.167902123e-01 -4.189793685e-01 1.916043581e-01
      vertex   -1.558961807e-01 -3.738330322e-01 1.392204700e-01
    endloop
  endfacet
  facet normal 3.583679546e-01 -8.715724091e-01 -3.345653072e-01
    outer loop
      vertex   -3.007412737e-02 -3.520663071e-01 2.172898762e-01
      vertex   -1.234321698e-01 -3.855228378e-01 2.044471171e-01
      vertex   -7.794865158e-02 -3.398901392e-01 1.342893180e-01
    endloop
  endfacet
  facet normal 3.583679546e-01 -8.715724091e-01 -3.345653072e-01
    outer loop
      vertex   6.328391509e-02 -3.186097764e-01 2.301326353e-01
      vertex   -3.007412737e-02 -3.520663071e-01 2.172898762e-01
      vertex   1.315185822e-02 -3.025061315e-01 1.344825051e-01
    endloop
  endfacet
  facet normal 3.583679546e-01 -8.715724091e-01 -3.345653072e-01
    outer loop
      vertex   1.566419575e-01 -2.851532456e-01 2.429753944e-01
      vertex   6.328391509e-02 -3.186097764e-01 2.301326353e-01
      vertex   1.042442829e-01 -2.716907463e-01 1.517788782e-01
    endloop
  endfacet
  facet normal 3.583679546e-01 -8.715724091e-01 -3.345653072e-01
    outer loop
      vertex   1.654905324e-01 -2.264766419e-01 9.959572474e-02
      vertex   1.871144219e-01 -2.502211161e-01 1.846145150e-01
      vertex   1.042442829e-01 -2.716907463e-01 1.517788782e-01
    endloop
  endfacet
  facet normal 3.583679546e-01 -8.715724091e-01 -3.345653072e-01
    outer loop
      vertex   1.566419575e-01 -1.059692683e-01 -2.238148179e-01
      vertex   2.500000000e-01 -7.251273762e-02 -2.109720588e-01
      vertex   1.883988905e-01 -1.178809559e-01 -1.587675315e-01
    endloop
  endfacet
  facet normal 3.583679546e-01 -8.715724091e-01 -3.345653072e-01
    outer loop
      vertex   1.883988905e-01 -1.178809559e-01 -1.587675315e-01
      vertex   2.500000000e-01 -7.251273762e-02 -2.109720588e-01
      vertex   2.500000000e-01 -1.083495331e-01 -1.176140163e-01
    endloop
  endfacet
  facet normal 3.583679546e-01 -8.715724091e-01 -3.345653072e-01
    outer loop
      vertex   2.500000000e-01 -1.083495331e-01 -1.176140163e-01
      vertex   2.500000000e-01 -1.441863285e-01 -2.425597387e-02
      vertex   1.706648153e-01 -1.544307189e-01 -8.254791097e-02
    endloop
  endfacet
  facet normal 3.583679546e-01 -8.715724091e-01 -3.345653072e-01
    outer loop
      vertex   2.500000000e-01 -1.441863285e-01 -2.425597387e-02
      vertex   2.500000000e-01 -1.800231240e-01 6.910206858e-02
      vertex   1.599692506e-01 -1.931347359e-01 6.822998139e-03
    endloop
  endfacet
  facet normal 3.583679546e-01 -8.715724091e-01 -3.345653072e-01
    outer loop
      vertex   2.500000000e-01 -1.800231240e-01 6.910206858e-02
      vertex   2.500000000e-01 -2.158599195e-01 1.624601110e-01
      vertex   1.654905324e-01 -2.264766419e-01 9.959572474e-02
    endloop
  endfacet
  facet normal 3.583679546e-01 -8.715724091e-01 -3.345653072e-01
    outer loop
      vertex   1.871144219e-01 -2.502211161e-01 1.846145150e-01
      vertex   1.566419575e-01 -2.851532456e-01 2.429753944e-01
      vertex   1.042442829e-01 -2.716907463e-01 1.517788782e-01
    endloop
  endfacet
  facet normal 3.583679546e-01 -8.715724091e-01 -3.345653072e-01
    outer loop
      vertex   1.871144219e-01 -2.502211161e-01 1.846145150e-01
      vertex   1.654905324e-01 -2.264766419e-01 9.959572474e-02
      vertex   2.500000000e-01 -2.158599195e-01 1.624601110e-01
    endloop
  endfacet
  facet normal 3.583679546e-01 -8.715724091e-01 -3.345653072e-01
    outer loop
      vertex   1.871144219e-01 -2.502211161e-01 1.846145150e-01
      vertex   2.500000000e-01 -2.516967149e-01 2.558181535e-01
      vertex   1.566419575e-01 -2.851532456e-01 2.429753944e-01
    endloop
  endfacet
  facet normal 3.583679546e-01 -8.715724091e-01 -3.345653072e-01
    outer loop
      vertex   2.500000000e-01 -2.158599195e-01 1.624601110e-01
      vertex   2.500000000e-01 -2.516967149e-01 2.558181535e-01
      vertex   1.871144219e-01 -2.502211161e-01 1.846145150e-01
    endloop
  endfacet
endsolid
solid rear
  facet normal -3.583679546e-01 8.715724091e-01 3.345653072e-01
    outer loop
      vertex   -1.537371646e-01 -2.302777261e-01 -7.434860182e-03
      vertex   -1.644327293e-01 -1.992396044e-01 -9.974843085e-02
      vertex   -2.437679140e-01 -2.458575898e-01 -6.328391509e-02
    endloop
  endfacet
  facet normal -3.583679546e-01 8.715724091e-01 3.345653072e-01
    outer loop
      vertex   -2.437679140e-01 -2.458575898e-01 -6.328391509e-02
      vertex   -2.437679140e-01 -2.816943852e-01 3.007412737e-02
      vertex   -1.537371646e-01 -2.302777261e-01 -7.434860182e-03
    endloop
  endfacet
  facet normal -3.583679546e-01 8.715724091e-01 3.345653072e-01
    outer loop
      vertex   -1.644327293e-01 -1.992396044e-01 -9.974843085e-02
      vertex   -1.537371646e-01 -2.302777261e-01 -7.434860182e-03
      vertex   -7.203358980e-02 -1.783771718e-01 -5.512404915e-02
    endloop
  endfacet
  facet normal -3.583679546e-01 8.715724091e-01 3.345653072e-01
    outer loop
      vertex   -2.437679140e-01 -2.100207943e-01 -1.566419575e-01
      vertex   -2.437679140e-01 -2.458575898e-01 -6.328391509e-02
      vertex   -1.644327293e-01 -1.992396044e-01 -9.974843085e-02
    endloop
  endfacet
  facet normal -3.583679546e-01 8.715724091e-01 3.345653072e-01
    outer loop
      vertex   -1.592584464e-01 -2.675769330e-01 8.381880090e-02
      vertex   -1.537371646e-01 -2.302777261e-01 -7.434860182e-03
      vertex   -2.437679140e-01 -2.816943852e-01 3.007412737e-02
    endloop
  endfacet
  facet normal -3.583679546e-01 8.715724091e-01 3.345653072e-01
    outer loop
      vertex   -1.021667726e-01 -1.534038475e-01 -1.524587902e-01
      vertex   -1.644327293e-01 -1.992396044e-01 -9.974843085e-02
      vertex   -7.203358980e-02 -1.783771718e-01 -5.512404915e-02
    endloop
  endfacet
  facet normal -3.583679546e-01 8.715724091e-01 3.345653072e-01
    outer loop
      vertex   -5.489457172e-02 -2.139740708e-01 5.596741502e-02
      vertex   -7.203358980e-02 -1.783771718e-01 -5.512404915e-02
      vertex   -1.537371646e-01 -2.302777261e-01 -7.434860182e-03
    endloop
  endfacet
  facet normal -3.583679546e-01 8.715724091e-01 3.345653072e-01
    outer loop
      vertex   -1.821668045e-01 -1.754004899e-01 -1.808472123e-01
      vertex   -2.437679140e-01 -2.100207943e-01 -1.566419575e-01
      vertex   -1.644327293e-01 -1.992396044e-01 -9.974843085e-02
    endloop
  endfacet
  facet normal -3.583679546e-01 8.715724091e-01 3.345653072e-01
    outer loop
      vertex   -2.437679140e-01 -2.816943852e-01 3.007412737e-02
      vertex   -2.437679140e-01 -3.175311807e-01 1.234321698e-01
      vertex   -1.592584464e-01 -2.675769330e-01 8.381880090e-02
    endloop
  endfacet
  facet normal -3.583679546e-01 8.715724091e-01 3.345653072e-01
    outer loop
      vertex   -1.537371646e-01 -2.302777261e-01 -7.434860182e-03
      vertex   -1.592584464e-01 -2.675769330e-01 8.381880090e-02
      vertex   -5.489457172e-02 -2.139740708e-01 5.596741502e-02
    endloop
  endfacet
  facet normal -3.583679546e-01 8.715724091e-01 3.345653072e-01
    outer loop
      vertex   -1.021667726e-01 -1.534038475e-01 -1.524587902e-01
      vertex   -1.821668045e-01 -1.754004899e-01 -1.808472123e-01
      vertex   -1.644327293e-01 -1.992396044e-01 -9.974843085e-02
    endloop
  endfacet
  facet normal -3.583679546e-01 8.715724091e-01 3.345653072e-01
    outer loop
      vertex   -7.591510362e-03 -1.241456084e-01 -1.273752887e-01
      vertex   -1.021667726e-01 -1.534038475e-01 -1.524587902e-01
      vertex   -7.203358980e-02 -1.783771718e-01 -5.512404915e-02
    endloop
  endfacet
  facet normal -3.583679546e-01 8.715724091e-01 3.345653072e-01
    outer loop
      vertex   3.881954097e-02 -1.461003020e-01 -2.046839220e-02
      vertex   -7.203358980e-02 -1.783771718e-01 -5.512404915e-02
      vertex   -5.489457172e-02 -2.139740708e-01 5.596741502e-02
    endloop
  endfacet
  facet normal -3.583679546e-01 8.715724091e-01 3.345653072e-01
    outer loop
      vertex   -1.821668045e-01 -1.754004899e-01 -1.808472123e-01
      vertex   -2.437679140e-01 -1.741839988e-01 -2.500000000e-01
      vertex   -2.437679140e-01 -2.100207943e-01 -1.566419575e-01
    endloop
  endfacet
  facet normal -3.583679546e-01 8.715724091e-01 3.345653072e-01
    outer loop
      vertex   -1.808823359e-01 -3.068200254e-01 1.628882290e-01
      vertex   -1.592584464e-01 -2.675769330e-01 8.381880090e-02
      vertex   -2.437679140e-01 -3.175311807e-01 1.234321698e-01
    endloop
  endfacet
  facet normal -3.583679546e-01 8.715724091e-01 3.345653072e-01
    outer loop
      vertex   -1.592584464e-01 -2.675769330e-01 8.381880090e-02
      vertex   -9.801219691e-02 -2.688936511e-01 1.528525825e-01
      vertex   -5.489457172e-02 -2.139740708e-01 5.596741502e-02
    endloop
  endfacet
  facet normal -3.583679546e-01 8.715724091e-01 3.345653072e-01
    outer loop
      vertex   -1.821668045e-01 -1.754004899e-01 -1.808472123e-01
      vertex   -1.021667726e-01 -1.534038475e-01 -1.524587902e-01
      vertex   -1.504098715e-01 -1.407274681e-01 -2.371572409e-01
    endloop
  endfacet
  facet normal -3.583679546e-01 8.715724091e-01 3.345653072e-01
    outer loop
      vertex   -1.021667726e-01 -1.534038475e-01 -1.524587902e-01
      vertex   -7.591510362e-03 -1.241456084e-01 -1.273752887e-01
      vertex   -5.705182909e-02 -1.072709374e-01 -2.243144818e-01
    endloop
  endfacet
  facet normal -3.583679546e-01 8.715724091e-01 3.345653072e-01
    outer loop
      vertex   -7.203358980e-02 -1.783771718e-01 -5.512404915e-02
      vertex   3.881954097e-02 -1.461003020e-01 -2.046839220e-02
      vertex   -7.591510362e-03 -1.241456084e-01 -1.273752887e-01
    endloop
  endfacet
  facet normal -3.583679546e-01 8.715724091e-01 3.345653072e-01
    outer loop
      vertex   5.487333940e-02 -1.816664384e-01 8.938050534e-02
      vertex   3.881954097e-02 -1.461003020e-01 -2.046839220e-02
      vertex   -5.489457172e-02 -2.139740708e-01 5.596741502e-02
    endloop
  endfacet
  facet normal -3.583679546e-01 8.715724091e-01 3.345653072e-01
    outer loop
      vertex   -1.504098715e-01 -1.407274681e-01 -2.371572409e-01
      vertex   -2.437679140e-01 -1.741839988e-01 -2.500000000e-01
      vertex   -1.821668045e-01 -1.754004899e-01 -1.808472123e-01
    endloop
  endfacet
  facet normal -3.583679546e-01 8.715724091e-01 3.345653072e-01
    outer loop
      vertex   -2.437679140e-01 -3.175311807e-01 1.234321698e-01
      vertex   -2.437679140e-01 -3.533679761e-01 2.167902123e-01
      vertex   -1.808823359e-01 -3.068200254e-01 1.628882290e-01
    endloop
  endfacet
  facet normal -3.583679546e-01 8.715724091e-01 3.345653072e-01
    outer loop
      vertex   -1.592584464e-01 -2.675769330e-01 8.381880090e-02
      vertex   -1.808823359e-01 -3.068200254e-01 1.628882290e-01
      vertex   -9.801219691e-02 -2.688936511e-01 1.528525825e-01
    endloop
  endfacet
  facet normal -3.583679546e-01 8.715724091e-01 3.345653072e-01
    outer loop
      vertex   -9.801219691e-02 -2.688936511e-01 1.528525825e-01
      vertex   -6.919772225e-03 -2.344198245e-01 1.606183901e-01
      vertex   -5.489457172e-02 -2.139740708e-01 5.596741502e-02
    endloop
  endfacet
  facet normal -3.583679546e-01 8.715724091e-01 3.345653072e-01
    outer loop
      vertex   -5.705182909e-02 -1.072709374e-01 -2.243144818e-01
      vertex   -1.504098715e-01 -1.407274681e-01 -2.371572409e-01
      vertex   -1.021667726e-01 -1.534038475e-01 -1.524587902e-01
    endloop
  endfacet
  facet normal -3.583679546e-01 8.715724091e-01 3.345653072e-01
    outer loop
      vertex   3.630621337e-02 -7.381440669e-02 -2.114717227e-01
      vertex   -5.705182909e-02 -1.072709374e-01 -2.243144818e-01
      vertex   -7.591510362e-03 -1.241456084e-01 -1.273752887e-01
    endloop
  endfacet
  facet normal -3.583679546e-01 8.715724091e-01 3.345653072e-01
    outer loop
      vertex   9.627572872e-02 -8.603002384e-02 -1.154129063e-01
      vertex   -7.591510362e-03 -1.241456084e-01 -1.273752887e-01
      vertex   3.881954097e-02 -1.461003020e-01 -2.046839220e-02
    endloop
  endfacet
  facet normal -3.583679546e-01 8.715724091e-01 3.345653072e-01
    outer loop
      vertex   5.487333940e-02 -1.816664384e-01 8.938050534e-02
      vertex   -5.489457172e-02 -2.139740708e-01 5.596741502e-02
      vertex   -6.919772225e-03 -2.344198245e-01 1.606183901e-01
    endloop
  endfacet
  facet normal -3.583679546e-01 8.715724091e-01 3.345653072e-01
    outer loop
      vertex   5.487333940e-02 -1.816664384e-01 8.938050534e-02
      vertex   1.369338318e-01 -1.293368488e-01 4.095595161e-02
      vertex   3.881954097e-02 -1.461003020e-01 -2.046839220e-02
    endloop
  endfacet
  facet normal -3.583679546e-01 8.715724091e-01 3.345653072e-01
    outer loop
      vertex   -1.808823359e-01 -3.068200254e-01 1.628882290e-01
      vertex   -2.437679140e-01 -3.533679761e-01 2.167902123e-01
      vertex   -1.504098715e-01 -3.199114454e-01 2.296329714e-01
    endloop
  endfacet
  facet normal -3.583679546e-01 8.715724091e-01 3.345653072e-01
    outer loop
      vertex   -1.808823359e-01 -3.068200254e-01 1.628882290e-01
      vertex   -1.504098715e-01 -3.199114454e-01 2.296329714e-01
      vertex   -9.801219691e-02 -2.688936511e-01 1.528525825e-01
    endloop
  endfacet
  facet normal -3.583679546e-01 8.715724091e-01 3.345653072e-01
    outer loop
      vertex   -6.919772225e-03 -2.344198245e-01 1.606183901e-01
      vertex   -9.801219691e-02 -2.688936511e-01 1.528525825e-01
      vertex   -5.705182909e-02 -2.864549147e-01 2.424757305e-01
    endloop
  endfacet
  facet normal -3.583679546e-01 8.715724091e-01 3.345653072e-01
    outer loop
      vertex   -7.591510362e-03 -1.241456084e-01 -1.273752887e-01
      vertex   9.627572872e-02 -8.603002384e-02 -1.154129063e-01
      vertex   3.630621337e-02 -7.381440669e-02 -2.114717227e-01
    endloop
  endfacet
  facet normal -3.583679546e-01 8.715724091e-01 3.345653072e-01
    outer loop
      vertex   1.397936310e-01 -9.769383653e-02 -3.841365269e-02
      vertex   9.627572872e-02 -8.603002384e-02 -1.154129063e-01
      vertex   3.881954097e-02 -1.461003020e-01 -2.046839220e-02
    endloop
  endfacet
  facet normal -3.583679546e-01 8.715724091e-01 3.345653072e-01
    outer loop
      vertex   -6.919772225e-03 -2.344198245e-01 1.606183901e-01
      vertex   8.418073758e-02 -2.065088255e-01 1.854896081e-01
      vertex   5.487333940e-02 -1.816664384e-01 8.938050534e-02
    endloop
  endfacet
  facet normal -3.583679546e-01 8.715724091e-01 3.345653072e-01
    outer loop
      vertex   1.464228236e-01 -1.606765092e-01 1.327626431e-01
      vertex   1.369338318e-01 -1.293368488e-01 4.095595161e-02
      vertex   5.487333940e-02 -1.816664384e-01 8.938050534e-02
    endloop
  endfacet
  facet normal -3.583679546e-01 8.715724091e-01 3.345653072e-01
    outer loop
      vertex   1.369338318e-01 -1.293368488e-01 4.095595161e-02
      vertex   1.397936310e-01 -9.769383653e-02 -3.841365269e-02
      vertex   3.881954097e-02 -1.461003020e-01 -2.046839220e-02
    endloop
  endfacet
  facet normal -3.583679546e-01 8.715724091e-01 3.345653072e-01
    outer loop
      vertex   -1.504098715e-01 -3.199114454e-01 2.296329714e-01
      vertex   -5.705182909e-02 -2.864549147e-01 2.424757305e-01
      vertex   -9.801219691e-02 -2.688936511e-01 1.528525825e-01
    endloop
  endfacet
  facet normal -3.583679546e-01 8.715724091e-01 3.345653072e-01
    outer loop
      vertex   -5.705182909e-02 -2.864549147e-01 2.424757305e-01
      vertex   3.630621337e-02 -2.529983840e-01 2.553184895e-01
      vertex   -6.919772225e-03 -2.344198245e-01 1.606183901e-01
    endloop
  endfacet
  facet normal -3.583679546e-01 8.715724091e-01 3.345653072e-01
    outer loop
      vertex   1.296642558e-01 -4.035787597e-02 -1.986289636e-01
      vertex   3.630621337e-02 -7.381440669e-02 -2.114717227e-01
      vertex   9.627572872e-02 -8.603002384e-02 -1.154129063e-01
    endloop
  endfacet
  facet normal -3.583679546e-01 8.715724091e-01 3.345653072e-01
    outer loop
      vertex   1.397936310e-01 -9.769383653e-02 -3.841365269e-02
      vertex   2.230222983e-01 -4.273814071e-02 -9.242816210e-02
      vertex   9.627572872e-02 -8.603002384e-02 -1.154129063e-01
    endloop
  endfacet
  facet normal -3.583679546e-01 8.715724091e-01 3.345653072e-01
    outer loop
      vertex   8.418073758e-02 -2.065088255e-01 1.854896081e-01
      vertex   -6.919772225e-03 -2.344198245e-01 1.606183901e-01
      vertex   3.630621337e-02 -2.529983840e-01 2.553184895e-01
    endloop
  endfacet
  facet normal -3.583679546e-01 8.715724091e-01 3.345653072e-01
    outer loop
      vertex   8.418073758e-02 -2.065088255e-01 1.854896081e-01
      vertex   1.464228236e-01 -1.606765092e-01 1.327626431e-01
      vertex   5.487333940e-02 -1.816664384e-01 8.938050534e-02
    endloop
  endfacet
  facet normal -3.583679546e-01 8.715724091e-01 3.345653072e-01
    outer loop
      vertex   1.369338318e-01 -1.293368488e-01 4.095595161e-02
      vertex   1.464228236e-01 -1.606765092e-01 1.327626431e-01
      vertex   2.230222983e-01 -1.144117316e-01 9.428792281e-02
    endloop
  endfacet
  facet normal -3.583679546e-01 8.715724091e-01 3.345653072e-01
    outer loop
      vertex   1.397936310e-01 -9.769383653e-02 -3.841365269e-02
      vertex   1.369338318e-01 -1.293368488e-01 4.095595161e-02
      vertex   2.230222983e-01 -7.857493617e-02 9.298803535e-04
    endloop
  endfacet
  facet normal -3.583679546e-01 8.715724091e-01 3.345653072e-01
    outer loop
      vertex   1.296642558e-01 -4.035787597e-02 -1.986289636e-01
      vertex   9.627572872e-02 -8.603002384e-02 -1.154129063e-01
      vertex   2.230222983e-01 -4.273814071e-02 -9.242816210e-02
    endloop
  endfacet
  facet normal -3.583679546e-01 8.715724091e-01 3.345653072e-01
    outer loop
      vertex   2.230222983e-01 -7.857493617e-02 9.298803535e-04
      vertex   2.230222983e-01 -4.273814071e-02 -9.242816210e-02
      vertex   1.397936310e-01 -9.769383653e-02 -3.841365269e-02
    endloop
  endfacet
  facet normal -3.583679546e-01 8.715724091e-01 3.345653072e-01
    outer loop
      vertex   3.630621337e-02 -2.529983840e-01 2.553184895e-01
      vertex   1.296642558e-01 -2.195418533e-01 2.681612486e-01
      vertex   8.418073758e-02 -2.065088255e-01 1.854896081e-01
    endloop
  endfacet
  facet normal -3.583679546e-01 8.715724091e-01 3.345653072e-01
    outer loop
      vertex   8.418073758e-02 -2.065088255e-01 1.854896081e-01
      vertex   1.621282667e-01 -1.845839253e-01 2.118663970e-01
      vertex   1.464228236e-01 -1.606765092e-01 1.327626431e-01
    endloop
  endfacet
  facet normal -3.583679546e-01 8.715724091e-01 3.345653072e-01
    outer loop
      vertex   2.230222983e-01 -1.144117316e-01 9.428792281e-02
      vertex   2.230222983e-01 -7.857493617e-02 9.298803535e-04
      vertex   1.369338318e-01 -1.293368488e-01 4.095595161e-02
    endloop
  endfacet
  facet normal -3.583679546e-01 8.715724091e-01 3.345653072e-01
    outer loop
      vertex   2.230222983e-01 -1.502485271e-01 1.876459653e-01
      vertex   2.230222983e-01 -1.144117316e-01 9.428792281e-02
      vertex   1.464228236e-01 -1.606765092e-01 1.327626431e-01
    endloop
  endfacet
  facet normal -3.583679546e-01 8.715724091e-01 3.345653072e-01
    outer loop
      vertex   2.230222983e-01 -6.901345246e-03 -1.857862046e-01
      vertex   1.296642558e-01 -4.035787597e-02 -1.986289636e-01
      vertex   2.230222983e-01 -4.273814071e-02 -9.242816210e-02
    endloop
  endfacet
  facet normal -3.583679546e-01 8.715724091e-01 3.345653072e-01
    outer loop
      vertex   1.621282667e-01 -1.845839253e-01 2.118663970e-01
      vertex   8.418073758e-02 -2.065088255e-01 1.854896081e-01
      vertex   1.296642558e-01 -2.195418533e-01 2.681612486e-01
    endloop
  endfacet
  facet normal -3.583679546e-01 8.715724091e-01 3.345653072e-01
    outer loop
      vertex   1.621282667e-01 -1.845839253e-01 2.118663970e-01
      vertex   2.230222983e-01 -1.502485271e-01 1.876459653e-01
      vertex   1.464228236e-01 -1.606765092e-01 1.327626431e-01
    endloop
  endfacet
  facet normal -3.583679546e-01 8.715724091e-01 3.345653072e-01
    outer loop
      vertex   1.296642558e-01 -2.195418533e-01 2.681612486e-01
      vertex   2.230222983e-01 -1.860853225e-01 2.810040077e-01
      vertex   1.621282667e-01 -1.845839253e-01 2.118663970e-01
    endloop
  endfacet
  facet normal -3.583679546e-01 8.715724091e-01 3.345653072e-01
    outer loop
      vertex   1.621282667e-01 -1.845839253e-01 2.118663970e-01
      vertex   2.230222983e-01 -1.860853225e-01 2.810040077e-01
      vertex   2.230222983e-01 -1.502485271e-01 1.876459653e-01
    endloop
  endfacet
endsolid
solid top
  facet normal -9.335804246e-01 -3.345653072e-01 -1.284275909e-01
    outer loop
      vertex   -2.167902123e-01 -2.397953912e-01 -2.751858542e-01
      vertex   -2.167902123e-01 -2.756321867e-01 -1.818278118e-01
      vertex   -2.437679140e-01 -2.100207943e-01 -1.566419575e-01
    endloop
  endfacet
  facet normal -9.335804246e-01 -3.345653072e-01 -1.284275909e-01
    outer loop
      vertex   -2.437679140e-01 -2.100207943e-01 -1.566419575e-01
      vertex   -2.437679140e-01 -1.741839988e-01 -2.500000000e-01
      vertex   -2.167902123e-01 -2.397953912e-01 -2.751858542e-01
    endloop
  endfacet
  facet normal -9.335804246e-01 -3.345653072e-01 -1.284275909e-01
    outer loop
      vertex   -2.437679140e-01 -2.458575898e-01 -6.328391509e-02
      vertex   -2.437679140e-01 -2.100207943e-01 -1.566419575e-01
      vertex   -2.167902123e-01 -2.756321867e-01 -1.818278118e-01
    endloop
  endfacet
  facet normal -9.335804246e-01 -3.345653072e-01 -1.284275909e-01
    outer loop
      vertex   -2.167902123e-01 -2.756321867e-01 -1.818278118e-01
      vertex   -2.167902123e-01 -3.114689821e-01 -8.846976932e-02
      vertex   -2.437679140e-01 -2.458575898e-01 -6.328391509e-02
    endloop
  endfacet
  facet normal -9.335804246e-01 -3.345653072e-01 -1.284275909e-01
    outer loop
      vertex   -2.437679140e-01 -2.816943852e-01 3.007412737e-02
      vertex   -2.437679140e-01 -2.458575898e-01 -6.328391509e-02
      vertex   -2.167902123e-01 -3.114689821e-01 -8.846976932e-02
    endloop
  endfacet
  facet normal -9.335804246e-01 -3.345653072e-01 -1.284275909e-01
    outer loop
      vertex   -2.167902123e-01 -3.114689821e-01 -8.846976932e-02
      vertex   -2.167902123e-01 -3.473057776e-01 4.888273140e-03
      vertex   -2.437679140e-01 -2.816943852e-01 3.007412737e-02
    endloop
  endfacet
  facet normal -9.335804246e-01 -3.345653072e-01 -1.284275909e-01
    outer loop
      vertex   -2.437679140e-01 -2.816943852e-01 3.007412737e-02
      vertex   -2.167902123e-01 -3.473057776e-01 4.888273140e-03
      vertex   -2.167902123e-01 -3.831425731e-01 9.824631560e-02
    endloop
  endfacet
  facet normal -9.335804246e-01 -3.345653072e-01 -1.284275909e-01
    outer loop
      vertex   -2.437679140e-01 -3.175311807e-01 1.234321698e-01
      vertex   -2.437679140e-01 -2.816943852e-01 3.007412737e-02
      vertex   -2.167902123e-01 -3.831425731e-01 9.824631560e-02
    endloop
  endfacet
  facet normal -9.335804246e-01 -3.345653072e-01 -1.284275909e-01
    outer loop
      vertex   -2.437679140e-01 -3.175311807e-01 1.234321698e-01
      vertex   -2.167902123e-01 -3.831425731e-01 9.824631560e-02
      vertex   -2.437679140e-01 -3.533679761e-01 2.167902123e-01
    endloop
  endfacet
  facet normal -9.335804246e-01 -3.345653072e-01 -1.284275909e-01
    outer loop
      vertex   -2.167902123e-01 -3.831425731e-01 9.824631560e-02
      vertex   -2.167902123e-01 -4.189793685e-01 1.916043581e-01
      vertex   -2.437679140e-01 -3.533679761e-01 2.167902123e-01
    endloop
  endfacet
endsolid
solid left
  facet normal 2.304382005e-16 3.583679546e-01 -9.335804246e-01
    outer loop
      vertex   -1.504098715e-01 -1.407274681e-01 -2.371572409e-01
      vertex   -1.234321698e-01 -2.063388605e-01 -2.623430951e-01
      vertex   -2.437679140e-01 -1.741839988e-01 -2.500000000e-01
    endloop
  endfacet
  facet normal 1.296214878e-16 3.583679546e-01 -9.335804246e-01
    outer loop
      vertex   -1.504098715e-01 -1.407274681e-01 -2.371572409e-01
      vertex   -3.007412737e-02 -1.728823298e-01 -2.495003361e-01
      vertex   -1.234321698e-01 -2.063388605e-01 -2.623430951e-01
    endloop
  endfacet
  facet normal 2.232370067e-16 3.583679546e-01 -9.335804246e-01
    outer loop
      vertex   -1.234321698e-01 -2.063388605e-01 -2.623430951e-01
      vertex   -2.167902123e-01 -2.397953912e-01 -2.751858542e-01
      vertex   -2.437679140e-01 -1.741839988e-01 -2.500000000e-01
    endloop
  endfacet
  facet normal 1.296214878e-16 3.583679546e-01 -9.335804246e-01
    outer loop
      vertex   -1.504098715e-01 -1.407274681e-01 -2.371572409e-01
      vertex   -5.705182909e-02 -1.072709374e-01 -2.243144818e-01
      vertex   -3.007412737e-02 -1.728823298e-01 -2.495003361e-01
    endloop
  endfacet
  facet normal -2.592429756e-16 3.583679546e-01 -9.335804246e-01
    outer loop
      vertex   6.328391509e-02 -1.394257991e-01 -2.366575770e-01
      vertex   -3.007412737e-02 -1.728823298e-01 -2.495003361e-01
      vertex   -5.705182909e-02 -1.072709374e-01 -2.243144818e-01
    endloop
  endfacet
  facet normal -2.160358130e-17 3.583679546e-01 -9.335804246e-01
    outer loop
      vertex   -5.705182909e-02 -1.072709374e-01 -2.243144818e-01
      vertex   3.630621337e-02 -7.381440669e-02 -2.114717227e-01
      vertex   6.328391509e-02 -1.394257991e-01 -2.366575770e-01
    endloop
  endfacet
  facet normal -1.152191003e-16 3.583679546e-01 -9.335804246e-01
    outer loop
      vertex   1.566419575e-01 -1.059692683e-01 -2.238148179e-01
      vertex   6.328391509e-02 -1.394257991e-01 -2.366575770e-01
      vertex   3.630621337e-02 -7.381440669e-02 -2.114717227e-01
    endloop
  endfacet
  facet normal -2.232370067e-16 3.583679546e-01 -9.335804246e-01
    outer loop
      vertex   3.630621337e-02 -7.381440669e-02 -2.114717227e-01
      vertex   1.296642558e-01 -4.035787597e-02 -1.986289636e-01
      vertex   1.566419575e-01 -1.059692683e-01 -2.238148179e-01
    endloop
  endfacet
  facet normal 8.641432519e-17 3.583679546e-01 -9.335804246e-01
    outer loop
      vertex   2.500000000e-01 -7.251273762e-02 -2.109720588e-01
      vertex   1.566419575e-01 -1.059692683e-01 -2.238148179e-01
      vertex   1.296642558e-01 -4.035787597e-02 -1.986289636e-01
    endloop
  endfacet
  facet normal -2.160358130e-17 3.583679546e-01 -9.335804246e-01
    outer loop
      vertex   1.296642558e-01 -4.035787597e-02 -1.986289636e-01
      vertex   2.230222983e-01 -6.901345246e-03 -1.857862046e-01
      vertex   2.500000000e-01 -7.251273762e-02 -2.109720588e-01
    endloop
  endfacet
endsolid
solid bottom
  facet normal 9.335804246e-01 3.345653072e-01 1.284275909e-01
    outer loop
      vertex   2.230222983e-01 -6.901345246e-03 -1.857862046e-01
      vertex   2.230222983e-01 -4.273814071e-02 -9.242816210e-02
      vertex   2.500000000e-01 -1.083495331e-01 -1.176140163e-01
    endloop
  endfacet
  facet normal 9.335804246e-01 3.345653072e-01 1.284275909e-01
    outer loop
      vertex   2.500000000e-01 -1.083495331e-01 -1.176140163e-01
      vertex   2.500000000e-01 -7.251273762e-02 -2.109720588e-01
      vertex   2.230222983e-01 -6.901345246e-03 -1.857862046e-01
    endloop
  endfacet
  facet normal 9.335804246e-01 3.345653072e-01 1.284275909e-01
    outer loop
      vertex   2.500000000e-01 -1.441863285e-01 -2.425597387e-02
      vertex   2.500000000e-01 -1.083495331e-01 -1.176140163e-01
      vertex   2.230222983e-01 -4.273814071e-02 -9.242816210e-02
    endloop
  endfacet
  facet normal 9.335804246e-01 3.345653072e-01 1.284275909e-01
    outer loop
      vertex   2.230222983e-01 -4.273814071e-02 -9.242816210e-02
      vertex   2.230222983e-01 -7.857493617e-02 9.298803535e-04
      vertex   2.500000000e-01 -1.441863285e-01 -2.425597387e-02
    endloop
  endfacet
  facet normal 9.335804246e-01 3.345653072e-01 1.284275909e-01
    outer loop
      vertex   2.500000000e-01 -1.800231240e-01 6.910206858e-02
      vertex   2.500000000e-01 -1.441863285e-01 -2.425597387e-02
      vertex   2.230222983e-01 -7.857493617e-02 9.298803535e-04
    endloop
  endfacet
  facet normal 9.335804246e-01 3.345653072e-01 1.284275909e-01
    outer loop
      vertex   2.230222983e-01 -7.857493617e-02 9.298803535e-04
      vertex   2.230222983e-01 -1.144117316e-01 9.428792281e-02
      vertex   2.500000000e-01 -1.800231240e-01 6.910206858e-02
    endloop
  endfacet
  facet normal 9.335804246e-01 3.345653072e-01 1.284275909e-01
    outer loop
      vertex   2.500000000e-01 -1.800231240e-01 6.910206858e-02
      vertex   2.230222983e-01 -1.144117316e-01 9.428792281e-02
      vertex   2.500000000e-01 -2.158599195e-01 1.624601110e-01
    endloop
  endfacet
  facet normal 9.335804246e-01 3.345653072e-01 1.284275909e-01
    outer loop
      vertex   2.230222983e-01 -1.144117316e-01 9.428792281e-02
      vertex   2.230222983e-01 -1.502485271e-01 1.876459653e-01
      vertex   2.500000000e-01 -2.158599195e-01 1.624601110e-01
    endloop
  endfacet
  facet normal 9.335804246e-01 3.345653072e-01 1.284275909e-01
    outer loop
      vertex   2.230222983e-01 -1.502485271e-01 1.876459653e-01
      vertex   2.500000000e-01 -2.516967149e-01 2.558181535e-01
      vertex   2.500000000e-01 -2.158599195e-01 1.624601110e-01
    endloop
  endfacet
  facet normal 9.335804246e-01 3.345653072e-01 1.284275909e-01
    outer loop
      vertex   2.230222983e-01 -1.502485271e-01 1.876459653e-01
      vertex   2.230222983e-01 -1.860853225e-01 2.810040077e-01
      vertex   2.500000000e-01 -2.516967149e-01 2.558181535e-01
    endloop
  endfacet
endsolid
solid right
  facet normal 2.304382005e-16 -3.583679546e-01 9.335804246e-01
    outer loop
      vertex   -1.234321698e-01 -3.855228378e-01 2.044471171e-01
      vertex   -5.705182909e-02 -2.864549147e-01 2.424757305e-01
      vertex   -1.504098715e-01 -3.199114454e-01 2.296329714e-01
    endloop
  endfacet
  facet normal -1.440238753e-16 -3.583679546e-01 9.335804246e-01
    outer loop
      vertex   -1.234321698e-01 -3.855228378e-01 2.044471171e-01
      vertex   -3.007412737e-02 -3.520663071e-01 2.172898762e-01
      vertex   -5.705182909e-02 -2.864549147e-01 2.424757305e-01
    endloop
  endfacet
  facet normal -4.032668509e-16 -3.583679546e-01 9.335804246e-01
    outer loop
      vertex   -1.234321698e-01 -3.855228378e-01 2.044471171e-01
      vertex   -1.504098715e-01 -3.199114454e-01 2.296329714e-01
      vertex   -2.167902123e-01 -4.189793685e-01 1.916043581e-01
    endloop
  endfacet
  facet normal -5.760955013e-16 -3.583679546e-01 9.335804246e-01
    outer loop
      vertex   3.630621337e-02 -2.529983840e-01 2.553184895e-01
      vertex   -5.705182909e-02 -2.864549147e-01 2.424757305e-01
      vertex   -3.007412737e-02 -3.520663071e-01 2.172898762e-01
    endloop
  endfacet
  facet normal -5.760955013e-17 -3.583679546e-01 9.335804246e-01
    outer loop
      vertex   -1.504098715e-01 -3.199114454e-01 2.296329714e-01
      vertex   -2.437679140e-01 -3.533679761e-01 2.167902123e-01
      vertex   -2.167902123e-01 -4.189793685e-01 1.916043581e-01
    endloop
  endfacet
  facet normal 4.320716260e-16 -3.583679546e-01 9.335804246e-01
    outer loop
      vertex   -3.007412737e-02 -3.520663071e-01 2.172898762e-01
      vertex   6.328391509e-02 -3.186097764e-01 2.301326353e-01
      vertex   3.630621337e-02 -2.529983840e-01 2.553184895e-01
    endloop
  endfacet
  facet normal 8.641432519e-17 -3.583679546e-01 9.335804246e-01
    outer loop
      vertex   1.296642558e-01 -2.195418533e-01 2.681612486e-01
      vertex   3.630621337e-02 -2.529983840e-01 2.553184895e-01
      vertex   6.328391509e-02 -3.186097764e-01 2.301326353e-01
    endloop
  endfacet
  facet normal 5.760955013e-17 -3.583679546e-01 9.335804246e-01
    outer loop
      vertex   6.328391509e-02 -3.186097764e-01 2.301326353e-01
      vertex   1.566419575e-01 -2.851532456e-01 2.429753944e-01
      vertex   1.296642558e-01 -2.195418533e-01 2.681612486e-01
    endloop
  endfacet
  facet normal 3.744620758e-16 -3.583679546e-01 9.335804246e-01
    outer loop
      vertex   2.230222983e-01 -1.860853225e-01 2.810040077e-01
      vertex   1.296642558e-01 -2.195418533e-01 2.681612486e-01
      vertex   1.566419575e-01 -2.851532456e-01 2.429753944e-01
    endloop
  endfacet
  facet normal 5.760955013e-17 -3.583679546e-01 9.335804246e-01
    outer loop
      vertex   1.566419575e-01 -2.851532456e-01 2.429753944e-01
      vertex   2.500000000e-01 -2.516967149e-01 2.558181535e-01
      vertex   2.230222983e-01 -1.860853225e-01 2.810040077e-01
    endloop
  endfacet
endsolid
