/* XPM */
static char * mini_kpipe_xpm[] = {
"16 16 11 1",
" 	c None",
".	c #000000",
"+	c #DCDCDC",
"@	c #A0A0A0",
"#	c #C3C3C3",
"S	c #808080",
"%	c #FFA858",
"&	c #FFDCA8",
"*	c #FFFFC0",
"=	c #FFFFFF",
"-	c #585858",
"       ..       ",
"   .. .++. ..   ",
"  .+@.@##@.@+.  ",
"  .@+S@%%@S+@.  ",
"   .S%%&%&%S.   ",
" ..+@%&SS%&@+.. ",
".+#@%&%@@&*%@#+.",
".S@+S&*&&=*S+@S.",
" .--+S&*=&S+--. ",
"  .S#++SS++#S.  ",
" .@=S-S++S-S=@. ",
" .+@-..@@..-@+. ",
"  ... .+=. ...  ",
"      .-S.      ",
"       ..       ",
"                "};
