solid ascii
 facet normal -1 0 0
  outer loop
   vertex -200 -50 0
   vertex -200 -50 200
   vertex -200 250 0
  endloop
 endfacet
 facet normal -1 0 0
  outer loop
   vertex -200 250 200
   vertex -200 250 0
   vertex -200 -50 200
  endloop
 endfacet
 facet normal 1 0 0
  outer loop
   vertex 0 -50 0
   vertex 0 250 0
   vertex 0 -50 200
  endloop
 endfacet
 facet normal 1 -0 0
  outer loop
   vertex 0 250 200
   vertex 0 -50 200
   vertex 0 250 0
  endloop
 endfacet
 facet normal 0 -1 0
  outer loop
   vertex -200 -50 0
   vertex 0 -50 0
   vertex -200 -50 200
  endloop
 endfacet
 facet normal 0 -1 0
  outer loop
   vertex 0 -50 200
   vertex -200 -50 200
   vertex 0 -50 0
  endloop
 endfacet
 facet normal 0 1 0
  outer loop
   vertex -200 250 0
   vertex -200 250 200
   vertex 0 250 0
  endloop
 endfacet
 facet normal 0 1 -0
  outer loop
   vertex 0 250 200
   vertex 0 250 0
   vertex -200 250 200
  endloop
 endfacet
 facet normal 0 0 -1
  outer loop
   vertex -200 -50 0
   vertex -200 250 0
   vertex 0 -50 0
  endloop
 endfacet
 facet normal 0 0 -1
  outer loop
   vertex 0 250 0
   vertex 0 -50 0
   vertex -200 250 0
  endloop
 endfacet
 facet normal 0 0 1
  outer loop
   vertex -200 -50 200
   vertex 0 -50 200
   vertex -200 250 200
  endloop
 endfacet
 facet normal -0 0 1
  outer loop
   vertex 0 250 200
   vertex -200 250 200
   vertex 0 -50 200
  endloop
 endfacet
endsolid
